<svg width="46" height="44" viewBox="0 0 46 44" fill="none" xmlns="http://www.w3.org/2000/svg">
<path d="M38.8008 16.5262H28.7514L28.0015 12.0267C28.4404 11.7805 28.7413 11.3162 28.7413 10.778V7.90386C28.7413 7.1113 28.0964 6.46679 27.3042 6.46679H18.6818C17.8893 6.46679 17.2448 7.1113 17.2448 7.90386V10.778C17.2448 11.3163 17.5456 11.7807 17.9847 12.0269L17.1244 17.1884C16.6369 17.4131 16.1799 17.6905 15.7585 18.0138L15.2322 15.5136C15.5796 15.2511 15.8077 14.8387 15.8077 14.3706V11.4965C15.8077 10.704 15.1632 10.0595 14.3706 10.0595H5.74826C4.9557 10.0595 4.31119 10.704 4.31119 11.4965V14.3706C4.31119 14.8388 4.53942 15.2512 4.88685 15.5137L0.755722 35.1372C0.254363 37.5184 0 39.9596 0 42.3934C0 42.7902 0.321726 43.1119 0.718532 43.1119H45.2675C45.6647 43.1119 45.9861 42.7902 45.9861 42.3934V23.7116C45.9861 19.7495 42.7625 16.5262 38.8008 16.5262ZM44.549 23.7116V27.3042H33.0525V23.7116C33.0525 20.542 35.6312 17.9633 38.8008 17.9633C41.9703 17.9633 44.549 20.542 44.549 23.7116ZM31.6154 23.7116V27.3042H27.3042V23.7116C27.3042 20.542 29.8829 17.9633 33.0525 17.9633H34.5079C32.7562 19.2749 31.6154 21.3598 31.6154 23.7116ZM25.8672 23.7116V27.3042H19.4004V23.7116C19.4004 20.542 21.9791 17.9633 25.1486 17.9633H28.7597C27.008 19.2749 25.8672 21.3598 25.8672 23.7116ZM18.6818 7.90386H27.3042L27.3049 10.778H18.6818V7.90386ZM19.4102 12.2151H26.5761L27.2946 16.5262H20.1189C19.6216 16.5262 19.1361 16.5773 18.667 16.6739L19.4102 12.2151ZM20.1189 17.9633H20.8556C19.104 19.2749 17.9633 21.3598 17.9633 23.7116V27.3042H14.3706V23.7116C14.3706 20.542 16.9494 17.9633 20.1189 17.9633ZM13.8257 15.8077L14.5384 19.1944C14.1351 19.6917 13.7979 20.2437 13.5377 20.8374H5.23462L6.29347 15.8077H13.8257ZM5.74826 11.4965H14.3706L14.3717 14.3706H5.74826V11.4965ZM2.16191 35.4333L4.9361 22.2556C4.96811 22.26 4.99653 22.2745 5.02973 22.2745H13.0784C12.9837 22.739 12.9336 23.2195 12.9336 23.7116V31.6154H10.0595C9.66265 31.6154 9.34092 31.9372 9.34092 32.334V34.4896H6.46679C4.88202 34.4896 3.59266 35.7789 3.59266 37.3637V41.6749H1.44478C1.48969 39.5793 1.73037 37.483 2.16191 35.4333ZM9.34092 41.6749H7.90386V38.8008H9.34092V41.6749ZM5.02973 41.6749V37.3637C5.02973 36.5711 5.67423 35.9266 6.46679 35.9266H9.34092V37.3637H7.18532C6.78852 37.3637 6.46679 37.6854 6.46679 38.0822V41.6749H5.02973ZM10.778 33.0525H12.9336V41.6749H10.778V33.0525ZM14.3706 28.7413H31.6154V41.6749H14.3706V28.7413ZM36.6452 41.6749V36.6452H40.9563V41.6749H36.6452ZM44.549 41.6749H42.3934V35.9266C42.3934 35.5298 42.072 35.2081 41.6749 35.2081H35.9266C35.5295 35.2081 35.2081 35.5298 35.2081 35.9266V41.6749H33.0525V28.7413H44.549V41.6749Z" fill="#F1F162"/>
<path d="M29.4598 30.8969H16.5262C16.1294 30.8969 15.8077 31.2186 15.8077 31.6154V35.9266C15.8077 36.3234 16.1294 36.6452 16.5262 36.6452H29.4598C29.857 36.6452 30.1784 36.3234 30.1784 35.9266V31.6154C30.1784 31.2186 29.857 30.8969 29.4598 30.8969ZM17.2448 32.334H20.1189V35.2081H17.2448V32.334ZM21.556 35.2081V32.334H24.4301V35.2081H21.556ZM28.7413 35.2081H25.8672V32.334H28.7413V35.2081Z" fill="#F1F162"/>
<path d="M20.8374 38.0822H16.5262C16.1294 38.0822 15.8077 38.4039 15.8077 38.8008C15.8077 39.1976 16.1294 39.5193 16.5262 39.5193H20.8374C21.2342 39.5193 21.556 39.1976 21.556 38.8008C21.556 38.4039 21.2342 38.0822 20.8374 38.0822Z" fill="#F1F162"/>
<path d="M8.62239 7.18532C9.0192 7.18532 9.34092 6.8636 9.34092 6.46679V5.02973C9.34092 3.04885 10.9527 1.43706 12.9336 1.43706H28.7413C29.1385 1.43706 29.4598 1.11534 29.4598 0.718532C29.4598 0.321726 29.1385 0 28.7413 0H12.9336C10.1601 0 7.90386 2.25629 7.90386 5.02973V6.46679C7.90386 6.8636 8.22558 7.18532 8.62239 7.18532Z" fill="#F1F162"/>
<path d="M31.6154 1.43706H33.0525C33.4496 1.43706 33.771 1.11534 33.771 0.718532C33.771 0.321726 33.4496 0 33.0525 0H31.6154C31.2183 0 30.8969 0.321726 30.8969 0.718532C30.8969 1.11534 31.2183 1.43706 31.6154 1.43706Z" fill="#F1F162"/>
<path d="M12.9336 2.87413C11.7449 2.87413 10.778 3.84106 10.778 5.02973V6.46679C10.778 6.8636 11.0997 7.18532 11.4965 7.18532C11.8933 7.18532 12.2151 6.8636 12.2151 6.46679V5.02973C12.2151 4.63362 12.5375 4.31119 12.9336 4.31119H22.993C23.3898 4.31119 23.7116 3.98947 23.7116 3.59266C23.7116 3.19586 23.3898 2.87413 22.993 2.87413H12.9336Z" fill="#F1F162"/>
</svg>
