<svg width="47" height="38" viewBox="0 0 47 38" fill="none" xmlns="http://www.w3.org/2000/svg">
<path d="M20.9374 12.6506H9.38573C8.98702 12.6506 8.66375 12.9735 8.66375 13.3726V22.0363C8.66375 22.4354 8.98702 22.7583 9.38573 22.7583H20.9374C21.3361 22.7583 21.6594 22.4354 21.6594 22.0363V13.3726C21.6594 12.9735 21.3361 12.6506 20.9374 12.6506ZM20.2154 14.0946V16.9825H19.0704L17.838 15.75C17.6903 15.6013 17.483 15.5223 17.2764 15.5406C17.0677 15.5554 16.8756 15.6598 16.7501 15.8276L15.1616 17.9449L13.5731 15.8276C13.4476 15.6598 13.2554 15.5554 13.0467 15.5406C12.8402 15.5258 12.6329 15.602 12.4852 15.75L11.2527 16.9825H10.1077V14.0946H20.2154ZM10.1077 21.3144V18.4264H11.5517C11.7431 18.4264 11.9268 18.3503 12.0621 18.2149L12.9174 17.3597L14.5841 19.5813C14.7202 19.7632 14.9342 19.8704 15.1616 19.8704C15.3889 19.8704 15.6029 19.7632 15.739 19.5813L17.4058 17.3597L18.261 18.2149C18.3964 18.3503 18.58 18.4264 18.7715 18.4264H20.2154V21.3144H10.1077Z" fill="#F1F162"/>
<path d="M10.8297 28.5341C12.0241 28.5341 12.9956 27.5626 12.9956 26.3682C12.9956 25.1738 12.0241 24.2023 10.8297 24.2023C9.63532 24.2023 8.66375 25.1738 8.66375 26.3682C8.66375 27.5626 9.63532 28.5341 10.8297 28.5341ZM10.8297 25.6462C11.2277 25.6462 11.5517 25.9698 11.5517 26.3682C11.5517 26.7666 11.2277 27.0902 10.8297 27.0902C10.4317 27.0902 10.1077 26.7666 10.1077 26.3682C10.1077 25.9698 10.4317 25.6462 10.8297 25.6462Z" fill="#F1F162"/>
<path d="M16.6055 24.2023C15.4112 24.2023 14.4396 25.1738 14.4396 26.3682C14.4396 27.5626 15.4112 28.5341 16.6055 28.5341C17.7999 28.5341 18.7715 27.5626 18.7715 26.3682C18.7715 25.1738 17.7999 24.2023 16.6055 24.2023ZM16.6055 27.0902C16.2075 27.0902 15.8835 26.7666 15.8835 26.3682C15.8835 25.9698 16.2075 25.6462 16.6055 25.6462C17.0035 25.6462 17.3275 25.9698 17.3275 26.3682C17.3275 26.7666 17.0035 27.0902 16.6055 27.0902Z" fill="#F1F162"/>
<path d="M15.8835 29.9781H9.38573C8.98702 29.9781 8.66375 30.301 8.66375 30.7001C8.66375 31.0991 8.98702 31.4221 9.38573 31.4221H15.8835C16.2823 31.4221 16.6055 31.0991 16.6055 30.7001C16.6055 30.301 16.2823 29.9781 15.8835 29.9781Z" fill="#F1F162"/>
<path d="M15.8835 32.866H9.38573C8.98702 32.866 8.66375 33.1889 8.66375 33.588C8.66375 33.9871 8.98702 34.31 9.38573 34.31H15.8835C16.2823 34.31 16.6055 33.9871 16.6055 33.588C16.6055 33.1889 16.2823 32.866 15.8835 32.866Z" fill="#F1F162"/>
<path d="M40.4308 35.032C42.0232 35.032 43.3188 33.7368 43.3188 32.144C43.3188 30.5513 42.0232 29.2561 40.4308 29.2561C38.8385 29.2561 37.5429 30.5513 37.5429 32.144C37.5429 33.7368 38.8385 35.032 40.4308 35.032ZM40.4308 30.7001C41.2272 30.7001 41.8748 31.348 41.8748 32.144C41.8748 32.94 41.2272 33.588 40.4308 33.588C39.6345 33.588 38.9869 32.94 38.9869 32.144C38.9869 31.348 39.6345 30.7001 40.4308 30.7001Z" fill="#F1F162"/>
<path d="M33.211 35.032C34.8034 35.032 36.099 33.7368 36.099 32.144C36.099 30.5513 34.8034 29.2561 33.211 29.2561C31.6187 29.2561 30.3231 30.5513 30.3231 32.144C30.3231 33.7368 31.6187 35.032 33.211 35.032ZM33.211 30.7001C34.0074 30.7001 34.655 31.348 34.655 32.144C34.655 32.94 34.0074 33.588 33.211 33.588C32.4147 33.588 31.7671 32.94 31.7671 32.144C31.7671 31.348 32.4147 30.7001 33.211 30.7001Z" fill="#F1F162"/>
<path d="M46.2067 15.5385V12.6506C46.2067 11.4562 45.2351 10.4847 44.0407 10.4847H39.8344L43.145 6.62236C43.1926 6.56683 43.2297 6.50505 43.2579 6.44001C43.2625 6.42935 43.2634 6.4174 43.2676 6.40648C43.2942 6.33597 43.3079 6.26278 43.3117 6.18782C43.3123 6.17552 43.3188 6.16521 43.3188 6.15279V2.54289C43.3188 2.14383 42.9955 1.82091 42.5968 1.82091H28.1572C27.7585 1.82091 27.4352 2.14383 27.4352 2.54289V6.15279C27.4352 6.16521 27.4417 6.17552 27.4423 6.18782C27.4461 6.26278 27.4598 6.33597 27.4864 6.40648C27.4906 6.4174 27.4914 6.42935 27.4961 6.44001C27.5243 6.50505 27.5614 6.56683 27.609 6.62236L30.9196 10.4847H25.2693V9.76268C25.2693 9.36362 24.946 9.0407 24.5473 9.0407H23.8253V1.82091C24.224 1.82091 24.5473 1.498 24.5473 1.09893C24.5473 0.69987 24.224 0.376953 23.8253 0.376953H16.6055C16.2068 0.376953 15.8835 0.69987 15.8835 1.09893C15.8835 1.498 16.2068 1.82091 16.6055 1.82091V9.0407H13.7176V1.82091C14.1163 1.82091 14.4396 1.498 14.4396 1.09893C14.4396 0.69987 14.1163 0.376953 13.7176 0.376953H6.49781C6.0991 0.376953 5.77583 0.69987 5.77583 1.09893C5.77583 1.498 6.0991 1.82091 6.49781 1.82091V9.0407H5.77583C5.37712 9.0407 5.05385 9.36362 5.05385 9.76268V20.5924H4.33188C2.7395 20.5924 1.44396 21.8876 1.44396 23.4803V26.3682H0.721979C0.323269 26.3682 0 26.6911 0 27.0902V37.1979C0 37.597 0.323269 37.9199 0.721979 37.9199H40.4308C43.6156 37.9199 46.2067 35.3288 46.2067 32.144C46.2067 30.6014 45.606 29.1511 44.5152 28.0596C43.4242 26.9689 41.9735 26.3682 40.4308 26.3682H25.2693V17.7045H44.0407C45.2351 17.7045 46.2067 16.7329 46.2067 15.5385ZM28.8792 3.26487H41.8748V5.43081H28.8792V3.26487ZM29.727 6.87477H41.027L37.9328 10.4847H32.8211L29.727 6.87477ZM25.2693 30.8954C25.4868 30.7678 25.735 30.7001 25.9913 30.7001C26.7876 30.7001 27.4352 31.348 27.4352 32.144C27.4352 32.94 26.7876 33.588 25.9913 33.588C25.735 33.588 25.4868 33.5203 25.2693 33.3927V30.8954ZM22.3814 1.82091V3.98685H18.0495V1.82091H22.3814ZM18.0495 5.43081H22.3814V9.0407H18.0495V5.43081ZM12.2736 1.82091V3.98685H7.94177V1.82091H12.2736ZM7.94177 5.43081H12.2736V9.0407H7.94177V5.43081ZM2.88792 23.4803C2.88792 22.6843 3.53551 22.0363 4.33188 22.0363H5.05385V26.3682H2.88792V23.4803ZM1.44396 27.8122H5.05385V36.4759H1.44396V27.8122ZM6.49781 10.4847H23.8253V36.4759H6.49781V10.4847ZM40.4308 27.8122C41.5882 27.8122 42.6761 28.2627 43.494 29.0806C44.3122 29.8991 44.7627 30.987 44.7627 32.144C44.7627 34.5328 42.8196 36.4759 40.4308 36.4759H25.2693V34.9284C25.5041 34.9895 25.7442 35.032 25.9913 35.032C27.5836 35.032 28.8792 33.7368 28.8792 32.144C28.8792 30.5513 27.5836 29.2561 25.9913 29.2561C25.7442 29.2561 25.5041 29.2985 25.2693 29.3596V27.8122H40.4308ZM25.2693 11.9286H44.0407C44.4387 11.9286 44.7627 12.2522 44.7627 12.6506V15.5385C44.7627 15.9369 44.4387 16.2605 44.0407 16.2605H25.2693V11.9286Z" fill="#F1F162"/>
<path d="M39.3584 19.2514C39.1353 19.1181 38.8572 19.1139 38.6312 19.2422C38.4049 19.3705 38.2649 19.6102 38.2649 19.8704V24.2023C38.2649 24.4624 38.4049 24.7022 38.6312 24.8305C38.7415 24.8932 38.8642 24.9242 38.9869 24.9242C39.1156 24.9242 39.2442 24.8897 39.3584 24.8213L42.9683 22.6554C43.1859 22.5249 43.3188 22.2902 43.3188 22.0363C43.3188 21.7825 43.1859 21.5477 42.9683 21.4173L39.3584 19.2514ZM39.7089 22.9268V21.1458L41.1934 22.0363L39.7089 22.9268Z" fill="#F1F162"/>
<path d="M31.4167 19.2514C31.1939 19.1181 30.9157 19.1139 30.6894 19.2422C30.4631 19.3705 30.3231 19.6102 30.3231 19.8704V24.2023C30.3231 24.4624 30.4631 24.7022 30.6894 24.8305C30.7997 24.8932 30.9224 24.9242 31.0451 24.9242C31.1738 24.9242 31.3025 24.8897 31.4167 24.8213L35.0266 22.6554C35.2441 22.5249 35.377 22.2902 35.377 22.0363C35.377 21.7825 35.2441 21.5477 35.0266 21.4173L31.4167 19.2514ZM31.7671 22.9268V21.1458L33.2516 22.0363L31.7671 22.9268Z" fill="#F1F162"/>
</svg>
