<svg width="47" height="44" viewBox="0 0 47 44" fill="none" xmlns="http://www.w3.org/2000/svg">
<path d="M34.6833 8.11077C35.0561 8.11077 35.3583 7.80865 35.3583 7.43579V6.52844C35.3583 6.15558 35.0561 5.85346 34.6833 5.85346C34.3104 5.85346 34.0083 6.15558 34.0083 6.52844V7.43579C34.0083 7.80856 34.3105 8.11077 34.6833 8.11077Z" fill="#F1F162"/>
<path d="M42.027 14.1044C41.6541 14.1044 41.352 14.4065 41.352 14.7794C41.352 15.1523 41.6541 15.4544 42.027 15.4544H42.9342C43.3071 15.4544 43.6092 15.1523 43.6092 14.7794C43.6092 14.4065 43.3071 14.1044 42.9342 14.1044H42.027Z" fill="#F1F162"/>
<path d="M26.4323 14.1044C26.0595 14.1044 25.7573 14.4065 25.7573 14.7794C25.7573 15.1523 26.0595 15.4544 26.4323 15.4544H27.3397C27.7125 15.4544 28.0146 15.1523 28.0146 14.7794C28.0146 14.4065 27.7125 14.1044 27.3397 14.1044H26.4323Z" fill="#F1F162"/>
<path d="M37.6436 35.665C36.4449 35.665 35.4696 36.6403 35.4696 37.839C35.4696 39.0376 36.4449 40.0129 37.6436 40.0129C38.8423 40.0129 39.8176 39.0376 39.8176 37.839C39.8176 36.6403 38.8423 35.665 37.6436 35.665ZM37.6436 38.663C37.1892 38.663 36.8195 38.2934 36.8195 37.839C36.8195 37.3846 37.1892 37.0149 37.6436 37.0149C38.098 37.0149 38.4677 37.3846 38.4677 37.839C38.4677 38.2934 38.098 38.663 37.6436 38.663Z" fill="#F1F162"/>
<path d="M12.9978 37.839C12.9978 39.0376 13.9731 40.0129 15.1718 40.0129C16.3706 40.0129 17.3458 39.0376 17.3458 37.839C17.3458 36.6403 16.3706 35.665 15.1718 35.665C13.9731 35.665 12.9978 36.6402 12.9978 37.839ZM15.9959 37.839C15.9959 38.2934 15.6262 38.663 15.1718 38.663C14.7174 38.663 14.3477 38.2934 14.3477 37.839C14.3477 37.3846 14.7174 37.0149 15.1718 37.0149C15.6262 37.0149 15.9959 37.3846 15.9959 37.839Z" fill="#F1F162"/>
<path d="M19.7545 27.4792C20.5165 26.7375 20.6044 25.4474 19.7388 24.605L16.9332 21.8741C15.9211 20.8893 14.2964 20.9111 13.3113 21.923L12.7859 22.4628C12.5259 22.73 12.5317 23.1573 12.7988 23.4172L15.5032 26.0497L12.7988 28.682C12.6705 28.8068 12.5971 28.9776 12.5947 29.1565C12.5923 29.3355 12.6611 29.5081 12.7859 29.6364L13.3113 30.1762C14.2996 31.1915 15.9208 31.2108 16.9332 30.2251L19.7545 27.4792ZM14.2787 29.2348L14.2241 29.1787L16.9417 26.5334C17.0722 26.4064 17.1459 26.2319 17.1459 26.0498C17.1459 25.8676 17.0723 25.6931 16.9417 25.5661L14.2241 22.9207L14.2787 22.8647C14.7447 22.386 15.513 22.3756 15.9916 22.8414L18.7972 25.5724C19.0966 25.8638 19.0566 26.2746 18.813 26.5118L15.9916 29.2579C15.5153 29.7215 14.7485 29.7174 14.2787 29.2348Z" fill="#F1F162"/>
<path d="M34.0083 14.7794C34.0083 15.1523 34.3104 15.4544 34.6833 15.4544H36.9787C37.3516 15.4544 37.6537 15.1523 37.6537 14.7794C37.6537 14.4065 37.3516 14.1044 36.9787 14.1044H35.3583V9.901C35.3583 9.52814 35.0561 9.22602 34.6833 9.22602C34.3104 9.22602 34.0083 9.52814 34.0083 9.901V14.7794Z" fill="#F1F162"/>
<path d="M11.5306 9.01074H23.1529C23.5258 9.01074 23.8279 8.70862 23.8279 8.33576C23.8279 7.9629 23.5258 7.66078 23.1529 7.66078H11.5306C11.1578 7.66078 10.8556 7.9629 10.8556 8.33576C10.8556 8.70862 11.1578 9.01074 11.5306 9.01074Z" fill="#F1F162"/>
<path d="M8.71327 12.4979H20.7776C21.1504 12.4979 21.4526 12.1958 21.4526 11.8229C21.4526 11.45 21.1504 11.1479 20.7776 11.1479H8.71327C8.34051 11.1479 8.03829 11.45 8.03829 11.8229C8.03829 12.1958 8.34051 12.4979 8.71327 12.4979Z" fill="#F1F162"/>
<path d="M15.6153 14.2577C15.2425 14.2577 14.9403 14.5598 14.9403 14.9327C14.9403 15.3055 15.2425 15.6076 15.6153 15.6076H21.6185C21.9913 15.6076 22.2935 15.3055 22.2935 14.9327C22.2935 14.5598 21.9913 14.2577 21.6185 14.2577H15.6153Z" fill="#F1F162"/>
<path d="M9.92446 14.2577C9.55169 14.2577 9.24948 14.5598 9.24948 14.9327C9.24948 15.3055 9.55169 15.6076 9.92446 15.6076H12.9207C13.2934 15.6076 13.5956 15.3055 13.5956 14.9327C13.5956 14.5598 13.2934 14.2577 12.9207 14.2577H9.92446Z" fill="#F1F162"/>
<path d="M0.67498 24.903H3.14361C3.51638 24.903 3.81859 24.6009 3.81859 24.228C3.81859 23.8552 3.51638 23.5531 3.14361 23.5531H0.67498C0.302211 23.5531 0 23.8552 0 24.228C0 24.6009 0.302211 24.903 0.67498 24.903Z" fill="#F1F162"/>
<path d="M2.47493 30.8486H0.67498C0.302211 30.8486 0 31.1507 0 31.5236C0 31.8964 0.302211 32.1986 0.67498 32.1986H2.47493C2.8477 32.1986 3.14991 31.8964 3.14991 31.5236C3.14991 31.1507 2.8477 30.8486 2.47493 30.8486Z" fill="#F1F162"/>
<path d="M10.4157 25.1328H8.00842C7.63565 25.1328 7.33344 25.4349 7.33344 25.8078C7.33344 26.1806 7.63565 26.4827 8.00842 26.4827H10.4157C10.7884 26.4827 11.0906 26.1806 11.0906 25.8078C11.0906 25.4349 10.7884 25.1328 10.4157 25.1328Z" fill="#F1F162"/>
<path d="M41.0396 24.2369C44.167 22.1299 46.0786 18.5794 46.0786 14.7793C46.0786 12.9732 45.6678 11.245 44.8574 9.64297C44.6892 9.31034 44.283 9.17706 43.9505 9.34526C43.6179 9.51347 43.4845 9.91963 43.6528 10.2522C44.3666 11.6637 44.7287 13.1869 44.7287 14.7793C44.7287 18.1969 42.9743 21.3854 40.1174 23.2276L36.1877 18.9275C35.7312 18.4278 35.0812 18.1413 34.4045 18.1413H25.2152C24.8322 17.0642 24.6379 15.9354 24.6379 14.7793C24.6379 9.24024 29.1442 4.73398 34.6833 4.73398C37.5565 4.73398 40.2983 5.9691 42.2055 8.12265C42.4525 8.40164 42.8791 8.42774 43.1583 8.18043C43.4374 7.9333 43.4633 7.50671 43.2161 7.22763C42.2245 6.10788 41.0335 5.20791 39.7208 4.56055V2.27453C39.7208 1.44386 39.045 0.768066 38.2143 0.768066H31.1523C30.3216 0.768066 29.6458 1.44386 29.6458 2.27453V4.55993C25.8822 6.42269 23.2879 10.3034 23.2879 14.7793C23.2879 15.9298 23.4582 17.0566 23.7934 18.1413H6.58133C5.72032 18.1413 5.01303 18.807 4.94401 19.6506H2.47493C2.10216 19.6506 1.79995 19.9527 1.79995 20.3256C1.79995 20.6984 2.10216 21.0006 2.47493 21.0006H4.93717V27.5246H0.67498C0.302211 27.5246 0 27.8268 0 28.1996C0 28.5725 0.302211 28.8746 0.67498 28.8746H4.93717V30.8489C4.56737 30.8523 4.26848 31.1529 4.26848 31.5235C4.26848 31.8941 4.56728 32.1947 4.93717 32.1981V36.9727C4.93717 37.6813 5.51369 38.2577 6.22224 38.2577H8.03829V38.7276H5.93236C5.55959 38.7276 5.25738 39.0297 5.25738 39.4026C5.25738 39.7754 5.55959 40.0776 5.93236 40.0776H8.71327C9.08604 40.0776 9.38825 39.7754 9.38825 39.4026V38.2577H10.0041C10.2183 40.922 12.4534 43.0249 15.1718 43.0249C16.0689 43.0249 16.9545 42.7908 17.7327 42.348C18.0567 42.1636 18.1698 41.7515 17.9855 41.4275C17.8012 41.1034 17.3892 40.9905 17.065 41.1746C16.4899 41.5019 15.8352 41.6749 15.1718 41.6749C13.0566 41.6749 11.3357 39.9541 11.3357 37.8388C11.3357 35.7235 13.0566 34.0026 15.1718 34.0026C17.2871 34.0026 19.008 35.7235 19.008 37.8388C19.008 38.4155 18.883 38.9701 18.6364 39.4874C18.4759 39.8239 18.6187 40.2267 18.9552 40.3871C19.2917 40.5474 19.6945 40.4047 19.8549 40.0683C20.1285 39.4946 20.2895 38.8871 20.3394 38.2577H32.4759C32.6901 40.922 34.9252 43.0249 37.6436 43.0249C40.3621 43.0249 42.5971 40.922 42.8114 38.2577H44.2009C45.2363 38.2577 46.0786 37.4153 46.0786 36.3799V30.6858C46.0786 30.0827 45.8546 29.5054 45.4478 29.0603L41.0396 24.2369ZM30.9958 2.27453C30.9958 2.18822 31.066 2.11803 31.1523 2.11803H38.2143C38.3006 2.11803 38.3708 2.18822 38.3708 2.27453V3.99942C37.1954 3.59686 35.9508 3.38411 34.6833 3.38411C33.3933 3.38411 32.1529 3.59992 30.9957 3.99672L30.9958 2.27453ZM35.1912 19.8382L42.2155 27.5246H37.1804C36.8076 27.5246 36.5054 27.8268 36.5054 28.1996C36.5054 28.5725 36.8076 28.8746 37.1804 28.8746H43.4492L44.4513 29.9712C44.8599 30.4183 44.6882 30.9035 44.7287 31.4184H44.2083C43.8355 31.4184 43.5333 31.7205 43.5333 32.0934C43.5333 32.4662 43.8355 32.7683 44.2083 32.7683H44.7287V33.7671H40.8497C39.9667 33.0703 38.8533 32.6529 37.6437 32.6529C36.4342 32.6529 35.3208 33.0703 34.4378 33.7671H27.0834V19.4914H29.9946V27.5162C29.9946 28.2652 30.604 28.8747 31.353 28.8747H34.4819C34.8548 28.8747 35.1569 28.5726 35.1569 28.1997C35.1569 27.8268 34.8548 27.5247 34.4819 27.5247H31.353C31.3483 27.5247 31.3445 27.5209 31.3445 27.5162V19.4914H34.4046C34.703 19.4914 34.9898 19.6178 35.1912 19.8382ZM32.5429 36.9079H27.0833V35.1171H33.2317C32.8976 35.6565 32.6606 36.2616 32.5429 36.9079ZM19.5837 35.1171H25.7333V36.9079H20.2725C20.1548 36.2616 19.9178 35.6565 19.5837 35.1171ZM6.28713 35.1171H10.7598C10.4257 35.6565 10.1887 36.2616 10.071 36.9079H6.28713V35.1171ZM11.9658 33.7671H6.28713V32.1986H9.21204C9.58481 32.1986 9.88702 31.8964 9.88702 31.5236C9.88702 31.1507 9.58481 30.8486 9.21204 30.8486H6.28713V28.8746H9.21204C9.58481 28.8746 9.88702 28.5725 9.88702 28.1996C9.88702 27.8268 9.58481 27.5246 9.21204 27.5246H6.28713V19.7856C6.28713 19.6233 6.41906 19.4913 6.58133 19.4913H25.7333V33.767H18.3778C17.4948 33.0702 16.3814 32.6528 15.1718 32.6528C13.9623 32.6528 12.8489 33.0703 11.9658 33.7671ZM37.6436 41.6751C35.5283 41.6751 33.8075 39.9543 33.8075 37.839C33.8075 35.7237 35.5283 34.0028 37.6436 34.0028C39.7589 34.0028 41.4798 35.7237 41.4798 37.839C41.4798 39.9543 39.7589 41.6751 37.6436 41.6751ZM44.2008 36.9079H42.7443C42.6266 36.2616 42.3896 35.6565 42.0555 35.1171H44.7287V36.3801C44.7287 36.6712 44.4919 36.9079 44.2008 36.9079Z" fill="#F1F162"/>
</svg>
