<svg width="34" height="43" viewBox="0 0 34 43" fill="none" xmlns="http://www.w3.org/2000/svg">
<path d="M33.0522 11.1796C33.0177 11.0865 32.9638 11.0019 32.8941 10.9312L30.1022 8.1468V3.94002C30.1022 2.94207 29.7057 1.98499 29.0001 1.27934C28.2944 0.57368 27.3373 0.177246 26.3394 0.177246H3.76277C2.76482 0.177246 1.80775 0.57368 1.10209 1.27934C0.396434 1.98499 0 2.94207 0 3.94002V35.5473C0.00114065 36.4256 0.309498 37.2759 0.871644 37.9507C1.43379 38.6256 2.2143 39.0825 3.07795 39.2423C3.2378 40.106 3.69474 40.8865 4.36959 41.4486C5.04444 42.0108 5.89468 42.3191 6.77299 42.3203H29.3496C30.3476 42.3203 31.3046 41.9239 32.0103 41.2182C32.716 40.5125 33.1124 39.5555 33.1124 38.5575V11.4656C33.1112 11.3672 33.0907 11.2701 33.0522 11.1796ZM25.5868 5.75367L28.8153 8.98966L30.5462 10.713H26.3394C26.1398 10.713 25.9484 10.6337 25.8073 10.4926C25.6661 10.3515 25.5868 10.16 25.5868 9.96045V5.75367ZM1.50511 35.5473V3.94002C1.50511 3.34125 1.74297 2.767 2.16636 2.34361C2.58976 1.92022 3.164 1.68235 3.76277 1.68235H26.3394C26.9382 1.68235 27.5124 1.92022 27.9358 2.34361C28.3592 2.767 28.5971 3.34125 28.5971 3.94002V6.64169L25.3686 3.4057C25.2993 3.33801 25.2175 3.28435 25.1278 3.24767C25.0345 3.20975 24.935 3.18934 24.8343 3.18746H6.77299C5.77504 3.18746 4.81796 3.5839 4.11231 4.28955C3.40665 4.99521 3.01022 5.95229 3.01022 6.95023V37.6695C2.57106 37.5142 2.19068 37.2269 1.92122 36.847C1.65177 36.4671 1.50642 36.0131 1.50511 35.5473ZM29.3496 40.8152H6.77299C6.17422 40.8152 5.59997 40.5773 5.17658 40.1539C4.75319 39.7305 4.51533 39.1563 4.51533 38.5575V6.95023C4.51533 6.35147 4.75319 5.77722 5.17658 5.35383C5.59997 4.93043 6.17422 4.69257 6.77299 4.69257H24.0817V9.96045C24.0817 10.5592 24.3196 11.1335 24.743 11.5569C25.1664 11.9803 25.7406 12.2181 26.3394 12.2181H31.6073V38.5575C31.6073 39.1563 31.3694 39.7305 30.946 40.1539C30.5226 40.5773 29.9484 40.8152 29.3496 40.8152ZM9.78321 22.0013C9.78321 22.6001 10.0211 23.1743 10.4445 23.5977C10.8679 24.0211 11.4421 24.259 12.0409 24.259H12.1688C12.4665 24.2597 12.7613 24.2016 13.0364 24.0879C13.3115 23.9743 13.5614 23.8073 13.7717 23.5967C13.9124 23.4588 14.1015 23.3816 14.2985 23.3816C14.4955 23.3816 14.6846 23.4588 14.8253 23.5967C15.0357 23.8073 15.2856 23.9743 15.5607 24.0879C15.8358 24.2016 16.1306 24.2597 16.4283 24.259H16.5562C17.155 24.259 17.7292 24.0211 18.1526 23.5977C18.576 23.1743 18.8139 22.6001 18.8139 22.0013V14.9198C19.2942 14.1205 19.5537 13.208 19.566 12.2756C19.5782 11.3431 19.3427 10.4241 18.8835 9.61249C18.4243 8.80085 17.7579 8.12565 16.9524 7.65586C16.1469 7.18607 15.2311 6.93853 14.2985 6.93853C13.366 6.93853 12.4502 7.18607 11.6447 7.65586C10.8391 8.12565 10.1727 8.80085 9.71354 9.61249C9.25436 10.4241 9.01887 11.3431 9.03111 12.2756C9.04334 13.208 9.30288 14.1205 9.78321 14.9198V22.0013ZM16.5562 22.7539H16.4283C16.3287 22.7535 16.2302 22.7333 16.1385 22.6945C16.0468 22.6558 15.9636 22.5992 15.8939 22.5281C15.465 22.116 14.8933 21.8859 14.2985 21.8859C13.7037 21.8859 13.132 22.116 12.7031 22.5281C12.6334 22.5992 12.5503 22.6558 12.4586 22.6945C12.3669 22.7333 12.2684 22.7535 12.1688 22.7539H12.0409C11.8413 22.7539 11.6499 22.6746 11.5087 22.5335C11.3676 22.3923 11.2883 22.2009 11.2883 22.0013V16.5378C12.1716 17.1528 13.2222 17.4826 14.2985 17.4826C15.3749 17.4826 16.4254 17.1528 17.3087 16.5378V22.0013C17.3087 22.2009 17.2295 22.3923 17.0883 22.5335C16.9472 22.6746 16.7558 22.7539 16.5562 22.7539ZM14.2985 8.45534C15.0427 8.45534 15.7702 8.67603 16.389 9.08949C17.0078 9.50294 17.4901 10.0906 17.7749 10.7782C18.0597 11.4657 18.1342 12.2223 17.989 12.9522C17.8438 13.6821 17.4854 14.3526 16.9592 14.8788C16.433 15.405 15.7625 15.7634 15.0326 15.9086C14.3027 16.0538 13.5461 15.9793 12.8586 15.6945C12.171 15.4097 11.5834 14.9274 11.1699 14.3086C10.7564 13.6898 10.5358 12.9623 10.5358 12.2181C10.5358 11.2202 10.9322 10.2631 11.6379 9.55743C12.3435 8.85178 13.3006 8.45534 14.2985 8.45534ZM6.77299 27.2692C6.77299 27.0696 6.85227 26.8782 6.99341 26.7371C7.13454 26.5959 7.32595 26.5166 7.52554 26.5166H15.0511C15.2507 26.5166 15.4421 26.5959 15.5832 26.7371C15.7244 26.8782 15.8036 27.0696 15.8036 27.2692C15.8036 27.4688 15.7244 27.6602 15.5832 27.8013C15.4421 27.9425 15.2507 28.0218 15.0511 28.0218H7.52554C7.32595 28.0218 7.13454 27.9425 6.99341 27.8013C6.85227 27.6602 6.77299 27.4688 6.77299 27.2692ZM6.77299 30.2794C6.77299 30.0798 6.85227 29.8884 6.99341 29.7473C7.13454 29.6061 7.32595 29.5269 7.52554 29.5269H24.8343C25.0339 29.5269 25.2253 29.6061 25.3664 29.7473C25.5076 29.8884 25.5868 30.0798 25.5868 30.2794C25.5868 30.479 25.5076 30.6704 25.3664 30.8116C25.2253 30.9527 25.0339 31.032 24.8343 31.032H7.52554C7.32595 31.032 7.13454 30.9527 6.99341 30.8116C6.85227 30.6704 6.77299 30.479 6.77299 30.2794ZM19.5664 33.2896C19.5664 33.4892 19.4871 33.6806 19.346 33.8218C19.2049 33.9629 19.0134 34.0422 18.8139 34.0422H7.52554C7.32595 34.0422 7.13454 33.9629 6.99341 33.8218C6.85227 33.6806 6.77299 33.4892 6.77299 33.2896C6.77299 33.09 6.85227 32.8986 6.99341 32.7575C7.13454 32.6164 7.32595 32.5371 7.52554 32.5371H18.8139C19.0134 32.5371 19.2049 32.6164 19.346 32.7575C19.4871 32.8986 19.5664 33.09 19.5664 33.2896ZM27.092 34.0422H24.0817C23.483 34.0422 22.9087 34.2801 22.4853 34.7034C22.0619 35.1268 21.8241 35.7011 21.8241 36.2999C21.8241 36.8986 22.0619 37.4729 22.4853 37.8963C22.9087 38.3197 23.483 38.5575 24.0817 38.5575H27.092C27.6907 38.5575 28.265 38.3197 28.6884 37.8963C29.1118 37.4729 29.3496 36.8986 29.3496 36.2999C29.3496 35.7011 29.1118 35.1268 28.6884 34.7034C28.265 34.2801 27.6907 34.0422 27.092 34.0422ZM27.092 37.0524H24.0817C23.8821 37.0524 23.6907 36.9731 23.5496 36.832C23.4085 36.6909 23.3292 36.4994 23.3292 36.2999C23.3292 36.1003 23.4085 35.9088 23.5496 35.7677C23.6907 35.6266 23.8821 35.5473 24.0817 35.5473H27.092C27.2915 35.5473 27.483 35.6266 27.6241 35.7677C27.7652 35.9088 27.8445 36.1003 27.8445 36.2999C27.8445 36.4994 27.7652 36.6909 27.6241 36.832C27.483 36.9731 27.2915 37.0524 27.092 37.0524Z" fill="#F1F162"/>
</svg>
