<svg width="15" height="15" viewBox="0 0 15 15" fill="none" xmlns="http://www.w3.org/2000/svg">
<path d="M14.7787 13.7161L12.661 11.6059C13.809 10.1876 14.369 8.38285 14.2256 6.56381C14.0821 4.74478 13.2462 3.05013 11.89 1.82931C10.5339 0.608494 8.76104 -0.0454036 6.93698 0.00245309C5.11292 0.0503098 3.37677 0.796272 2.08652 2.08652C0.796272 3.37677 0.0503098 5.11292 0.00245309 6.93698C-0.0454036 8.76104 0.608494 10.5339 1.82931 11.89C3.05013 13.2462 4.74478 14.0821 6.56381 14.2256C8.38285 14.369 10.1876 13.809 11.6059 12.661L13.7161 14.7787C13.7856 14.8488 13.8684 14.9045 13.9596 14.9424C14.0508 14.9804 14.1486 15 14.2474 15C14.3461 15 14.444 14.9804 14.5351 14.9424C14.6263 14.9045 14.7091 14.8488 14.7787 14.7787C14.8488 14.7091 14.9045 14.6263 14.9424 14.5351C14.9804 14.444 15 14.3461 15 14.2474C15 14.1486 14.9804 14.0508 14.9424 13.9596C14.9045 13.8684 14.8488 13.7856 14.7787 13.7161ZM1.52626 7.13851C1.52626 6.02851 1.85542 4.94344 2.4721 4.02051C3.08878 3.09758 3.96529 2.37825 4.9908 1.95347C6.0163 1.52869 7.14474 1.41755 8.23341 1.6341C9.32208 1.85065 10.3221 2.38517 11.107 3.17005C11.8919 3.95494 12.4264 4.95495 12.6429 6.04362C12.8595 7.13229 12.7483 8.26072 12.3236 9.28623C11.8988 10.3117 11.1794 11.1882 10.2565 11.8049C9.33358 12.4216 8.24851 12.7508 7.13851 12.7508C5.65005 12.7508 4.22255 12.1595 3.17005 11.107C2.11755 10.0545 1.52626 8.62697 1.52626 7.13851Z" fill="#1C2649"/>
</svg>
