<svg width="9" height="9" viewBox="0 0 9 9" fill="none" xmlns="http://www.w3.org/2000/svg">
<path d="M1.4722 0.308341C1.51141 0.336602 1.54808 0.368219 1.5818 0.402822L7.39857 6.21959L7.33073 6.03376C7.26543 5.8511 7.2325 5.65845 7.23339 5.46448V2.20214C7.22363 1.78224 7.51744 1.41624 7.92951 1.33494C8.38486 1.26455 8.81107 1.57661 8.88148 2.03198C8.88716 2.06878 8.89038 2.10593 8.8911 2.14315L8.8911 8.04249C8.89136 8.50326 8.51804 8.87699 8.05727 8.87725C8.05697 8.87725 8.05664 8.87725 8.05634 8.87725L2.157 8.87725C1.69625 8.8766 1.32324 8.50256 1.32387 8.04179C1.32392 8.00553 1.32634 7.9693 1.33109 7.93335C1.41239 7.52128 1.77839 7.22748 2.1983 7.23723L5.46063 7.23133C5.63383 7.23124 5.806 7.2581 5.97093 7.31097L6.22755 7.40831L0.434394 1.61515C0.121839 1.32498 0.0679526 0.850066 0.307558 0.49723C0.577011 0.123469 1.09842 0.038907 1.4722 0.308341Z" fill="#1C2649"/>
</svg>
