<svg width="20" height="16" viewBox="0 0 20 16" fill="none" xmlns="http://www.w3.org/2000/svg">
<path d="M11.25 16H1.25C0.5 16 0 15.4667 0 14.6667C0 13.8667 0.5 13.3333 1.25 13.3333H11.25C12 13.3333 12.5 13.8667 12.5 14.6667C12.5 15.4667 12 16 11.25 16Z" fill="#EFEF51"/>
<path d="M18.75 9.33333H1.25C0.5 9.33333 0 8.8 0 8C0 7.2 0.5 6.66667 1.25 6.66667H18.75C19.5 6.66667 20 7.2 20 8C20 8.8 19.5 9.33333 18.75 9.33333Z" fill="#EFEF51"/>
<path d="M18.75 2.66667H8.75C8 2.66667 7.5 2.13333 7.5 1.33333C7.5 0.533333 8 0 8.75 0H18.75C19.5 0 20 0.533333 20 1.33333C20 2.13333 19.5 2.66667 18.75 2.66667Z" fill="#EFEF51"/>
</svg>
