<svg width="20" height="20" viewBox="0 0 20 20" fill="none" xmlns="http://www.w3.org/2000/svg">
<path d="M11.2011 3.99351H4.79475C4.53449 3.99351 4.28424 4.00349 4.044 4.03345C1.35134 4.26307 0 5.85049 0 8.77574V12.7693C0 16.7628 1.60159 17.5515 4.79475 17.5515H5.19514C5.41536 17.5515 5.70565 17.7012 5.83578 17.871L7.03697 19.4684C7.56749 20.1772 8.42834 20.1772 8.95887 19.4684L10.1601 17.871C10.3102 17.6713 10.5504 17.5515 10.8007 17.5515H11.2011C14.134 17.5515 15.7256 16.2137 15.9558 13.518C15.9858 13.2784 15.9958 13.0288 15.9958 12.7693V8.77574C15.9958 5.59092 14.3942 3.99351 11.2011 3.99351ZM4.50446 11.9805C3.9439 11.9805 3.50347 11.5313 3.50347 10.9822C3.50347 10.433 3.95391 9.98378 4.50446 9.98378C5.055 9.98378 5.50545 10.433 5.50545 10.9822C5.50545 11.5313 5.055 11.9805 4.50446 11.9805ZM7.99792 11.9805C7.43736 11.9805 6.99693 11.5313 6.99693 10.9822C6.99693 10.433 7.44737 9.98378 7.99792 9.98378C8.54846 9.98378 8.99891 10.433 8.99891 10.9822C8.99891 11.5313 8.55847 11.9805 7.99792 11.9805ZM11.5014 11.9805C10.9408 11.9805 10.5004 11.5313 10.5004 10.9822C10.5004 10.433 10.9508 9.98378 11.5014 9.98378C12.0519 9.98378 12.5024 10.433 12.5024 10.9822C12.5024 11.5313 12.0519 11.9805 11.5014 11.9805Z" fill="#1C2649"/>
<path d="M20 4.78223V8.77574C20 10.7725 19.3794 12.1303 18.1382 12.8791C17.8379 13.0588 17.4875 12.8192 17.4875 12.4697L17.4975 8.77574C17.4975 4.78223 15.2053 2.49594 11.2013 2.49594L5.1053 2.50593C4.75496 2.50593 4.51472 2.1565 4.6949 1.85698C5.44564 0.618994 6.80699 0 8.79891 0H15.2053C18.3984 0 20 1.5974 20 4.78223Z" fill="#1C2649"/>
</svg>
