<svg width="19" height="25" viewBox="0 0 19 25" fill="none" xmlns="http://www.w3.org/2000/svg">
<path d="M9.5 0C4.26185 0 0 4.27148 0 9.52148C0 11.5991 0.654769 13.5732 1.89513 15.2295L8.91441 24.7046C8.93195 24.7276 8.95874 24.7364 8.97823 24.7569C9.329 25.1333 9.83518 25.0386 10.0851 24.7046C12.1064 22.0015 15.8114 16.9531 17.2359 15.0488L17.2369 15.0464L17.2457 15.0347C18.3935 13.4185 19 11.5122 19 9.52148C19 4.27148 14.7382 0 9.5 0ZM9.5 14.6582C6.67972 14.6582 4.37487 12.3481 4.37487 9.52148C4.37487 6.69482 6.67972 4.38477 9.5 4.38477C12.3203 4.38477 14.6251 6.69482 14.6251 9.52148C14.6251 12.3481 12.3203 14.6582 9.5 14.6582Z" fill="white"/>
</svg>
