<svg width="24" height="24" viewBox="0 0 24 24" fill="none" xmlns="http://www.w3.org/2000/svg">
<path d="M18.2465 15.8765C17.4624 15.1024 16.4836 15.1024 15.7044 15.8765C15.1101 16.4658 14.5158 17.0551 13.9315 17.6544C13.7717 17.8192 13.6368 17.8542 13.442 17.7443C13.0575 17.5345 12.6479 17.3647 12.2784 17.135C10.5553 16.0513 9.11199 14.6579 7.83345 13.0897C7.19917 12.3106 6.63482 11.4766 6.24027 10.5377C6.16036 10.3479 6.17535 10.2231 6.33017 10.0682C6.92449 9.49392 7.50383 8.90461 8.08816 8.3153C8.90223 7.49625 8.90223 6.53737 8.08316 5.71333C7.61869 5.24388 7.15423 4.78442 6.68976 4.31496C6.21031 3.83552 5.73585 3.35109 5.2514 2.87664C4.4673 2.11253 3.48842 2.11253 2.70931 2.88164C2.11 3.47095 1.53566 4.07524 0.926353 4.65457C0.361999 5.18894 0.0773246 5.84318 0.0173932 6.60729C-0.0774982 7.85084 0.227153 9.02447 0.656662 10.1681C1.53566 12.5354 2.87412 14.6379 4.49727 16.5657C6.68976 19.1726 9.30676 21.2352 12.3683 22.7235C13.7467 23.3927 15.175 23.9071 16.7283 23.992C17.797 24.0519 18.726 23.7822 19.4701 22.9482C19.9795 22.3789 20.5539 21.8595 21.0933 21.3151C21.8924 20.5061 21.8974 19.5272 21.1033 18.7281C20.1543 17.7743 19.2004 16.8254 18.2465 15.8765Z" fill="white"/>
<path d="M17.2926 11.8961L19.1355 11.5815C18.8458 9.88846 18.0468 8.35525 16.8332 7.13667C15.5496 5.85317 13.9265 5.04411 12.1385 4.7944L11.8788 6.64724C13.2622 6.84201 14.5208 7.46629 15.5147 8.46013C16.4536 9.39903 17.0679 10.5876 17.2926 11.8961Z" fill="white"/>
<path d="M20.1744 3.88547C18.0468 1.75795 15.3549 0.414516 12.3833 0L12.1236 1.85284C14.6907 2.21242 17.018 3.37606 18.8559 5.20892C20.5989 6.95189 21.7426 9.15432 22.1571 11.5765L24 11.2619C23.5156 8.45513 22.1921 5.9081 20.1744 3.88547Z" fill="white"/>
</svg>
