<svg width="22" height="16" viewBox="0 0 22 16" fill="none" xmlns="http://www.w3.org/2000/svg">
<path d="M1.88083 0H20.1192C21.0923 0.00132443 21.9043 0.737487 21.9922 1.69858L12.2196 9.91623C11.5192 10.5085 10.4886 10.5089 9.78775 9.91711L0.00757008 1.70631C0.0912812 0.742122 0.904571 0.00132443 1.88083 0ZM1.88083 16C1.46918 16.0004 1.06888 15.8662 0.742046 15.6181L6.19641 10.0866C6.29748 9.98576 6.33622 9.83897 6.29793 9.70211C6.25963 9.56503 6.15032 9.45908 6.01139 9.4242C5.87225 9.38933 5.72509 9.43105 5.62579 9.53369L0.222191 15.0135C0.076142 14.7436 -0.000222151 14.4418 4.85419e-07 14.1352V2.73671L9.27212 10.5211C10.2704 11.3636 11.738 11.3632 12.7357 10.5195L22 2.72921V14.1352C22.0004 14.4429 21.9234 14.7458 21.7763 15.0164L16.3404 9.53281C16.1856 9.37829 15.9343 9.37674 15.7775 9.52927C15.621 9.68202 15.6181 9.93124 15.7713 10.0873L21.2557 15.6199C20.9291 15.8669 20.5299 16.0004 20.1192 16H1.88083Z" fill="white"/>
</svg>
