<svg width="28" height="28" viewBox="0 0 28 28" fill="none" xmlns="http://www.w3.org/2000/svg">
<path d="M4.24989 0.883115C4.3735 0.972205 4.48909 1.07187 4.59538 1.18095L22.9318 19.5174L22.718 18.9316C22.5121 18.3558 22.4083 17.7485 22.4111 17.137L22.4111 6.85302C22.3804 5.52934 23.3066 4.37558 24.6055 4.1193C26.041 3.89741 27.3845 4.88112 27.6065 6.31662C27.6244 6.43262 27.6345 6.54972 27.6368 6.66705L27.6368 25.2638C27.6376 26.7163 26.4608 27.8944 25.0083 27.8952C25.0073 27.8952 25.0063 27.8952 25.0054 27.8952L6.40862 27.8952C4.95616 27.8932 3.78032 26.7141 3.78229 25.2616C3.78247 25.1473 3.79008 25.0331 3.80507 24.9198C4.06136 23.6208 5.21511 22.6946 6.5388 22.7253L16.8228 22.7067C17.3688 22.7065 17.9115 22.7911 18.4314 22.9578L19.2404 23.2647L0.978367 5.00264C-0.00691061 4.08791 -0.176783 2.59082 0.578535 1.47856C1.42794 0.300337 3.07161 0.0337657 4.24989 0.883115Z" fill="#DEDF54"/>
</svg>
