<svg width="16" height="16" viewBox="0 0 16 16" fill="none" xmlns="http://www.w3.org/2000/svg">
<path fill-rule="evenodd" clip-rule="evenodd" d="M1.63605 1.63568C2.15674 1.11499 2.98589 1.0999 3.48799 1.60201L14.3976 12.5117C14.8998 13.0138 14.8847 13.8429 14.364 14.3636C13.8433 14.8843 13.0141 14.8994 12.512 14.3973L1.60238 3.48763C1.10027 2.98552 1.11534 2.15639 1.63605 1.63568Z" fill="#1C2649"/>
<path fill-rule="evenodd" clip-rule="evenodd" d="M1.63605 14.3637C1.11535 13.843 1.10027 13.0139 1.60237 12.5118L12.512 1.60211C13.0141 1.1 13.8433 1.11509 14.364 1.63579C14.8847 2.1565 14.8998 2.98562 14.3976 3.48773L3.48799 14.3974C2.98589 14.8995 2.15676 14.8844 1.63605 14.3637Z" fill="#1C2649"/>
</svg>
