<svg width="22" height="18" viewBox="0 0 22 18" fill="none" xmlns="http://www.w3.org/2000/svg">
<path d="M9.31523 11.0394C8.67041 11.6183 8.27565 12.4251 8.21419 13.2896L8.03948 15.747C7.99635 16.3536 8.50681 16.8241 8.93829 16.3956C10.2978 15.0963 12.3934 14.9592 13.9107 16.0703L16.1574 17.7157C17.0505 18.2134 17.6796 17.9513 17.9205 16.8942L21.1166 1.91818C21.1167 1.91778 21.1169 1.91741 21.1171 1.91712C21.1174 1.91684 21.1176 1.91646 21.1177 1.91606C21.4006 0.596405 20.6401 0.0803974 19.7701 0.404198L0.983184 7.59688C-0.298987 8.09457 -0.279573 8.80934 0.765224 9.13319L3.84099 10.0899C4.93752 10.431 6.12827 10.2768 7.10175 9.66763L16.7248 3.64625C17.2499 3.29857 17.7273 3.49094 17.3346 3.83862L9.31523 11.0394Z" fill="url(#paint0_linear_425_1632)"/>
<defs>
<linearGradient id="paint0_linear_425_1632" x1="1.17873e-06" y1="29.7836" x2="23.1017" y2="-13.2521" gradientUnits="userSpaceOnUse">
<stop stop-color="#1C2649"/>
<stop offset="1" stop-color="#535F8B"/>
</linearGradient>
</defs>
</svg>
