<svg width="26" height="15" viewBox="0 0 26 15" fill="none" xmlns="http://www.w3.org/2000/svg">
<path d="M22.1914 6.03677C22.5473 5.57774 22.8299 5.20943 23.0386 4.93156C24.4207 3.09821 25.0827 1.87388 25.0248 1.25717C25.0154 1.15666 24.967 1.06596 24.9149 0.979492C24.8628 0.901392 24.7279 0.829672 24.5109 0.764753C24.2936 0.699882 24.0157 0.689516 23.677 0.732341L19.9241 0.75875C19.8372 0.750119 19.7503 0.752136 19.6634 0.764753C19.5765 0.777934 19.5202 0.791162 19.4939 0.80378C19.4916 0.804944 19.4894 0.806088 19.4871 0.807212C19.4485 0.826666 19.4115 0.8493 19.3769 0.875265C19.3334 0.901111 19.2857 0.946751 19.2336 1.01195C19.1815 1.0771 19.1377 1.15262 19.1032 1.23959C18.6949 2.28823 18.2302 3.26342 17.7089 4.16482C17.3874 4.70223 17.0919 5.16843 16.823 5.56226C16.5536 5.95698 16.3277 6.24724 16.1453 6.43322C15.9629 6.61953 15.7977 6.76935 15.6501 6.88165C15.5022 6.99474 15.3894 7.04212 15.3115 7.0249C15.1642 6.99253 15.0176 6.93802 14.917 6.82564C14.8715 6.77486 14.8314 6.71776 14.7967 6.65429C14.7228 6.52028 14.673 6.35114 14.6468 6.14733C14.6209 5.9438 14.6054 5.76813 14.6013 5.62057C14.5967 5.47333 14.599 5.26548 14.6079 4.99647C14.6166 4.72775 14.6209 4.54608 14.6209 4.45048C14.6209 4.12148 14.6275 3.76382 14.6405 3.37801C14.6535 2.99249 14.6644 2.68675 14.673 2.46136C14.6817 2.23631 14.6859 1.99774 14.6859 1.74627C14.6859 1.49537 14.6707 1.29785 14.6401 1.15464C14.6096 1.01195 14.5639 0.873295 14.5035 0.738673C14.4425 0.604614 14.3535 0.500388 14.2361 0.426933C14.1188 0.353149 13.9734 0.294891 13.7997 0.251221C13.339 0.146994 12.7526 0.091316 12.0404 0.0821692C10.4245 0.0655174 9.38635 0.169416 8.92597 0.394473C8.74355 0.490069 8.57838 0.619812 8.4308 0.784595C8.27428 0.975505 8.2527 1.07968 8.36578 1.09634C8.80477 1.1621 9.1357 1.30478 9.35898 1.52405C9.44179 1.60538 9.49947 1.7077 9.55157 1.81143C9.61226 1.92452 9.67301 2.12378 9.73399 2.40967C9.79473 2.69561 9.83385 3.01195 9.85139 3.35873C9.89483 3.99141 9.89483 4.53285 9.85139 4.98386C9.80794 5.43482 9.7668 5.78563 9.72769 6.03653C9.68852 6.288 9.62985 6.49153 9.55185 6.6474C9.47357 6.80383 9.42152 6.89915 9.39533 6.93386C9.36914 6.96829 9.34756 6.9901 9.33031 6.99878C9.21724 7.04183 9.10012 7.06365 8.97844 7.06365C8.85672 7.06365 8.70909 7.00276 8.53532 6.88132C8.3615 6.76049 8.1811 6.59341 7.99463 6.38097C7.8076 6.16886 7.59726 5.87175 7.36246 5.49021C7.12794 5.10928 6.88449 4.65828 6.63272 4.13841L6.4244 3.76119C6.29407 3.51892 6.11592 3.16552 5.89006 2.7019C5.6642 2.23828 5.46419 1.7899 5.2907 1.35615C5.22107 1.17444 5.11688 1.03578 4.97795 0.940184L4.91293 0.901158C4.86949 0.866682 4.79986 0.829672 4.70432 0.790881C4.51193 0.712523 4.30005 0.70697 4.09232 0.708474L0.833968 0.73206C0.469125 0.73206 0.22168 0.814756 0.0913519 0.979492L0.0392583 1.05731C0.0129294 1.10093 0 1.1704 0 1.26543C0 1.36103 0.0261879 1.47787 0.0782815 1.61625C0.599641 2.83859 1.16651 4.0173 1.7788 5.15234C2.39142 6.288 2.92345 7.20258 3.37518 7.89586C3.82691 8.5897 4.28729 9.24363 4.7566 9.85909C5.22591 10.4745 5.53636 10.8687 5.68827 11.0418C5.84018 11.2155 5.9596 11.3456 6.04653 11.4319L6.37226 11.7442C6.58058 11.9521 6.88703 12.2012 7.29104 12.4918C7.695 12.7823 8.14217 13.0682 8.63335 13.3495C9.12396 13.6315 9.69539 13.8608 10.3468 14.0388C10.9982 14.2168 11.6324 14.2882 12.2493 14.2532H13.7479C14.052 14.2274 14.2821 14.1324 14.4384 13.9673L14.4905 13.9024C14.525 13.8507 14.5578 13.7703 14.5883 13.6621C14.6185 13.5539 14.6341 13.4344 14.6341 13.3047C14.6251 12.9321 14.6537 12.5957 14.7187 12.2971C14.7837 11.998 14.8576 11.7729 14.9403 11.6208C15.0229 11.4695 15.116 11.3415 15.2205 11.2372C15.3247 11.133 15.3983 11.0707 15.442 11.0489C15.4855 11.0277 15.5204 11.0125 15.5463 11.0033C15.7546 10.934 16 11.0013 16.2826 11.2048C16.5648 11.4089 16.8299 11.6598 17.0776 11.9589C17.325 12.258 17.6225 12.5936 17.9701 12.9665C18.3174 13.3391 18.6215 13.6164 18.8823 13.7984L19.143 13.9549C19.3167 14.0585 19.5423 14.1538 19.8205 14.2408C19.9467 14.28 20.0657 14.3059 20.1775 14.3185C20.4251 14.3463 20.6756 14.3037 20.9247 14.2998L23.8862 14.2534C24.2163 14.2534 24.4727 14.1995 24.6551 14.091C24.8375 13.9833 24.9461 13.8633 24.9809 13.7336C25.0154 13.6035 25.0177 13.4569 24.9875 13.2918C24.957 13.1273 24.9265 13.0124 24.8963 12.9476C24.8659 12.8827 24.8376 12.8281 24.8114 12.7851C24.377 12.0051 23.5474 11.0471 22.3225 9.91181L22.2963 9.88597L22.2833 9.87279L22.2751 9.86474C22.2721 9.86178 22.268 9.86012 22.2638 9.86012C22.2597 9.86012 22.2556 9.85848 22.2526 9.85562C21.6991 9.32933 21.3491 8.97541 21.2019 8.79365C20.9326 8.44748 20.8716 8.09639 21.0195 7.74102C21.1231 7.47154 21.5138 6.90374 22.1914 6.03677Z" fill="url(#paint0_linear_425_1630)"/>
<defs>
<linearGradient id="paint0_linear_425_1630" x1="1.39305e-06" y1="23.8727" x2="14.4642" y2="-15.575" gradientUnits="userSpaceOnUse">
<stop stop-color="#1C2649"/>
<stop offset="1" stop-color="#535F8B"/>
</linearGradient>
</defs>
</svg>
