<svg width="21" height="21" viewBox="0 0 21 21" fill="none" xmlns="http://www.w3.org/2000/svg">
<path d="M10.0138 0H10.0088C4.48883 0 0 4.49008 0 10.0113C0 12.2013 0.705799 14.2311 1.90591 15.8792L0.658245 19.5984L4.50635 18.3683C6.08939 19.417 7.97778 20.0227 10.0138 20.0227C15.5338 20.0227 20.0227 15.5313 20.0227 10.0113C20.0227 4.49133 15.5338 0 10.0138 0ZM15.8392 14.1372C15.5976 14.8193 14.6391 15.3849 13.8744 15.5501C13.3514 15.6615 12.6681 15.7503 10.368 14.7967C7.4259 13.5779 5.53126 10.5882 5.38359 10.3943C5.24218 10.2003 4.19475 8.81122 4.19475 7.37459C4.19475 5.93797 4.92432 5.23843 5.2184 4.93809C5.45993 4.69156 5.85913 4.57893 6.24206 4.57893C6.36595 4.57893 6.47733 4.58519 6.57744 4.59019C6.87152 4.60271 7.01919 4.62023 7.21316 5.0845C7.45468 5.66641 8.04285 7.10304 8.11293 7.2507C8.18426 7.39837 8.25559 7.5986 8.15548 7.79257C8.06162 7.99279 7.97903 8.08164 7.83136 8.25184C7.68369 8.42203 7.54353 8.55218 7.39587 8.73488C7.26071 8.89381 7.10804 9.064 7.27823 9.35809C7.44843 9.64591 8.03659 10.6057 8.90257 11.3766C10.0201 12.3715 10.9261 12.6894 11.2502 12.8245C11.4918 12.9246 11.7796 12.9008 11.956 12.7131C12.18 12.4716 12.4566 12.0712 12.7382 11.677C12.9384 11.3941 13.1912 11.3591 13.4565 11.4592C13.7268 11.5531 15.1571 12.2601 15.4512 12.4065C15.7453 12.5542 15.9393 12.6243 16.0106 12.7482C16.0807 12.8721 16.0807 13.454 15.8392 14.1372Z" fill="url(#paint0_linear_425_1631)"/>
<defs>
<linearGradient id="paint0_linear_425_1631" x1="1.11444e-06" y1="33.4378" x2="28.6324" y2="-11.0125" gradientUnits="userSpaceOnUse">
<stop stop-color="#1C2649"/>
<stop offset="1" stop-color="#535F8B"/>
</linearGradient>
</defs>
</svg>
