<svg width="63" height="70" viewBox="0 0 63 70" fill="none" xmlns="http://www.w3.org/2000/svg">
<path d="M31.5 0C16.8249 -4.16539e-08 4.90631 11.8618 4.90631 26.4568C4.90631 41.0518 16.8249 52.9054 31.5 52.9054C46.1751 52.9054 58.0937 41.0518 58.0937 26.4568C58.0937 11.8618 46.1751 0 31.5 0ZM31.5 2.20473C44.9773 2.20473 55.8769 13.053 55.8769 26.4568C55.8769 39.8605 44.9773 50.7006 31.5 50.7006C18.0227 50.7006 7.12314 39.8605 7.12313 26.4568C7.12313 13.053 18.0227 2.20473 31.5 2.20473Z" fill="#273257"/>
<path d="M31.5 6.61419C20.497 6.61419 11.5568 15.5138 11.5568 26.4568C11.5568 37.3997 20.497 46.2912 31.5 46.2912C42.503 46.2912 51.4432 37.3997 51.4432 26.4568C51.4432 15.5138 42.503 6.61419 31.5 6.61419ZM31.5 8.81892C41.3052 8.81892 49.2264 16.705 49.2264 26.4568C49.2264 36.2085 41.3052 44.0865 31.5 44.0865C21.6948 44.0865 13.7654 36.2085 13.7654 26.4568C13.7654 16.705 21.6948 8.81892 31.5 8.81892Z" fill="#273257"/>
<path d="M10.5506 41.6051L0.145461 59.5277C0.0402637 59.7112 -0.00968785 59.921 0.00155343 60.1319C0.0127947 60.3429 0.0847553 60.5462 0.208868 60.7176C0.33298 60.889 0.504015 61.0214 0.70161 61.0989C0.899204 61.1764 1.11503 61.1958 1.3234 61.1548L11.9249 59.0721L15.4096 69.2497C15.4778 69.451 15.6031 69.6285 15.7703 69.7606C15.9376 69.8928 16.1397 69.9741 16.3523 69.9948C16.5649 70.0154 16.779 69.9745 16.9688 69.8769C17.1585 69.7794 17.3159 69.6293 17.422 69.4449L27.6144 51.8884L25.6921 50.782L16.7185 66.2314L13.7082 57.445C13.6213 57.1935 13.446 56.9816 13.2145 56.8486C12.983 56.7155 12.7109 56.6702 12.4484 56.7209L3.28664 58.5189L12.4648 42.7116L10.5506 41.6051Z" fill="#273257"/>
<path d="M52.4494 41.6051L50.5352 42.7116L59.7134 58.5189L50.5516 56.7209C50.2891 56.6702 50.017 56.7155 49.7855 56.8486C49.554 56.9816 49.3787 57.1935 49.2918 57.445L46.2815 66.2314L37.3079 50.782L35.3856 51.8884L45.578 69.4449C45.6841 69.6294 45.8415 69.7794 46.0312 69.8769C46.221 69.9745 46.4351 70.0154 46.6477 69.9948C46.8603 69.9742 47.0624 69.8929 47.2297 69.7607C47.3969 69.6285 47.5222 69.451 47.5904 69.2497L51.0751 59.0721L61.6766 61.1548C61.885 61.1958 62.1008 61.1764 62.2984 61.0989C62.496 61.0214 62.667 60.8891 62.7911 60.7176C62.9152 60.5462 62.9872 60.3429 62.9984 60.1319C63.0097 59.921 62.9597 59.7113 62.8545 59.5277L52.4494 41.6051Z" fill="#273257"/>
<path d="M31.5 14.1802C30.7138 14.1802 30.5796 14.5225 30.3711 14.7335C29.1601 16.1256 27.5312 18.9919 26.9273 19.9402C24.8898 20.4471 22.7259 20.8659 20.8903 21.5836C20.6242 21.7155 20.258 21.7429 20.0151 22.4866C19.7721 23.2303 20.0495 23.4608 20.1868 23.7232C21.0796 25.2103 23.6166 28.0046 24.1051 28.5882C23.9813 30.8074 23.6737 32.807 23.8107 34.8038C23.8546 35.0964 23.7635 35.4506 24.3996 35.9102C25.0357 36.3699 25.3497 36.1787 25.643 36.1299C27.3878 35.7098 30.5206 34.3209 31.5 33.9333C33.4656 34.6765 35.42 35.6336 37.357 36.1299C37.6503 36.1787 37.9643 36.3699 38.6004 35.9102C39.2365 35.4506 39.1454 35.0964 39.1893 34.8038C39.3378 33.0842 38.9456 29.3433 38.8948 28.5882C40.0273 27.271 41.2396 25.8593 42.3059 24.5042C42.9151 23.8466 43.163 23.1478 42.9849 22.4866C42.8067 21.8251 42.3758 21.7156 42.1097 21.5836C40.1529 20.8124 38.079 20.4439 36.0727 19.9402C34.9189 18.1886 33.9058 16.2675 32.6289 14.7335C32.4204 14.5225 32.2862 14.1802 31.5 14.1802ZM31.5 16.8568C32.4733 18.2698 33.2895 19.7064 34.2158 21.1117C34.3653 21.3212 34.4175 21.4657 34.7721 21.7219C35.1266 21.9781 35.2699 21.9788 35.5165 22.0554C37.1735 22.4954 38.7904 22.8532 40.4246 23.3083C39.3862 24.6746 38.2549 25.8837 37.2016 27.1971C37.0474 27.4032 36.928 27.4903 36.7926 27.9049C36.6571 28.3194 36.6997 28.4616 36.7026 28.7184C36.7848 30.4256 36.9442 32.0655 37.0216 33.7543C35.1815 33.121 33.2164 32.0944 31.5 31.7286C31.0617 31.7286 30.9431 31.8173 30.6983 31.8994C29.0914 32.503 27.5689 33.1604 25.9784 33.7543C26.0326 32.0393 26.2191 30.4003 26.2974 28.7184C26.3003 28.4616 26.3429 28.3194 26.2074 27.9049C26.072 27.4903 25.9526 27.4032 25.7984 27.1971C24.7472 25.8802 23.5019 24.4815 22.5755 23.3083C24.2265 22.8227 25.8528 22.4921 27.4835 22.0554C27.7301 21.9788 27.8734 21.9781 28.2279 21.7219C28.5825 21.4657 28.6347 21.3212 28.7842 21.1117C29.3686 20.2551 29.9387 19.2955 30.4366 18.4839C30.818 17.8669 31.1894 17.2921 31.5 16.8568Z" fill="#273257"/>
</svg>
