<svg width="60" height="64" viewBox="0 0 60 64" fill="none" xmlns="http://www.w3.org/2000/svg">
<path d="M34.1379 45H36.2069V64H34.1379V45Z" fill="#273257"/>
<path d="M23.7931 45H25.8621V64H23.7931V45Z" fill="#273257"/>
<path d="M36.2069 49H35.1724V47H36.2069C37.03 47 37.8194 46.6839 38.4014 46.1213C38.9834 45.5587 39.3103 44.7957 39.3103 44V33C39.3087 31.6744 38.7632 30.4036 37.7936 29.4662C36.8239 28.5289 35.5092 28.0016 34.1379 28H25.8621C24.4908 28.0016 23.1761 28.5289 22.2064 29.4662C21.2368 30.4036 20.6913 31.6744 20.6897 33V44C20.6897 44.7957 21.0166 45.5587 21.5986 46.1213C22.1806 46.6839 22.97 47 23.7931 47H24.8276V49H23.7931C22.4218 48.9984 21.1071 48.4711 20.1375 47.5338C19.1678 46.5964 18.6223 45.3256 18.6207 44V33C18.6229 31.1441 19.3865 29.3649 20.7441 28.0526C22.1016 26.7403 23.9422 26.0021 25.8621 26H34.1379C36.0578 26.0021 37.8984 26.7403 39.2559 28.0526C40.6135 29.3649 41.3771 31.1441 41.3793 33V44C41.3777 45.3256 40.8322 46.5964 39.8625 47.5338C38.8929 48.4711 37.5782 48.9984 36.2069 49Z" fill="#273257"/>
<path d="M30 28C28.5678 28 27.1677 27.5895 25.9769 26.8203C24.7861 26.0511 23.8579 24.9579 23.3098 23.6788C22.7618 22.3997 22.6183 20.9922 22.8978 19.6344C23.1772 18.2765 23.8668 17.0292 24.8796 16.0503C25.8923 15.0713 27.1826 14.4046 28.5873 14.1345C29.992 13.8644 31.448 14.003 32.7712 14.5328C34.0943 15.0627 35.2253 15.9599 36.021 17.111C36.8167 18.2622 37.2414 19.6155 37.2414 21C37.2392 22.8559 36.4756 24.6351 35.118 25.9474C33.7605 27.2597 31.9199 27.9979 30 28ZM30 16C28.977 16 27.977 16.2932 27.1264 16.8427C26.2758 17.3921 25.6128 18.173 25.2213 19.0866C24.8298 20.0002 24.7274 21.0056 24.927 21.9755C25.1266 22.9454 25.6192 23.8363 26.3426 24.5355C27.0659 25.2348 27.9876 25.711 28.9909 25.9039C29.9943 26.0969 31.0343 25.9978 31.9794 25.6194C32.9245 25.241 33.7324 24.6001 34.3007 23.7779C34.8691 22.9556 35.1724 21.9889 35.1724 21C35.1708 19.6744 34.6253 18.4036 33.6556 17.4662C32.686 16.5289 31.3713 16.0016 30 16Z" fill="#273257"/>
<path d="M28.9655 51H31.0345V64H28.9655V51Z" fill="#273257"/>
<path d="M52.7586 42H54.8276V61H52.7586V42Z" fill="#273257"/>
<path d="M42.4138 42H44.4828V61H42.4138V42Z" fill="#273257"/>
<path d="M54.8276 46H53.7931V44H54.8276C55.6507 44 56.44 43.6839 57.0221 43.1213C57.6041 42.5587 57.931 41.7957 57.931 41V30C57.9294 28.6744 57.3839 27.4036 56.4143 26.4662C55.4446 25.5289 54.1299 25.0016 52.7586 25H44.4828C43.755 25.0004 43.0355 25.149 42.3712 25.4363C41.7069 25.7235 41.1126 26.1429 40.6272 26.667L39.0859 25.333C39.7655 24.5995 40.5973 24.0127 41.5272 23.6107C42.4571 23.2088 43.4641 23.0007 44.4828 23H52.7586C54.6785 23.0021 56.5191 23.7403 57.8766 25.0526C59.2342 26.3649 59.9978 28.1441 60 30V41C59.9984 42.3256 59.4529 43.5964 58.4832 44.5338C57.5136 45.4711 56.1989 45.9984 54.8276 46Z" fill="#273257"/>
<path d="M48.6207 25C47.1885 25 45.7884 24.5895 44.5976 23.8203C43.4068 23.0511 42.4786 21.9579 41.9305 20.6788C41.3824 19.3997 41.239 17.9922 41.5184 16.6344C41.7979 15.2765 42.4875 14.0292 43.5003 13.0503C44.513 12.0713 45.8033 11.4046 47.208 11.1345C48.6127 10.8644 50.0687 11.003 51.3918 11.5328C52.715 12.0627 53.846 12.9599 54.6417 14.111C55.4374 15.2622 55.8621 16.6155 55.8621 18C55.8599 19.8559 55.0962 21.6351 53.7387 22.9474C52.3811 24.2597 50.5406 24.9979 48.6207 25ZM48.6207 13C47.5977 13 46.5976 13.2932 45.747 13.8427C44.8965 14.3921 44.2335 15.173 43.842 16.0866C43.4505 17.0002 43.3481 18.0056 43.5477 18.9755C43.7472 19.9454 44.2399 20.8363 44.9632 21.5355C45.6866 22.2348 46.6082 22.711 47.6116 22.9039C48.6149 23.0969 49.6549 22.9978 50.6001 22.6194C51.5452 22.241 52.353 21.6001 52.9214 20.7779C53.4897 19.9556 53.7931 18.9889 53.7931 18C53.7915 16.6744 53.246 15.4036 52.2763 14.4662C51.3067 13.5289 49.992 13.0016 48.6207 13Z" fill="#273257"/>
<path d="M47.5862 48H49.6552V61H47.5862V48Z" fill="#273257"/>
<path d="M15.5172 42H17.5862V61H15.5172V42Z" fill="#273257"/>
<path d="M5.17241 42H7.24138V61H5.17241V42Z" fill="#273257"/>
<path d="M6.2069 46H5.17241C3.80111 45.9984 2.48644 45.4711 1.51678 44.5338C0.547119 43.5964 0.00164261 42.3256 0 41V30C0.00219037 28.1441 0.765823 26.3649 2.12337 25.0526C3.48092 23.7403 5.32152 23.0021 7.24138 23H15.5172C16.5358 23.0008 17.5429 23.2089 18.4727 23.6109C19.4026 24.0129 20.2344 24.5996 20.9141 25.333L19.3728 26.667C18.8874 26.1429 18.2931 25.7235 17.6288 25.4363C16.9645 25.149 16.245 25.0004 15.5172 25H7.24138C5.87007 25.0016 4.5554 25.5289 3.58574 26.4662C2.61608 27.4036 2.07061 28.6744 2.06897 30V41C2.06897 41.7957 2.39594 42.5587 2.97794 43.1213C3.55995 43.6839 4.34933 44 5.17241 44H6.2069V46Z" fill="#273257"/>
<path d="M11.3793 25C9.9471 25 8.54705 24.5895 7.35622 23.8203C6.16538 23.0511 5.23723 21.9579 4.68915 20.6788C4.14107 19.3997 3.99766 17.9922 4.27707 16.6344C4.55648 15.2765 5.24616 14.0292 6.25888 13.0503C7.27161 12.0713 8.5619 11.4046 9.96659 11.1345C11.3713 10.8644 12.8273 11.003 14.1505 11.5328C15.4737 12.0627 16.6046 12.9599 17.4003 14.111C18.196 15.2622 18.6207 16.6155 18.6207 18C18.6185 19.8559 17.8549 21.6351 16.4973 22.9474C15.1398 24.2597 13.2992 24.9979 11.3793 25ZM11.3793 13C10.3563 13 9.35627 13.2932 8.50567 13.8427C7.65507 14.3921 6.99211 15.173 6.60062 16.0866C6.20913 17.0002 6.1067 18.0056 6.30628 18.9755C6.50586 19.9454 6.99849 20.8363 7.72186 21.5355C8.44524 22.2348 9.36687 22.711 10.3702 22.9039C11.3736 23.0969 12.4136 22.9978 13.3587 22.6194C14.3038 22.241 15.1117 21.6001 15.68 20.7779C16.2484 19.9556 16.5517 18.9889 16.5517 18C16.5501 16.6744 16.0046 15.4036 15.0349 14.4662C14.0653 13.5289 12.7506 13.0016 11.3793 13Z" fill="#273257"/>
<path d="M21.7241 14C20.2919 14 18.8919 13.5895 17.701 12.8203C16.5102 12.0511 15.5821 10.9579 15.034 9.67879C14.4859 8.3997 14.3425 6.99224 14.6219 5.63437C14.9013 4.2765 15.591 3.02922 16.6037 2.05026C17.6164 1.07129 18.9067 0.404603 20.3114 0.134506C21.7161 -0.13559 23.1721 0.00303304 24.4953 0.532846C25.8185 1.06266 26.9494 1.95987 27.7451 3.11101C28.5408 4.26216 28.9655 5.61553 28.9655 7C28.9633 8.85587 28.1997 10.6351 26.8421 11.9474C25.4846 13.2597 23.644 13.9979 21.7241 14ZM21.7241 2C20.7011 2 19.7011 2.29325 18.8505 2.84265C17.9999 3.39206 17.3369 4.17296 16.9454 5.08659C16.554 6.00022 16.4515 7.00555 16.6511 7.97545C16.8507 8.94536 17.3433 9.83627 18.0667 10.5355C18.7901 11.2348 19.7117 11.711 20.715 11.9039C21.7184 12.0969 22.7584 11.9978 23.7035 11.6194C24.6487 11.241 25.4565 10.6001 26.0248 9.77785C26.5932 8.95561 26.8966 7.98891 26.8966 7C26.8949 5.67441 26.3494 4.40356 25.3798 3.46622C24.4101 2.52889 23.0954 2.00159 21.7241 2Z" fill="#273257"/>
<path d="M38.2759 14C36.8437 14 35.4436 13.5895 34.2528 12.8203C33.0619 12.0511 32.1338 10.9579 31.5857 9.67879C31.0376 8.3997 30.8942 6.99224 31.1736 5.63437C31.453 4.2765 32.1427 3.02922 33.1554 2.05026C34.1682 1.07129 35.4585 0.404603 36.8631 0.134506C38.2678 -0.13559 39.7238 0.00303304 41.047 0.532846C42.3702 1.06266 43.5012 1.95987 44.2968 3.11101C45.0925 4.26216 45.5172 5.61553 45.5172 7C45.515 8.85587 44.7514 10.6351 43.3939 11.9474C42.0363 13.2597 40.1957 13.9979 38.2759 14ZM38.2759 2C37.2529 2 36.2528 2.29325 35.4022 2.84265C34.5516 3.39206 33.8887 4.17296 33.4972 5.08659C33.1057 6.00022 33.0033 7.00555 33.2028 7.97545C33.4024 8.94536 33.895 9.83627 34.6184 10.5355C35.3418 11.2348 36.2634 11.711 37.2668 11.9039C38.2701 12.0969 39.3101 11.9978 40.2553 11.6194C41.2004 11.241 42.0082 10.6001 42.5766 9.77785C43.1449 8.95561 43.4483 7.98891 43.4483 7C43.4466 5.67441 42.9012 4.40356 41.9315 3.46622C40.9618 2.52889 39.6472 2.00159 38.2759 2Z" fill="#273257"/>
<path d="M10.3448 48H12.4138V61H10.3448V48Z" fill="#273257"/>
</svg>
