<svg width="76" height="56" viewBox="0 0 76 56" fill="none" xmlns="http://www.w3.org/2000/svg">
<path d="M66.1979 1H33.6509C28.7954 1 24.8488 4.21734 24.8488 8.16823V11.244H9.08807C4.6221 11.244 1 14.204 1 17.846V38.2053C1 41.8473 4.6221 44.8073 9.08807 44.8073H12.2298L22.8884 54.6523C23.1262 54.8771 23.4427 55.0017 23.7712 54.9998C23.9498 55.003 24.127 54.9679 24.2905 54.8968C24.5217 54.7949 24.7181 54.6289 24.8563 54.4189C24.9945 54.2088 25.0686 53.9636 25.0695 53.7129V44.8073H38.4544C42.9203 44.8073 46.5425 41.8473 46.5425 38.2053V37.9093H48.6197V47.8959C48.6199 48.1485 48.6951 48.3955 48.8359 48.606C48.9767 48.8166 49.1769 48.9814 49.4116 49.0799C49.5702 49.1521 49.7434 49.1873 49.9179 49.1828C50.2477 49.1836 50.5664 49.0646 50.8137 48.8482L62.6667 37.9093H66.1979C71.0533 37.9093 75 34.692 75 30.7282V8.16823C75 4.21734 71.0533 1 66.1979 1ZM43.946 38.2053C43.946 40.3931 41.4274 42.2334 38.4544 42.2334H23.7712C23.4269 42.2334 23.0967 42.369 22.8532 42.6103C22.6098 42.8517 22.473 43.179 22.473 43.5203V50.7529L13.6189 42.5809C13.3795 42.3587 13.0641 42.2345 12.7361 42.2334H9.08807C6.06316 42.2334 3.59649 40.4317 3.59649 38.2053V17.846C3.59649 15.6325 6.06316 13.8179 9.08807 13.8179H24.8488V30.7282C24.8488 34.692 28.7954 37.9093 33.6509 37.9093H43.946V38.2053ZM72.4035 30.7282C72.4035 33.2635 69.6123 35.3354 66.1979 35.3354H62.1474C61.8215 35.3348 61.5069 35.454 61.2646 35.67L51.2161 44.9488V36.6224C51.2179 36.4529 51.1855 36.2848 51.1209 36.1278C51.0562 35.9709 50.9607 35.8284 50.8398 35.7085C50.7189 35.5887 50.5751 35.4939 50.4168 35.4299C50.2585 35.3658 50.0889 35.3337 49.9179 35.3354H33.6509C30.2365 35.3354 27.4453 33.2635 27.4453 30.7282V8.16823C27.4453 5.63297 30.2365 3.57387 33.6509 3.57387H66.1979C69.6123 3.57387 72.4035 5.63297 72.4035 8.16823V30.7282Z" fill="#273257"/>
<path d="M36.8446 14.4099C35.8835 14.4111 34.9444 14.6947 34.1459 15.2248C33.3473 15.7549 32.7252 16.5076 32.358 17.388C31.9908 18.2684 31.8951 19.237 32.0829 20.1713C32.2707 21.1056 32.7336 21.9637 33.4132 22.6374C34.0927 23.311 34.9584 23.7699 35.901 23.9561C36.8435 24.1423 37.8205 24.0473 38.7086 23.6834C39.5968 23.3194 40.3562 22.7026 40.8909 21.9111C41.4256 21.1195 41.7117 20.1885 41.713 19.2359C41.7126 17.956 41.1996 16.7287 40.2867 15.8237C39.3737 14.9188 38.1356 14.4102 36.8446 14.4099ZM36.8446 21.4751C36.3965 21.4739 35.9589 21.3409 35.5871 21.0931C35.2152 20.8453 34.9259 20.4937 34.7556 20.0829C34.5853 19.6721 34.5418 19.2204 34.6304 18.785C34.7191 18.3496 34.936 17.9501 35.2537 17.6369C35.5715 17.3238 35.9758 17.111 36.4155 17.0256C36.8552 16.9402 37.3105 16.986 37.724 17.1572C38.1375 17.3283 38.4904 17.6171 38.7383 17.9871C38.9862 18.3572 39.1178 18.7917 39.1165 19.2359C39.1131 19.8309 38.8722 20.4005 38.4465 20.8201C38.0208 21.2396 37.4449 21.4751 36.8446 21.4751Z" fill="#273257"/>
<path d="M49.9179 14.4099C48.9569 14.4111 48.0177 14.6947 47.2192 15.2248C46.4207 15.7549 45.7985 16.5076 45.4313 17.388C45.0641 18.2684 44.9684 19.237 45.1562 20.1713C45.344 21.1056 45.8069 21.9637 46.4865 22.6374C47.166 23.311 48.0318 23.7699 48.9743 23.9561C49.9168 24.1423 50.8938 24.0473 51.782 23.6834C52.6701 23.3194 53.4295 22.7026 53.9642 21.9111C54.499 21.1195 54.785 20.1885 54.7863 19.2359C54.7865 18.6021 54.6607 17.9744 54.4161 17.3888C54.1715 16.8032 53.8129 16.2712 53.3608 15.823C52.9087 15.3748 52.3719 15.0193 51.7812 14.7769C51.1904 14.5344 50.5573 14.4097 49.9179 14.4099ZM49.9179 21.4751C49.4698 21.4739 49.0322 21.3409 48.6604 21.0931C48.2886 20.8453 47.9992 20.4937 47.8289 20.0829C47.6587 19.6721 47.6151 19.2204 47.7038 18.785C47.7924 18.3496 48.0094 17.9501 48.3271 17.6369C48.6448 17.3238 49.0491 17.111 49.4888 17.0256C49.9285 16.9402 50.3839 16.986 50.7973 17.1572C51.2108 17.3283 51.5638 17.6171 51.8116 17.9871C52.0595 18.3572 52.1911 18.7917 52.1898 19.2359C52.1897 19.531 52.1307 19.8231 52.0163 20.0956C51.9019 20.368 51.7343 20.6154 51.5232 20.8235C51.3121 21.0315 51.0616 21.1962 50.7861 21.308C50.5107 21.4199 50.2156 21.4767 49.9179 21.4751Z" fill="#273257"/>
<path d="M63.0042 14.4099C62.0432 14.4111 61.1041 14.6947 60.3055 15.2248C59.507 15.7549 58.8848 16.5076 58.5176 17.388C58.1504 18.2684 58.0547 19.237 58.2425 20.1713C58.4303 21.1056 58.8932 21.9637 59.5728 22.6374C60.2524 23.311 61.1181 23.7699 62.0606 23.9561C63.0031 24.1423 63.9802 24.0473 64.8683 23.6834C65.7564 23.3194 66.5158 22.7026 67.0505 21.9111C67.5853 21.1195 67.8713 20.1885 67.8726 19.2359C67.8723 17.956 67.3593 16.7287 66.4463 15.8237C65.5334 14.9188 64.2953 14.4102 63.0042 14.4099ZM63.0042 21.4751C62.5562 21.4739 62.1185 21.3409 61.7467 21.0931C61.3749 20.8453 61.0855 20.4937 60.9152 20.0829C60.745 19.6721 60.7014 19.2204 60.7901 18.785C60.8788 18.3496 61.0957 17.9501 61.4134 17.6369C61.7311 17.3238 62.1354 17.111 62.5751 17.0256C63.0148 16.9402 63.4702 16.986 63.8837 17.1572C64.2971 17.3283 64.6501 17.6171 64.8979 17.9871C65.1458 18.3572 65.2774 18.7917 65.2761 19.2359C65.2756 19.5309 65.2164 19.8229 65.1019 20.0952C64.9874 20.3675 64.8198 20.6147 64.6088 20.8227C64.3977 21.0307 64.1474 21.1954 63.8721 21.3073C63.5967 21.4193 63.3018 21.4763 63.0042 21.4751Z" fill="#273257"/>
<path d="M66.1979 1H33.6509C28.7954 1 24.8488 4.21734 24.8488 8.16823V11.244H9.08807C4.6221 11.244 1 14.204 1 17.846V38.2053C1 41.8473 4.6221 44.8073 9.08807 44.8073H12.2298L22.8884 54.6523C23.1262 54.8771 23.4427 55.0017 23.7712 54.9998C23.9498 55.003 24.127 54.9679 24.2905 54.8968C24.5217 54.7949 24.7181 54.6289 24.8563 54.4189C24.9945 54.2088 25.0686 53.9636 25.0695 53.7129V44.8073H38.4544C42.9203 44.8073 46.5425 41.8473 46.5425 38.2053V37.9093H48.6197V47.8959C48.6199 48.1485 48.6951 48.3955 48.8359 48.606C48.9767 48.8166 49.1769 48.9814 49.4116 49.0799C49.5702 49.1521 49.7434 49.1873 49.9179 49.1828C50.2477 49.1836 50.5664 49.0646 50.8137 48.8482L62.6667 37.9093H66.1979C71.0533 37.9093 75 34.692 75 30.7282V8.16823C75 4.21734 71.0533 1 66.1979 1ZM43.946 38.2053C43.946 40.3931 41.4274 42.2334 38.4544 42.2334H23.7712C23.4269 42.2334 23.0967 42.369 22.8532 42.6103C22.6098 42.8517 22.473 43.179 22.473 43.5203V50.7529L13.6189 42.5809C13.3795 42.3587 13.0641 42.2345 12.7361 42.2334H9.08807C6.06316 42.2334 3.59649 40.4317 3.59649 38.2053V17.846C3.59649 15.6325 6.06316 13.8179 9.08807 13.8179H24.8488V30.7282C24.8488 34.692 28.7954 37.9093 33.6509 37.9093H43.946V38.2053ZM72.4035 30.7282C72.4035 33.2635 69.6123 35.3354 66.1979 35.3354H62.1474C61.8215 35.3348 61.5069 35.454 61.2646 35.67L51.2161 44.9488V36.6224C51.2179 36.4529 51.1855 36.2848 51.1209 36.1278C51.0562 35.9709 50.9607 35.8284 50.8398 35.7085C50.7189 35.5887 50.5751 35.4939 50.4168 35.4299C50.2585 35.3658 50.0889 35.3337 49.9179 35.3354H33.6509C30.2365 35.3354 27.4453 33.2635 27.4453 30.7282V8.16823C27.4453 5.63297 30.2365 3.57387 33.6509 3.57387H66.1979C69.6123 3.57387 72.4035 5.63297 72.4035 8.16823V30.7282Z" stroke="white" stroke-width="0.7"/>
<path d="M36.8446 14.4099C35.8835 14.4111 34.9444 14.6947 34.1459 15.2248C33.3473 15.7549 32.7252 16.5076 32.358 17.388C31.9908 18.2684 31.8951 19.237 32.0829 20.1713C32.2707 21.1056 32.7336 21.9637 33.4132 22.6374C34.0927 23.311 34.9584 23.7699 35.901 23.9561C36.8435 24.1423 37.8205 24.0473 38.7086 23.6834C39.5968 23.3194 40.3562 22.7026 40.8909 21.9111C41.4256 21.1195 41.7117 20.1885 41.713 19.2359C41.7126 17.956 41.1996 16.7287 40.2867 15.8237C39.3737 14.9188 38.1356 14.4102 36.8446 14.4099ZM36.8446 21.4751C36.3965 21.4739 35.9589 21.3409 35.5871 21.0931C35.2152 20.8453 34.9259 20.4937 34.7556 20.0829C34.5853 19.6721 34.5418 19.2204 34.6304 18.785C34.7191 18.3496 34.936 17.9501 35.2537 17.6369C35.5715 17.3238 35.9758 17.111 36.4155 17.0256C36.8552 16.9402 37.3105 16.986 37.724 17.1572C38.1375 17.3283 38.4904 17.6171 38.7383 17.9871C38.9862 18.3572 39.1178 18.7917 39.1165 19.2359C39.1131 19.8309 38.8722 20.4005 38.4465 20.8201C38.0208 21.2396 37.4449 21.4751 36.8446 21.4751Z" stroke="white" stroke-width="0.7"/>
<path d="M49.9179 14.4099C48.9569 14.4111 48.0177 14.6947 47.2192 15.2248C46.4207 15.7549 45.7985 16.5076 45.4313 17.388C45.0641 18.2684 44.9684 19.237 45.1562 20.1713C45.344 21.1056 45.8069 21.9637 46.4865 22.6374C47.166 23.311 48.0318 23.7699 48.9743 23.9561C49.9168 24.1423 50.8938 24.0473 51.782 23.6834C52.6701 23.3194 53.4295 22.7026 53.9642 21.9111C54.499 21.1195 54.785 20.1885 54.7863 19.2359C54.7865 18.6021 54.6607 17.9744 54.4161 17.3888C54.1715 16.8032 53.8129 16.2712 53.3608 15.823C52.9087 15.3748 52.3719 15.0193 51.7812 14.7769C51.1904 14.5344 50.5573 14.4097 49.9179 14.4099ZM49.9179 21.4751C49.4698 21.4739 49.0322 21.3409 48.6604 21.0931C48.2886 20.8453 47.9992 20.4937 47.8289 20.0829C47.6587 19.6721 47.6151 19.2204 47.7038 18.785C47.7924 18.3496 48.0094 17.9501 48.3271 17.6369C48.6448 17.3238 49.0491 17.111 49.4888 17.0256C49.9285 16.9402 50.3839 16.986 50.7973 17.1572C51.2108 17.3283 51.5638 17.6171 51.8116 17.9871C52.0595 18.3572 52.1911 18.7917 52.1898 19.2359C52.1897 19.531 52.1307 19.8231 52.0163 20.0956C51.9019 20.368 51.7343 20.6154 51.5232 20.8235C51.3121 21.0315 51.0616 21.1962 50.7861 21.308C50.5107 21.4199 50.2156 21.4767 49.9179 21.4751Z" stroke="white" stroke-width="0.7"/>
<path d="M63.0042 14.4099C62.0432 14.4111 61.1041 14.6947 60.3055 15.2248C59.507 15.7549 58.8848 16.5076 58.5176 17.388C58.1504 18.2684 58.0547 19.237 58.2425 20.1713C58.4303 21.1056 58.8932 21.9637 59.5728 22.6374C60.2524 23.311 61.1181 23.7699 62.0606 23.9561C63.0031 24.1423 63.9802 24.0473 64.8683 23.6834C65.7564 23.3194 66.5158 22.7026 67.0505 21.9111C67.5853 21.1195 67.8713 20.1885 67.8726 19.2359C67.8723 17.956 67.3593 16.7287 66.4463 15.8237C65.5334 14.9188 64.2953 14.4102 63.0042 14.4099ZM63.0042 21.4751C62.5562 21.4739 62.1185 21.3409 61.7467 21.0931C61.3749 20.8453 61.0855 20.4937 60.9152 20.0829C60.745 19.6721 60.7014 19.2204 60.7901 18.785C60.8788 18.3496 61.0957 17.9501 61.4134 17.6369C61.7311 17.3238 62.1354 17.111 62.5751 17.0256C63.0148 16.9402 63.4702 16.986 63.8837 17.1572C64.2971 17.3283 64.6501 17.6171 64.8979 17.9871C65.1458 18.3572 65.2774 18.7917 65.2761 19.2359C65.2756 19.5309 65.2164 19.8229 65.1019 20.0952C64.9874 20.3675 64.8198 20.6147 64.6088 20.8227C64.3977 21.0307 64.1474 21.1954 63.8721 21.3073C63.5967 21.4193 63.3018 21.4763 63.0042 21.4751Z" stroke="white" stroke-width="0.7"/>
</svg>
