<svg width="84" height="66" viewBox="0 0 84 66" fill="none" xmlns="http://www.w3.org/2000/svg">
<path d="M42 40.68C31.75 40.68 29.7064 38.1789 29.322 37.4122C29.2333 37.2345 29.1873 37.0386 29.1875 36.84V33C29.1902 30.6245 30.136 28.3471 31.8174 26.6673C33.4987 24.9876 35.7784 24.0427 38.1562 24.04H45.8437C48.2215 24.0427 50.5012 24.9876 52.1826 26.6673C53.8639 28.3471 54.8097 30.6245 54.8125 33V36.84C54.8146 37.0381 54.7708 37.2339 54.6843 37.4122C54.3 38.1789 52.25 40.68 42 40.68ZM31.75 36.3702C32.2907 36.7645 34.6264 38.12 42 38.12C49.2262 38.12 51.6093 36.8182 52.25 36.3357V33C52.2479 31.3032 51.5723 29.6766 50.3714 28.4768C49.1704 27.277 47.5421 26.602 45.8437 26.6H38.1562C36.4578 26.602 34.8295 27.277 33.6286 28.4768C32.4276 29.6766 31.752 31.3032 31.75 33V36.3702Z" fill="#273257"/>
<path d="M42 26.6C40.4795 26.6 38.9932 26.1496 37.729 25.3057C36.4648 24.4618 35.4795 23.2624 34.8976 21.859C34.3158 20.4557 34.1636 18.9115 34.4602 17.4217C34.7568 15.9319 35.489 14.5635 36.5641 13.4894C37.6392 12.4154 39.009 11.6839 40.5002 11.3876C41.9914 11.0912 43.5371 11.2433 44.9418 11.8246C46.3465 12.4059 47.5472 13.3903 48.3919 14.6532C49.2366 15.9162 49.6875 17.4011 49.6875 18.92C49.6854 20.9562 48.8748 22.9085 47.4336 24.3483C45.9923 25.7882 44.0382 26.598 42 26.6ZM42 13.8C40.9863 13.8 39.9955 14.1003 39.1527 14.6629C38.3099 15.2255 37.653 16.0251 37.2651 16.9607C36.8772 17.8962 36.7757 18.9257 36.9734 19.9189C37.1712 20.9121 37.6593 21.8244 38.376 22.5404C39.0928 23.2564 40.006 23.7441 41.0001 23.9416C41.9943 24.1392 43.0247 24.0378 43.9612 23.6503C44.8977 23.2628 45.6981 22.6065 46.2612 21.7645C46.8244 20.9226 47.125 19.9326 47.125 18.92C47.125 17.5621 46.585 16.2598 45.6239 15.2996C44.6628 14.3394 43.3592 13.8 42 13.8Z" fill="#273257"/>
<path d="M70.1874 40.68C68.4258 40.69 66.665 40.5986 64.9138 40.4061L65.2111 37.864C66.8636 38.0446 68.5251 38.1301 70.1874 38.12C77.4137 38.12 79.7968 36.8182 80.4374 36.3357V33C80.4354 31.3032 79.7598 29.6766 78.5588 28.4768C77.3579 27.277 75.7296 26.602 74.0312 26.6H70.1874V24.04H74.0312C76.409 24.0427 78.6887 24.9876 80.37 26.6673C82.0514 28.3471 82.9972 30.6245 82.9999 33V36.84C83.0021 37.0381 82.9582 37.2339 82.8718 37.4122C82.4874 38.1789 80.4374 40.68 70.1874 40.68Z" fill="#273257"/>
<path d="M70.1874 26.6V24.04C71.5467 24.04 72.8502 23.5006 73.8114 22.5404C74.7725 21.5802 75.3124 20.2779 75.3124 18.92C75.3124 17.5621 74.7725 16.2598 73.8114 15.2996C72.8502 14.3394 71.5467 13.8 70.1874 13.8C69.0779 13.7962 67.9977 14.1559 67.1124 14.824L65.5749 12.776C66.903 11.774 68.5232 11.2344 70.1874 11.24C72.2263 11.24 74.1816 12.0491 75.6233 13.4894C77.065 14.9297 77.8749 16.8831 77.8749 18.92C77.8749 20.9569 77.065 22.9103 75.6233 24.3506C74.1816 25.7909 72.2263 26.6 70.1874 26.6Z" fill="#273257"/>
<path d="M13.8125 40.68C3.5625 40.68 1.5125 38.1789 1.13453 37.4122C1.04587 37.2345 0.999815 37.0386 1 36.84V33C1.00271 30.6245 1.9485 28.3471 3.62988 26.6673C5.31126 24.9876 7.59092 24.0427 9.96874 24.04H13.8125V26.6H9.96874C8.27033 26.602 6.64205 27.277 5.44109 28.4768C4.24013 29.6766 3.56453 31.3032 3.5625 33V36.3702C4.10319 36.7645 6.4389 38.12 13.8125 38.12C15.4748 38.1301 17.1364 38.0446 18.7889 37.864L19.0861 40.4061C17.335 40.5986 15.5742 40.69 13.8125 40.68Z" fill="#273257"/>
<path d="M13.8125 26.6C11.7736 26.6 9.8183 25.7909 8.37661 24.3506C6.93493 22.9103 6.125 20.9569 6.125 18.92C6.125 16.8831 6.93493 14.9297 8.37661 13.4894C9.8183 12.0491 11.7736 11.24 13.8125 11.24C15.4767 11.2344 17.0969 11.774 18.425 12.776L16.8875 14.824C16.0022 14.1559 14.922 13.7962 13.8125 13.8C12.4533 13.8 11.1497 14.3394 10.1886 15.2996C9.22745 16.2598 8.68749 17.5621 8.68749 18.92C8.68749 20.2779 9.22745 21.5802 10.1886 22.5404C11.1497 23.5006 12.4533 24.04 13.8125 24.04V26.6Z" fill="#273257"/>
<path d="M42 49.64C37.1852 49.64 32.4786 48.2137 28.4753 45.5413C24.472 42.869 21.3518 39.0708 19.5093 34.6269C17.6668 30.183 17.1847 25.293 18.124 20.5754C19.0633 15.8578 21.3818 11.5244 24.7863 8.12317C28.1909 4.72196 32.5285 2.40571 37.2507 1.46731C41.973 0.52892 46.8677 1.01054 51.3159 2.85126C55.7641 4.69198 59.5661 7.80914 62.241 11.8085C64.916 15.8079 66.3437 20.51 66.3437 25.32C66.3366 31.7679 63.7695 37.9496 59.2057 42.509C54.6419 47.0683 48.4541 49.6329 42 49.64ZM42 3.56001C37.692 3.56001 33.4809 4.83621 29.899 7.22723C26.3171 9.61825 23.5253 13.0167 21.8767 16.9928C20.2282 20.9689 19.7968 25.3441 20.6373 29.5652C21.4777 33.7862 23.5521 37.6635 26.5983 40.7066C29.6445 43.7498 33.5255 45.8223 37.7507 46.6619C41.9758 47.5015 46.3553 47.0706 50.3353 45.4236C54.3153 43.7767 57.717 40.9876 60.1104 37.4092C62.5037 33.8308 63.7812 29.6237 63.7812 25.32C63.7747 19.5509 61.4779 14.0199 57.3945 9.94048C53.3111 5.86108 47.7747 3.56645 42 3.56001Z" fill="#273257"/>
<path d="M59.5631 41.0558L57.7511 42.8659L62.8762 47.9861L64.6882 46.1759L59.5631 41.0558Z" fill="#273257"/>
<path d="M75.3124 65C74.9726 64.9999 74.6468 64.865 74.4066 64.625L60.3129 50.545C60.0727 50.3049 59.9377 49.9794 59.9377 49.64C59.9377 49.3006 60.0727 48.9751 60.3129 48.735L65.4378 43.615C65.6781 43.3751 66.0039 43.2403 66.3437 43.2403C66.6834 43.2403 67.0093 43.3751 67.2495 43.615L81.3433 57.695C81.5835 57.9351 81.7184 58.2606 81.7184 58.6C81.7184 58.9394 81.5835 59.2649 81.3433 59.505L76.2183 64.625C75.9781 64.865 75.6522 64.9999 75.3124 65ZM63.0304 49.64L75.3124 61.9101L78.6257 58.6L66.3437 46.3299L63.0304 49.64Z" fill="#273257"/>
<path d="M70.1874 26.6H74.0312C75.7296 26.602 77.3579 27.277 78.5588 28.4768C79.7598 29.6766 80.4354 31.3032 80.4374 33V36.3357C79.7968 36.8182 77.4137 38.12 70.1874 38.12C68.5251 38.1301 66.8636 38.0446 65.2111 37.864L64.9138 40.4061C66.665 40.5986 68.4258 40.69 70.1874 40.68C80.4374 40.68 82.4874 38.1789 82.8718 37.4122C82.9582 37.2339 83.0021 37.0381 82.9999 36.84V33C82.9972 30.6245 82.0514 28.3471 80.37 26.6673C78.6887 24.9876 76.409 24.0427 74.0312 24.04H70.1874M70.1874 26.6V24.04M70.1874 26.6C72.2263 26.6 74.1816 25.7909 75.6233 24.3506C77.065 22.9103 77.8749 20.9569 77.8749 18.92C77.8749 16.8831 77.065 14.9297 75.6233 13.4894C74.1816 12.0491 72.2263 11.24 70.1874 11.24C68.5232 11.2344 66.903 11.774 65.5749 12.776L67.1124 14.824C67.9977 14.1559 69.0779 13.7962 70.1874 13.8C71.5467 13.8 72.8502 14.3394 73.8114 15.2996C74.7725 16.2598 75.3124 17.5621 75.3124 18.92C75.3124 20.2779 74.7725 21.5802 73.8114 22.5404C72.8502 23.5006 71.5467 24.04 70.1874 24.04M13.8125 24.04H9.96874C7.59092 24.0427 5.31126 24.9876 3.62988 26.6673C1.9485 28.3471 1.00271 30.6245 1 33V36.84C0.999815 37.0386 1.04587 37.2345 1.13453 37.4122C1.5125 38.1789 3.5625 40.68 13.8125 40.68C15.5742 40.69 17.335 40.5986 19.0861 40.4061L18.7889 37.864C17.1364 38.0446 15.4748 38.1301 13.8125 38.12C6.4389 38.12 4.10319 36.7645 3.5625 36.3702V33C3.56453 31.3032 4.24013 29.6766 5.44109 28.4768C6.64205 27.277 8.27033 26.602 9.96874 26.6H13.8125M13.8125 24.04V26.6M13.8125 24.04C12.4533 24.04 11.1497 23.5006 10.1886 22.5404C9.22745 21.5802 8.68749 20.2779 8.68749 18.92C8.68749 17.5621 9.22745 16.2598 10.1886 15.2996C11.1497 14.3394 12.4533 13.8 13.8125 13.8C14.922 13.7962 16.0022 14.1559 16.8875 14.824L18.425 12.776C17.0969 11.774 15.4767 11.2344 13.8125 11.24C11.7736 11.24 9.8183 12.0491 8.37661 13.4894C6.93493 14.9297 6.125 16.8831 6.125 18.92C6.125 20.9569 6.93493 22.9103 8.37661 24.3506C9.8183 25.7909 11.7736 26.6 13.8125 26.6M42 40.68C31.75 40.68 29.7064 38.1789 29.322 37.4122C29.2333 37.2345 29.1873 37.0386 29.1875 36.84V33C29.1902 30.6245 30.136 28.3471 31.8174 26.6673C33.4987 24.9876 35.7784 24.0427 38.1562 24.04H45.8437C48.2215 24.0427 50.5012 24.9876 52.1826 26.6673C53.8639 28.3471 54.8097 30.6245 54.8124 33V36.84C54.8146 37.0381 54.7708 37.2339 54.6843 37.4122C54.3 38.1789 52.25 40.68 42 40.68ZM31.75 36.3702C32.2907 36.7645 34.6264 38.12 42 38.12C49.2262 38.12 51.6093 36.8182 52.25 36.3357V33C52.2479 31.3032 51.5723 29.6766 50.3714 28.4768C49.1704 27.277 47.5421 26.602 45.8437 26.6H38.1562C36.4578 26.602 34.8295 27.277 33.6286 28.4768C32.4276 29.6766 31.752 31.3032 31.75 33V36.3702ZM42 26.6C40.4795 26.6 38.9932 26.1496 37.729 25.3057C36.4648 24.4618 35.4795 23.2624 34.8976 21.859C34.3158 20.4557 34.1636 18.9115 34.4602 17.4217C34.7568 15.9319 35.489 14.5635 36.5641 13.4894C37.6392 12.4154 39.009 11.6839 40.5002 11.3876C41.9914 11.0912 43.5371 11.2433 44.9418 11.8246C46.3465 12.4059 47.5472 13.3903 48.3919 14.6532C49.2366 15.9162 49.6875 17.401 49.6875 18.92C49.6854 20.9562 48.8748 22.9085 47.4336 24.3483C45.9923 25.7882 44.0382 26.598 42 26.6ZM42 13.8C40.9863 13.8 39.9955 14.1003 39.1527 14.6629C38.3099 15.2255 37.653 16.0251 37.2651 16.9607C36.8772 17.8962 36.7757 18.9257 36.9734 19.9189C37.1712 20.9121 37.6593 21.8244 38.376 22.5404C39.0928 23.2564 40.006 23.7441 41.0001 23.9416C41.9943 24.1392 43.0247 24.0378 43.9612 23.6503C44.8977 23.2628 45.6981 22.6065 46.2612 21.7645C46.8244 20.9225 47.125 19.9327 47.125 18.92C47.125 17.5621 46.585 16.2598 45.6239 15.2996C44.6628 14.3394 43.3592 13.8 42 13.8ZM42 49.64C37.1852 49.64 32.4786 48.2137 28.4753 45.5413C24.472 42.869 21.3518 39.0708 19.5093 34.6269C17.6668 30.183 17.1847 25.293 18.124 20.5754C19.0633 15.8578 21.3818 11.5244 24.7863 8.12317C28.1909 4.72196 32.5285 2.40571 37.2507 1.46731C41.973 0.52892 46.8677 1.01054 51.3159 2.85126C55.7641 4.69198 59.5661 7.80914 62.241 11.8085C64.916 15.8079 66.3437 20.51 66.3437 25.32C66.3366 31.7679 63.7695 37.9496 59.2057 42.509C54.6419 47.0683 48.4541 49.6329 42 49.64ZM42 3.56001C37.692 3.56001 33.4809 4.83621 29.899 7.22723C26.3171 9.61825 23.5253 13.0167 21.8767 16.9928C20.2282 20.9689 19.7968 25.3441 20.6373 29.5652C21.4777 33.7862 23.5521 37.6635 26.5983 40.7067C29.6445 43.7498 33.5255 45.8223 37.7507 46.6619C41.9758 47.5015 46.3553 47.0706 50.3353 45.4236C54.3153 43.7767 57.717 40.9876 60.1104 37.4092C62.5037 33.8308 63.7812 29.6237 63.7812 25.32C63.7747 19.5509 61.4779 14.0199 57.3945 9.94048C53.3111 5.86108 47.7747 3.56645 42 3.56001ZM57.7511 42.8659L59.5631 41.0558L64.6882 46.1759L62.8762 47.9861L57.7511 42.8659ZM75.3124 65C74.9727 64.9999 74.6468 64.865 74.4066 64.625L60.3129 50.545C60.0727 50.3049 59.9377 49.9794 59.9377 49.64C59.9377 49.3006 60.0727 48.9751 60.3129 48.735L65.4378 43.615C65.6781 43.3751 66.0039 43.2403 66.3437 43.2403C66.6834 43.2403 67.0093 43.3751 67.2495 43.615L81.3433 57.695C81.5835 57.9351 81.7184 58.2606 81.7184 58.6C81.7184 58.9394 81.5835 59.2649 81.3433 59.505L76.2183 64.625C75.978 64.865 75.6522 64.9999 75.3124 65ZM63.0304 49.64L75.3124 61.9101L78.6257 58.6L66.3437 46.3299L63.0304 49.64Z" stroke="white" stroke-width="0.7"/>
</svg>
