<svg width="69" height="69" viewBox="0 0 69 69" fill="none" xmlns="http://www.w3.org/2000/svg">
<path d="M10.1327 66.0378H58.871C60.8407 66.0378 62.6324 65.2328 63.9307 63.9307C65.2327 62.6324 66.0378 60.8407 66.0378 58.871C66.0378 56.9013 65.2328 55.1097 63.9307 53.8076C62.6324 52.5094 60.8407 51.7007 58.871 51.7007C42.6238 51.7007 26.3762 51.7007 10.1327 51.7007C8.16298 51.7007 6.36759 52.5094 5.06933 53.8076C3.77095 55.1097 2.96224 56.9014 2.96224 58.871C2.96224 60.8407 3.77095 62.6324 5.06933 63.9307C6.36759 65.2327 8.16298 66.0378 10.1327 66.0378ZM49.3266 35.7353V39.4149C49.3266 39.9566 48.8889 40.3981 48.3436 40.3981H44.5342C43.9925 40.3981 43.5548 39.9566 43.5548 39.4149V35.7353H39.4373V49.7384H53.4443V44.9608C53.4443 44.4191 53.882 43.9778 54.4235 43.9778C54.9651 43.9778 55.4065 44.4191 55.4065 44.9608V49.7384H58.8711C61.3823 49.7384 63.6637 50.766 65.3182 52.4204C66.9724 54.0747 68 56.3598 68 58.871C68 61.3822 66.9724 63.6636 65.318 65.318C63.6636 66.9724 61.3823 68 58.871 68H10.1327C7.61769 68 5.33642 66.9724 3.68196 65.318C2.02751 63.6636 1 61.3823 1 58.871C1 56.3597 2.02751 54.0747 3.68196 52.4203C5.33642 50.7657 7.61769 49.7383 10.1327 49.7383H13.5973V34.7523C13.5973 34.2107 14.035 33.7693 14.5765 33.7693H18.3862V30.9983C18.3862 28.984 19.2097 27.1478 20.5376 25.8198C21.8693 24.4919 23.7017 23.6684 25.7197 23.6684H27.7042V21.7468C26.0536 20.1591 25.1187 17.9855 25.1187 15.6929V11.6646H23.5274C22.9858 11.6646 22.5482 11.2269 22.5482 10.6816C22.5482 10.14 22.9859 9.70241 23.5274 9.70241H23.8984C24.1283 7.42847 25.1559 5.38091 26.6916 3.84514C28.4461 2.09058 30.8685 1 33.5319 1C34.3406 1 35.1306 1.1039 35.891 1.29299C36.67 1.49334 37.4155 1.78633 38.1092 2.16098C38.584 2.41708 38.7621 3.01052 38.5061 3.48528C38.2502 3.96383 37.6567 4.14193 37.1818 3.88584C36.6291 3.58539 36.0356 3.35167 35.4163 3.19595C35.1195 3.12175 34.8189 3.06614 34.5111 3.02531V5.05442C34.5111 5.59604 34.0734 6.03743 33.5319 6.03743C32.9903 6.03743 32.5489 5.59604 32.5489 5.05442V3.02531C30.8166 3.2479 29.2587 4.05282 28.079 5.23238C26.8993 6.41195 26.098 7.96996 25.8756 9.70228H41.1882C41.1401 9.29792 41.0584 8.90849 40.947 8.5337C40.743 7.82523 40.4353 7.16138 40.0494 6.55276C39.76 6.09658 39.8935 5.49175 40.3461 5.20255C40.8023 4.91322 41.407 5.04696 41.6964 5.50313C42.1822 6.26722 42.568 7.10197 42.8278 7.98854C42.9873 8.54496 43.1023 9.11616 43.1617 9.70228H43.5326C44.0779 9.70228 44.5156 10.14 44.5156 10.6815C44.5156 11.2268 44.0779 11.6645 43.5326 11.6645H41.945V15.6929C41.945 17.9854 41.0101 20.1556 39.3631 21.743V23.6682H41.3439C43.3619 23.6682 45.1944 24.4917 46.5223 25.8197C47.8501 27.1477 48.6774 28.9839 48.6774 30.9982V33.7691H54.4235C54.9651 33.7691 55.4065 34.2105 55.4065 34.7522V40.5129C55.4065 41.0545 54.9651 41.4959 54.4235 41.4959C53.8818 41.4959 53.4443 41.0545 53.4443 40.5129V35.7353H49.3266ZM45.5171 35.7353V38.4359H47.3643V35.7353H45.5171ZM25.449 35.7353V39.4149C25.449 39.9566 25.0075 40.3981 24.466 40.3981H20.6564C20.1148 40.3981 19.6734 39.9566 19.6734 39.4149V35.7353H15.5594V49.7384H29.5627V44.9608C29.5627 44.4191 30.0042 43.9778 30.5458 43.9778C31.0873 43.9778 31.5288 44.4191 31.5288 44.9608V49.7384H37.475V34.7523C37.475 34.2107 37.9127 33.7693 38.454 33.7693H40.3608V25.6307H39.1738C38.8584 26.7288 38.2352 27.6932 37.4006 28.4276C36.3657 29.3365 35.0118 29.8856 33.5318 29.8856C32.0516 29.8856 30.6979 29.3367 29.6629 28.4276C28.8282 27.6932 28.205 26.7288 27.8896 25.6307H26.6989V33.7693H30.5457C31.0872 33.7693 31.5287 34.2107 31.5287 34.7523V40.513C31.5287 41.0546 31.0872 41.496 30.5457 41.496C30.0041 41.496 29.5625 41.0546 29.5625 40.513V35.7353H25.449ZM21.6394 35.7353V38.4359H23.4867V35.7353H21.6394ZM42.3233 25.7197V33.7693H46.7114V30.9983C46.7114 29.5256 46.1068 28.1828 45.1349 27.2071C44.382 26.4542 43.4101 25.9237 42.3233 25.7197ZM24.7368 33.7693V25.7197C23.6537 25.9237 22.6818 26.4541 21.9287 27.2071C20.9532 28.1828 20.3486 29.5256 20.3486 30.9983V33.7693H24.7368ZM33.5319 22.1439C35.2494 22.1439 36.8777 21.454 38.0871 20.2484C39.2556 19.0799 39.9788 17.4662 39.9788 15.6932V11.6646H27.0812V15.693C27.0812 17.4662 27.8084 19.0799 28.9767 20.2482C30.1453 21.4167 31.7588 22.1439 33.5319 22.1439ZM37.4008 23.1565C36.2398 23.7647 34.9228 24.1061 33.5319 24.1061C32.1372 24.1061 30.8204 23.7612 29.6593 23.1565V24.5623C29.7334 25.4377 30.301 26.3837 30.95 26.9549C31.6363 27.5558 32.5414 27.923 33.5318 27.923C34.5221 27.923 35.4236 27.5557 36.1098 26.9549C36.7887 26.3613 37.2597 25.5378 37.4006 24.6069V23.1565H37.4008ZM47.3236 59.8503C46.7819 59.8503 46.3405 59.4126 46.3405 58.8711C46.3405 58.3296 46.7819 57.8881 47.3236 57.8881H51.007C51.5488 57.8881 51.9863 58.3295 51.9863 58.8711C51.9863 59.4127 51.5486 59.8503 51.007 59.8503H47.3236ZM37.5454 59.8503C37.0037 59.8503 36.5661 59.4126 36.5661 58.8711C36.5661 58.3296 37.0039 57.8881 37.5454 57.8881H41.2289C41.7742 57.8881 42.2119 58.3295 42.2119 58.8711C42.2119 59.4127 41.7742 59.8503 41.2289 59.8503H37.5454ZM27.7711 59.8503C27.2295 59.8503 26.7879 59.4126 26.7879 58.8711C26.7879 58.3296 27.2295 57.8881 27.7711 57.8881H31.4545C31.9961 57.8881 32.4375 58.3295 32.4375 58.8711C32.4375 59.4127 31.9961 59.8503 31.4545 59.8503H27.7711ZM17.9968 59.8503C17.4514 59.8503 17.0137 59.4126 17.0137 58.8711C17.0137 58.3296 17.4514 57.8881 17.9968 57.8881H21.6802C22.2217 57.8881 22.6595 58.3295 22.6595 58.8711C22.6595 59.4127 22.2216 59.8503 21.6802 59.8503H17.9968ZM58.871 54.4716C60.0841 54.4716 61.1856 54.965 61.9794 55.7588C62.7771 56.5563 63.2705 57.6543 63.2705 58.871C63.2705 60.0841 62.777 61.1856 61.9794 61.9794C61.1858 62.7771 60.0841 63.2705 58.871 63.2705C57.6543 63.2705 56.5562 62.777 55.7588 61.9794C54.965 61.1856 54.4716 60.0841 54.4716 58.871C54.4716 57.6543 54.965 56.5562 55.7588 55.7588C56.5563 54.9651 57.6543 54.4716 58.871 54.4716ZM60.5922 57.1461C60.1508 56.7084 59.5426 56.434 58.8711 56.434C58.196 56.434 57.5877 56.7085 57.1461 57.1461C56.7084 57.5875 56.434 58.1959 56.434 58.8711C56.434 59.5426 56.7085 60.1508 57.1461 60.5922C57.5877 61.0336 58.1959 61.3081 58.8711 61.3081C59.5426 61.3081 60.1508 61.0336 60.5922 60.5922C61.0336 60.1508 61.3081 59.5426 61.3081 58.8711C61.308 58.1959 61.0336 57.5875 60.5922 57.1461ZM10.1327 54.4716C11.3457 54.4716 12.4473 54.965 13.2412 55.7588C14.0387 56.5563 14.532 57.6543 14.532 58.871C14.532 60.0841 14.0386 61.1856 13.2412 61.9794C12.4474 62.7771 11.3457 63.2705 10.1327 63.2705C8.91595 63.2705 7.81804 62.777 7.02058 61.9794C6.22286 61.1856 5.73318 60.0841 5.73318 58.871C5.73318 57.6543 6.22286 56.5562 7.02058 55.7588C7.81804 54.9651 8.91595 54.4716 10.1327 54.4716ZM11.8539 57.1461C11.4123 56.7084 10.8041 56.434 10.1327 56.434C9.45757 56.434 8.84921 56.7085 8.40782 57.1461C7.96643 57.5875 7.69568 58.1959 7.69568 58.8711C7.69568 59.5426 7.96643 60.1508 8.40782 60.5922C8.84921 61.0336 9.45744 61.3081 10.1327 61.3081C10.8041 61.3081 11.4123 61.0336 11.8539 60.5922C12.2953 60.1508 12.566 59.5426 12.566 58.8711C12.5661 58.1959 12.2953 57.5875 11.8539 57.1461Z" fill="#273257" stroke="white" stroke-width="0.3"/>
</svg>
