<svg width="43" height="46" viewBox="0 0 43 46" fill="none" xmlns="http://www.w3.org/2000/svg">
<path fill-rule="evenodd" clip-rule="evenodd" d="M21.5 32.5533C21.1794 32.5533 20.8817 32.3924 20.7157 32.1304C20.1167 31.2057 19.3091 30.0415 18.374 28.6976C14.6104 23.2845 9.45574 15.8762 9.45574 11.6685C9.45574 5.23341 14.8578 0 21.5001 0C28.1425 0 33.5446 5.23341 33.5446 11.6685C33.5446 15.8761 28.3899 23.2882 24.6263 28.6976C23.6911 30.0415 22.8835 31.2057 22.2847 32.1304C22.1182 32.3961 21.8207 32.5533 21.5 32.5533ZM21.5 1.7969C15.8816 1.7969 11.3104 6.22546 11.3104 11.6685C11.3104 15.3258 16.4845 22.7679 19.9119 27.6943C20.4954 28.5366 21.0326 29.304 21.5 29.9966C21.9675 29.304 22.5047 28.5366 23.0882 27.6943C26.5119 22.7679 31.6858 15.3257 31.6858 11.6685C31.6897 6.22536 27.1184 1.7969 21.5 1.7969Z" fill="#1C2649"/>
<path fill-rule="evenodd" clip-rule="evenodd" d="M21.5 17.9051C17.8677 17.9051 14.9155 15.0413 14.9155 11.5261C14.9155 8.00718 17.8716 5.14713 21.5 5.14713C25.1324 5.14713 28.0846 8.0109 28.0846 11.5261C28.0845 15.0413 25.1323 17.9051 21.5 17.9051ZM21.5 6.94042C18.8918 6.94042 16.7703 8.99563 16.7703 11.5224C16.7703 14.0494 18.8918 16.1046 21.5 16.1046C24.1084 16.1046 26.2298 14.0494 26.2298 11.5224C26.2297 8.99552 24.1084 6.94042 21.5 6.94042Z" fill="#1C2649"/>
<path fill-rule="evenodd" clip-rule="evenodd" d="M14.6412 46C14.5446 46 14.4442 45.985 14.3475 45.9551L0.633713 41.5228C0.255019 41.3992 0 41.0586 0 40.6693V14.8391C0 14.5509 0.142955 14.2776 0.386362 14.1092C0.629769 13.9408 0.939012 13.8958 1.22109 13.9857L13.2888 17.8827C13.5129 17.9538 13.6984 18.1074 13.8104 18.3056C14.278 19.1404 14.8228 20.0576 15.4372 21.0309C15.5261 21.1731 15.5725 21.3342 15.5725 21.4988V45.1014C15.5725 45.3898 15.4295 45.6629 15.1861 45.8315C15.0238 45.94 14.8344 46 14.6412 46ZM1.8548 40.0254L13.7138 43.855L13.7137 21.7496C13.2075 20.941 12.7632 20.1924 12.3535 19.4773L1.8548 16.0821V40.0254Z" fill="#1C2649"/>
<path fill-rule="evenodd" clip-rule="evenodd" d="M14.6412 46C14.448 46 14.2587 45.94 14.1002 45.8316C13.8569 45.6631 13.7138 45.3898 13.7138 45.1016L13.7137 21.4989C13.7137 21.0946 13.9921 20.7427 14.39 20.6342C14.7918 20.5256 15.217 20.6903 15.4333 21.031C16.894 23.3594 18.4976 25.6617 19.9081 27.6944C20.4915 28.5367 21.0287 29.3078 21.4962 29.9967C21.9637 29.3078 22.5009 28.5367 23.0843 27.6944C24.4987 25.6617 26.0984 23.3594 27.5591 21.031C27.7755 20.6866 28.2005 20.5256 28.6024 20.6342C29.0042 20.7427 29.2787 21.0946 29.2787 21.4989V40.673C29.2787 41.0586 29.0236 41.403 28.6449 41.5265L14.9312 45.9551C14.8382 45.985 14.7417 46 14.6412 46ZM15.5685 24.6134V43.8549L27.4277 40.0253V24.6134C26.4732 26.0434 25.511 27.4249 24.6262 28.7013C23.691 30.0452 22.8834 31.2095 22.2846 32.1341C22.1144 32.3961 21.817 32.557 21.4962 32.557C21.1755 32.557 20.8779 32.3961 20.7118 32.1341C20.1128 31.2057 19.3053 30.0452 18.3702 28.7013C17.4852 27.4249 16.5268 26.0434 15.5685 24.6134Z" fill="#1C2649"/>
<path fill-rule="evenodd" clip-rule="evenodd" d="M42.0726 46C41.976 46 41.8756 45.985 41.779 45.9551L28.0653 41.5265C27.6866 41.403 27.4316 41.0624 27.4316 40.673L27.4315 21.4989C27.4315 21.3342 27.4778 21.1732 27.5668 21.031C28.9346 18.8485 29.9354 17.0367 30.6232 15.4906C30.8126 15.0601 31.311 14.8467 31.767 14.9927L42.3663 18.4143C42.745 18.5378 43 18.8785 43 19.2677V45.1016C43 45.3899 42.857 45.6631 42.6136 45.8316C42.4551 45.94 42.2658 46 42.0726 46ZM29.2863 40.0254L41.1453 43.855L41.1452 19.9154L31.9756 16.9543C31.3072 18.3469 30.4184 19.9266 29.2863 21.7497V40.0254Z" fill="#1C2649"/>
</svg>
