<svg width="47" height="37" viewBox="0 0 47 37" fill="none" xmlns="http://www.w3.org/2000/svg">
<path d="M14.5 14.6957H46M14.5 14.6957V25.3478M14.5 14.6957L1 1M46 14.6957V25.3478M46 14.6957L32.5 1H1M46 25.3478H14.5M46 25.3478V36H14.5M14.5 25.3478V36M14.5 25.3478L1 11.6522M14.5 36L1 22.3043V11.6522M1 1V11.6522M32.5 20.0217C32.5 21.2824 31.4926 22.3043 30.25 22.3043C29.0074 22.3043 28 21.2824 28 20.0217C28 18.7611 29.0074 17.7391 30.25 17.7391C31.4926 17.7391 32.5 18.7611 32.5 20.0217ZM41.5 20.0217C41.5 21.2824 40.4926 22.3043 39.25 22.3043C38.0074 22.3043 37 21.2824 37 20.0217C37 18.7611 38.0074 17.7391 39.25 17.7391C40.4926 17.7391 41.5 18.7611 41.5 20.0217ZM23.5 20.0217C23.5 21.2824 22.4926 22.3043 21.25 22.3043C20.0074 22.3043 19 21.2824 19 20.0217C19 18.7611 20.0074 17.7391 21.25 17.7391C22.4926 17.7391 23.5 18.7611 23.5 20.0217ZM32.5 30.6739C32.5 31.9346 31.4926 32.9565 30.25 32.9565C29.0074 32.9565 28 31.9346 28 30.6739C28 29.4133 29.0074 28.3913 30.25 28.3913C31.4926 28.3913 32.5 29.4133 32.5 30.6739ZM41.5 30.6739C41.5 31.9346 40.4926 32.9565 39.25 32.9565C38.0074 32.9565 37 31.9346 37 30.6739C37 29.4133 38.0074 28.3913 39.25 28.3913C40.4926 28.3913 41.5 29.4133 41.5 30.6739ZM23.5 30.6739C23.5 31.9346 22.4926 32.9565 21.25 32.9565C20.0074 32.9565 19 31.9346 19 30.6739C19 29.4133 20.0074 28.3913 21.25 28.3913C22.4926 28.3913 23.5 29.4133 23.5 30.6739Z" stroke="#1C2649" stroke-width="2" stroke-linecap="round" stroke-linejoin="round"/>
</svg>
