<svg width="41" height="41" viewBox="0 0 41 41" fill="none" xmlns="http://www.w3.org/2000/svg">
<path d="M18.5711 34.4773H4.65909C3.91769 34.4773 3.20666 34.1827 2.68241 33.6585C2.15816 33.1342 1.86364 32.4232 1.86364 31.6818V12.1136H32.6136V18.0027C32.6136 18.2499 32.7118 18.4869 32.8866 18.6616C33.0613 18.8364 33.2983 18.9345 33.5455 18.9345C33.7926 18.9345 34.0296 18.8364 34.2043 18.6616C34.3791 18.4869 34.4773 18.2499 34.4773 18.0027V7.45454C34.4758 6.21933 33.9845 5.03513 33.111 4.1617C32.2376 3.28828 31.0534 2.79693 29.8182 2.79545H27.9545C27.9545 2.05405 27.66 1.34302 27.1358 0.81877C26.6115 0.29452 25.9005 0 25.1591 0C24.4177 0 23.7067 0.29452 23.1824 0.81877C22.6582 1.34302 22.3636 2.05405 22.3636 2.79545H12.1136C12.1136 2.05405 11.8191 1.34302 11.2949 0.81877C10.7706 0.29452 10.0596 0 9.31818 0C8.57678 0 7.86575 0.29452 7.3415 0.81877C6.81725 1.34302 6.52273 2.05405 6.52273 2.79545H4.65909C3.42388 2.79693 2.23968 3.28828 1.36625 4.1617C0.492822 5.03513 0.00147959 6.21933 0 7.45454V31.6818C0.00147959 32.917 0.492822 34.1012 1.36625 34.9747C2.23968 35.8481 3.42388 36.3394 4.65909 36.3409H18.5711C18.8183 36.3409 19.0553 36.2427 19.23 36.068C19.4048 35.8932 19.503 35.6562 19.503 35.4091C19.503 35.162 19.4048 34.9249 19.23 34.7502C19.0553 34.5754 18.8183 34.4773 18.5711 34.4773ZM24.2273 2.79545C24.2273 2.54832 24.3254 2.31131 24.5002 2.13656C24.6749 1.96181 24.912 1.86364 25.1591 1.86364C25.4062 1.86364 25.6432 1.96181 25.818 2.13656C25.9927 2.31131 26.0909 2.54832 26.0909 2.79545V4.65909C26.0909 4.90622 25.9927 5.14324 25.818 5.31798C25.6432 5.49273 25.4062 5.59091 25.1591 5.59091C24.912 5.59091 24.6749 5.49273 24.5002 5.31798C24.3254 5.14324 24.2273 4.90622 24.2273 4.65909V2.79545ZM8.38636 2.79545C8.38636 2.54832 8.48454 2.31131 8.65929 2.13656C8.83404 1.96181 9.07105 1.86364 9.31818 1.86364C9.56532 1.86364 9.80233 1.96181 9.97708 2.13656C10.1518 2.31131 10.25 2.54832 10.25 2.79545V4.65909C10.25 4.90622 10.1518 5.14324 9.97708 5.31798C9.80233 5.49273 9.56532 5.59091 9.31818 5.59091C9.07105 5.59091 8.83404 5.49273 8.65929 5.31798C8.48454 5.14324 8.38636 4.90622 8.38636 4.65909V2.79545ZM1.86364 7.45454C1.86364 6.71314 2.15816 6.00211 2.68241 5.47786C3.20666 4.95361 3.91769 4.65909 4.65909 4.65909H6.52273C6.52273 5.40049 6.81725 6.11153 7.3415 6.63578C7.86575 7.16002 8.57678 7.45454 9.31818 7.45454C10.0596 7.45454 10.7706 7.16002 11.2949 6.63578C11.8191 6.11153 12.1136 5.40049 12.1136 4.65909H22.3636C22.3636 5.40049 22.6582 6.11153 23.1824 6.63578C23.7067 7.16002 24.4177 7.45454 25.1591 7.45454C25.9005 7.45454 26.6115 7.16002 27.1358 6.63578C27.66 6.11153 27.9545 5.40049 27.9545 4.65909H29.8182C30.5596 4.65909 31.2706 4.95361 31.7949 5.47786C32.3191 6.00211 32.6136 6.71314 32.6136 7.45454V10.25H1.86364V7.45454Z" fill="black"/>
<path d="M11.1818 16.7727C11.1818 16.2785 10.9855 15.8044 10.636 15.4549C10.2865 15.1054 9.81245 14.9091 9.31818 14.9091H6.52273C6.02846 14.9091 5.55444 15.1054 5.20494 15.4549C4.85544 15.8044 4.65909 16.2785 4.65909 16.7727V19.5682C4.65909 20.0624 4.85544 20.5365 5.20494 20.886C5.55444 21.2355 6.02846 21.4318 6.52273 21.4318H9.31818C9.81245 21.4318 10.2865 21.2355 10.636 20.886C10.9855 20.5365 11.1818 20.0624 11.1818 19.5682V16.7727ZM6.52273 19.5682V16.7727H9.31818V19.5682H6.52273Z" fill="black"/>
<path d="M20.5 16.7727C20.5 16.2785 20.3037 15.8044 19.9542 15.4549C19.6047 15.1054 19.1306 14.9091 18.6364 14.9091H15.8409C15.3466 14.9091 14.8726 15.1054 14.5231 15.4549C14.1736 15.8044 13.9773 16.2785 13.9773 16.7727V19.5682C13.9773 20.0624 14.1736 20.5365 14.5231 20.886C14.8726 21.2355 15.3466 21.4318 15.8409 21.4318H18.6364C19.1306 21.4318 19.6047 21.2355 19.9542 20.886C20.3037 20.5365 20.5 20.0624 20.5 19.5682V16.7727ZM15.8409 19.5682V16.7727H18.6364V19.5682H15.8409Z" fill="black"/>
<path d="M28.8864 18.7668C29.1335 18.7668 29.3705 18.6686 29.5453 18.4939C29.72 18.3191 29.8182 18.0821 29.8182 17.835V16.7727C29.8182 16.2785 29.6218 15.8044 29.2723 15.4549C28.9228 15.1054 28.4488 14.9091 27.9545 14.9091H25.1591C24.6648 14.9091 24.1908 15.1054 23.8413 15.4549C23.4918 15.8044 23.2955 16.2785 23.2955 16.7727V19.4564C23.2955 19.7035 23.3936 19.9405 23.5684 20.1153C23.7431 20.29 23.9801 20.3882 24.2273 20.3882C24.4744 20.3882 24.7114 20.29 24.8862 20.1153C25.0609 19.9405 25.1591 19.7035 25.1591 19.4564V16.7727H27.9545V17.835C27.9545 18.0821 28.0527 18.3191 28.2275 18.4939C28.4022 18.6686 28.6392 18.7668 28.8864 18.7668Z" fill="black"/>
<path d="M9.31818 24.2273H6.52273C6.02846 24.2273 5.55444 24.4236 5.20494 24.7731C4.85544 25.1226 4.65909 25.5966 4.65909 26.0909V28.8864C4.65909 29.3806 4.85544 29.8546 5.20494 30.2041C5.55444 30.5536 6.02846 30.75 6.52273 30.75H9.31818C9.81245 30.75 10.2865 30.5536 10.636 30.2041C10.9855 29.8546 11.1818 29.3806 11.1818 28.8864V26.0909C11.1818 25.5966 10.9855 25.1226 10.636 24.7731C10.2865 24.4236 9.81245 24.2273 9.31818 24.2273ZM6.52273 28.8864V26.0909H9.31818V28.8864H6.52273Z" fill="black"/>
<path d="M19.2793 24.3493C19.0747 24.2681 18.8565 24.2267 18.6364 24.2273H15.8409C15.3466 24.2273 14.8726 24.4236 14.5231 24.7731C14.1736 25.1226 13.9773 25.5966 13.9773 26.0909V28.8864C13.9773 29.3806 14.1736 29.8547 14.5231 30.2042C14.8726 30.5536 15.3466 30.75 15.8409 30.75H17.7418C17.989 30.75 18.226 30.6518 18.4007 30.4771C18.5755 30.3023 18.6736 30.0653 18.6736 29.8182C18.6736 29.571 18.5755 29.334 18.4007 29.1593C18.226 28.9845 17.989 28.8864 17.7418 28.8864H15.8409V26.0909L18.5898 26.0807C18.8189 26.1699 19.074 26.1649 19.2995 26.0669C19.525 25.9688 19.7026 25.7856 19.7936 25.5571C19.8846 25.3287 19.8816 25.0735 19.7852 24.8473C19.6889 24.6211 19.5071 24.4421 19.2793 24.3493Z" fill="black"/>
<path d="M30.75 20.5C28.7227 20.5 26.741 21.1011 25.0554 22.2274C23.3698 23.3537 22.056 24.9545 21.2802 26.8275C20.5044 28.7004 20.3015 30.7614 20.697 32.7497C21.0924 34.738 22.0687 36.5644 23.5022 37.9978C24.9356 39.4313 26.762 40.4075 28.7503 40.803C30.7386 41.1985 32.7996 40.9956 34.6725 40.2198C36.5454 39.444 38.1463 38.1302 39.2726 36.4446C40.3988 34.759 41 32.7773 41 30.75C40.9968 28.0325 39.9159 25.4272 37.9943 23.5057C36.0728 21.5841 33.4675 20.5032 30.75 20.5ZM30.75 39.1364C29.0913 39.1364 27.4699 38.6445 26.0908 37.723C24.7117 36.8015 23.6368 35.4917 23.002 33.9593C22.3673 32.4269 22.2012 30.7407 22.5248 29.1139C22.8484 27.4871 23.6471 25.9928 24.8199 24.8199C25.9928 23.6471 27.4871 22.8484 29.1139 22.5248C30.7407 22.2012 32.4269 22.3673 33.9593 23.002C35.4917 23.6367 36.8015 24.7117 37.723 26.0908C38.6445 27.4699 39.1364 29.0913 39.1364 30.75C39.1339 32.9734 38.2495 35.1051 36.6773 36.6773C35.1051 38.2495 32.9734 39.1339 30.75 39.1364Z" fill="black"/>
<path d="M31.6818 30.3642V26.0909C31.6818 25.8438 31.5836 25.6068 31.4089 25.432C31.2341 25.2573 30.9971 25.1591 30.75 25.1591C30.5029 25.1591 30.2659 25.2573 30.0911 25.432C29.9164 25.6068 29.8182 25.8438 29.8182 26.0909V30.75C29.8182 30.9971 29.9164 31.2341 30.0912 31.4088L31.9548 33.2724C32.1306 33.4422 32.366 33.5361 32.6103 33.534C32.8546 33.5318 33.0883 33.4338 33.2611 33.2611C33.4338 33.0883 33.5318 32.8546 33.534 32.6103C33.5361 32.366 33.4422 32.1306 33.2724 31.9548L31.6818 30.3642Z" fill="black"/>
</svg>
