<svg width="60" height="43" viewBox="0 0 60 43" fill="none" xmlns="http://www.w3.org/2000/svg">
<path d="M59.8265 20.64L55.0892 9.89C54.9234 9.50876 54.6508 9.18397 54.3046 8.955C53.9583 8.72603 53.5533 8.60271 53.1386 8.6H41.6706L42.3566 2.3865C42.3903 2.08487 42.36 1.77949 42.2676 1.49044C42.1753 1.2014 42.023 0.935249 41.8207 0.709499C41.6203 0.486776 41.3756 0.308588 41.1024 0.186395C40.8292 0.0642016 40.5336 0.000709132 40.2344 0H10.7178C10.1492 0 9.60403 0.226518 9.20203 0.629721C8.80004 1.03292 8.5742 1.57978 8.5742 2.15C8.5742 2.72021 8.80004 3.26707 9.20203 3.67028C9.60403 4.07348 10.1492 4.3 10.7178 4.3H21.4355C22.004 4.3 22.5492 4.52652 22.9512 4.92972C23.3532 5.33292 23.5791 5.87978 23.5791 6.45C23.5791 7.02021 23.3532 7.56707 22.9512 7.97027C22.5492 8.37348 22.004 8.6 21.4355 8.6H6.43065C5.86215 8.6 5.31693 8.82651 4.91493 9.22972C4.51294 9.63292 4.2871 10.1798 4.2871 10.75C4.2871 11.3202 4.51294 11.8671 4.91493 12.2703C5.31693 12.6735 5.86215 12.9 6.43065 12.9H27.8662C28.4347 12.9 28.9799 13.1265 29.3819 13.5297C29.7839 13.9329 30.0097 14.4798 30.0097 15.05C30.0097 15.6202 29.7839 16.1671 29.3819 16.5703C28.9799 16.9735 28.4347 17.2 27.8662 17.2H12.8613C12.2928 17.2 11.7476 17.4265 11.3456 17.8297C10.9436 18.2329 10.7178 18.7798 10.7178 19.35C10.7178 19.9202 10.9436 20.4671 11.3456 20.8703C11.7476 21.2735 12.2928 21.5 12.8613 21.5H21.4355C22.004 21.5 22.5492 21.7265 22.9512 22.1297C23.3532 22.5329 23.5791 23.0798 23.5791 23.65C23.5791 24.2202 23.3532 24.7671 22.9512 25.1703C22.5492 25.5735 22.004 25.8 21.4355 25.8H4.2871C3.7186 25.8 3.17338 26.0265 2.77138 26.4297C2.36939 26.8329 2.14355 27.3798 2.14355 27.95C2.14355 28.5202 2.36939 29.0671 2.77138 29.4703C3.17338 29.8735 3.7186 30.1 4.2871 30.1H8.5742C9.14271 30.1 9.68793 30.3265 10.0899 30.7297C10.4919 31.1329 10.7178 31.6798 10.7178 32.25C10.7178 32.8202 10.4919 33.3671 10.0899 33.7703C9.68793 34.1735 9.14271 34.4 8.5742 34.4H6.43065C5.86215 34.4 5.31693 34.6265 4.91493 35.0297C4.51294 35.4329 4.2871 35.9798 4.2871 36.55C4.2871 37.1202 4.51294 37.6671 4.91493 38.0703C5.31693 38.4735 5.86215 38.7 6.43065 38.7H12.5398C12.7712 39.6067 13.2118 40.4463 13.8259 41.151C14.3463 41.7346 14.984 42.2011 15.6971 42.5197C16.4101 42.8384 17.1823 43.0021 17.963 43C19.2839 42.9621 20.5643 42.5338 21.6435 41.7689C22.7227 41.0039 23.5526 39.9363 24.0292 38.7H40.4059C40.6374 39.6067 41.0779 40.4463 41.6921 41.151C42.2125 41.7346 42.8502 42.2011 43.5632 42.5197C44.2763 42.8384 45.0485 43.0021 45.8291 43C47.1501 42.9621 48.4305 42.5338 49.5097 41.7689C50.5889 41.0039 51.4188 39.9363 51.8954 38.7H56.1825C56.7124 38.7032 57.2247 38.5094 57.6206 38.1561C58.0164 37.8027 58.2677 37.3148 58.326 36.7865L59.9765 21.7365C60.0353 21.3641 59.9831 20.9827 59.8265 20.64ZM17.963 38.7C17.7852 38.7077 17.608 38.6749 17.4447 38.6042C17.2813 38.5334 17.1361 38.4265 17.0198 38.2915C16.8515 38.0827 16.7284 37.8411 16.6583 37.582C16.5882 37.3229 16.5726 37.052 16.6125 36.7865C16.6673 36.1828 16.9271 35.6163 17.3485 35.1819C17.77 34.7475 18.3274 34.4714 18.9275 34.4C19.1053 34.3923 19.2825 34.425 19.4458 34.4958C19.6092 34.5665 19.7544 34.6734 19.8707 34.8085C20.039 35.0173 20.1621 35.2589 20.2322 35.518C20.3023 35.7771 20.3179 36.048 20.278 36.3135C20.2232 36.9171 19.9634 37.4836 19.542 37.9181C19.1205 38.3525 18.5631 38.6286 17.963 38.7ZM45.8291 38.7C45.6514 38.7077 45.4742 38.6749 45.3108 38.6042C45.1475 38.5334 45.0022 38.4265 44.8859 38.2915C44.7177 38.0827 44.5946 37.8411 44.5245 37.582C44.4543 37.3229 44.4387 37.052 44.4787 36.7865C44.5334 36.1828 44.7933 35.6163 45.2147 35.1819C45.6361 34.7475 46.1936 34.4714 46.7937 34.4C46.9715 34.3923 47.1486 34.425 47.312 34.4958C47.4753 34.5665 47.6206 34.6734 47.7369 34.8085C47.9051 35.0173 48.0282 35.2589 48.0984 35.518C48.1685 35.7771 48.1841 36.048 48.1441 36.3135C48.0894 36.9171 47.8295 37.4836 47.4081 37.9181C46.9867 38.3525 46.4292 38.6286 45.8291 38.7ZM55.4751 23.65H46.0006C45.7015 23.6493 45.4058 23.5858 45.1326 23.4636C44.8594 23.3414 44.6148 23.1632 44.4144 22.9405C44.2121 22.7147 44.0597 22.4486 43.9674 22.1595C43.875 21.8705 43.8447 21.5651 43.8785 21.2635L44.5858 14.8135C44.649 14.2891 44.9025 13.8064 45.2978 13.4574C45.6932 13.1084 46.2028 12.9177 46.7294 12.9215H51.7239L55.7323 21.844L55.4751 23.65Z" fill="#3E4972"/>
<path d="M4.2871 21.5C4.85561 21.5 5.40083 21.2735 5.80282 20.8703C6.20481 20.4671 6.43065 19.9202 6.43065 19.35C6.43065 18.7798 6.20481 18.2329 5.80282 17.8297C5.40083 17.4265 4.85561 17.2 4.2871 17.2H2.14355C1.57505 17.2 1.02982 17.4265 0.627831 17.8297C0.225838 18.2329 0 18.7798 0 19.35C0 19.9202 0.225838 20.4671 0.627831 20.8703C1.02982 21.2735 1.57505 21.5 2.14355 21.5H4.2871Z" fill="#3E4972"/>
</svg>
