<svg width="61" height="61" viewBox="0 0 61 61" fill="none" xmlns="http://www.w3.org/2000/svg">
<path fill-rule="evenodd" clip-rule="evenodd" d="M51.85 42.7C46.8022 42.7 42.7 46.8022 42.7 51.85C42.7 56.8978 46.8022 61 51.85 61C56.8978 61 61 56.8978 61 51.85C61 46.8022 56.8978 42.7 51.85 42.7ZM47.7173 52.9327L50.7673 55.9827C51.118 56.3335 51.606 56.486 52.094 56.4098C52.582 56.3335 52.9937 56.0285 53.2072 55.5863L56.2572 49.4863C56.6385 48.739 56.3335 47.8088 55.571 47.4428C54.8237 47.0615 53.8935 47.3665 53.5275 48.129L51.423 52.338L49.8675 50.7825C49.2728 50.1877 48.312 50.1877 47.7173 50.7825C47.1225 51.3773 47.1225 52.338 47.7173 52.948V52.9327ZM16.775 19.825H9.15C8.31125 19.825 7.625 20.5113 7.625 21.35C7.625 22.1888 8.31125 22.875 9.15 22.875H14.8382C14.3197 23.851 13.8775 24.8728 13.4963 25.925H6.1C5.26125 25.925 4.575 26.6112 4.575 27.45C4.575 28.2887 5.26125 28.975 6.1 28.975H12.6575C12.4593 29.9662 12.322 30.988 12.2457 32.025H1.525C0.68625 32.025 0 32.7113 0 33.55C0 34.3887 0.68625 35.075 1.525 35.075H12.2457C12.322 36.112 12.4593 37.1338 12.6575 38.125H6.1C5.26125 38.125 4.575 38.8112 4.575 39.65C4.575 40.4888 5.26125 41.175 6.1 41.175H13.4963C13.8775 42.2272 14.3197 43.249 14.8382 44.225H9.15C8.31125 44.225 7.625 44.9112 7.625 45.75C7.625 46.5887 8.31125 47.275 9.15 47.275H16.775C20.9535 52.826 27.5872 56.425 35.075 56.425C36.8745 56.425 38.6283 56.2115 40.3058 55.815C39.8787 54.5645 39.65 53.2378 39.65 51.85C39.65 51.0875 39.7262 50.3555 39.8482 49.6387C38.3385 50.0962 36.7373 50.325 35.075 50.325C25.8182 50.325 18.3 42.8068 18.3 33.55C18.3 24.2932 25.8182 16.775 35.075 16.775C44.3317 16.775 51.85 24.2932 51.85 33.55C51.85 35.7155 51.4382 37.8047 50.6757 39.711C51.057 39.6805 51.4535 39.65 51.85 39.65C53.619 39.65 55.2965 40.0313 56.8062 40.7023C57.5535 38.4453 57.95 36.051 57.95 33.55C57.95 22.4937 50.081 13.2522 39.65 11.1325V9.15H41.175C43.7065 9.15 45.75 7.1065 45.75 4.575C45.75 2.0435 43.7065 0 41.175 0H28.975C26.4435 0 24.4 2.0435 24.4 4.575C24.4 7.1065 26.4435 9.15 28.975 9.15H30.5V11.1325C24.9185 12.261 20.0842 15.433 16.775 19.825ZM41.236 45.8415C42.5018 43.6302 44.4232 41.846 46.7565 40.7632C46.7717 40.7327 46.8022 40.687 46.8175 40.6565C48.068 38.5825 48.8 36.1577 48.8 33.55C48.8 25.9707 42.6543 19.825 35.075 19.825C27.4958 19.825 21.35 25.9707 21.35 33.55C21.35 41.1292 27.4958 47.275 35.075 47.275C37.21 47.275 39.223 46.787 41.0225 45.9177C41.0835 45.8872 41.1598 45.8568 41.236 45.8415ZM1.525 38.125C2.36375 38.125 3.05 38.8112 3.05 39.65C3.05 40.4888 2.36375 41.175 1.525 41.175C0.68625 41.175 0 40.4888 0 39.65C0 38.8112 0.68625 38.125 1.525 38.125ZM33.55 33.55C33.55 33.9618 33.7178 34.343 33.9922 34.6327L38.5672 39.2077C39.162 39.8025 40.1227 39.8025 40.7327 39.2077C41.3275 38.613 41.3275 37.6523 40.7327 37.0423L36.6 32.9095V22.8598C36.6 22.021 35.9137 21.3347 35.075 21.3347C34.2363 21.3347 33.55 22.021 33.55 22.8598V33.55ZM1.525 25.925C2.36375 25.925 3.05 26.6112 3.05 27.45C3.05 28.2887 2.36375 28.975 1.525 28.975C0.68625 28.975 0 28.2887 0 27.45C0 26.6112 0.68625 25.925 1.525 25.925Z" fill="#3E4972"/>
</svg>
