<svg width="51" height="47" viewBox="0 0 51 47" fill="none" xmlns="http://www.w3.org/2000/svg">
<path d="M43.7143 9.39831H14.6283C12.6931 9.39831 12.4882 6.9777 14.1275 6.57818H43.7143C44.1355 6.57818 44.5681 6.60168 44.9893 6.66044C44.4087 2.4185 40.5951 -0.530885 36.4969 0.0801421C36.383 0.0918927 36.2806 0.115394 36.1667 0.138895L7.37679 5.20337C6.98973 5.26213 6.59129 5.33263 6.20424 5.41488H6.18147C6.03348 5.43838 5.89687 5.47363 5.74888 5.50889C1.3433 6.60169 0.0569196 10.6909 0.0569196 13.1585V16.0021C0.0227679 16.3076 0 16.6131 0 16.9186V39.4797C0 43.6276 3.26719 47 7.28571 47H43.7143C47.7328 47 51 43.6276 51 39.4797V16.9186C51 12.7707 47.7328 9.39831 43.7143 9.39831ZM38.3069 31.9593C36.292 31.9593 34.6641 30.279 34.6641 28.1992C34.6641 26.1193 36.292 24.439 38.3069 24.439C40.3219 24.439 41.9498 26.1193 41.9498 28.1992C41.9498 30.279 40.3219 31.9593 38.3069 31.9593Z" fill="#3E4972"/>
</svg>
