<svg width="85" height="46" viewBox="0 0 85 46" fill="none" xmlns="http://www.w3.org/2000/svg">
<path d="M75.7031 19.3333H69.7266C69.3595 19.3333 69.0625 19.6315 69.0625 20V20.8118C69.0625 21.8347 69.8913 22.6667 70.9101 22.6667H74.5196C75.5384 22.6667 76.3672 21.8347 76.3672 20.8118V20C76.3672 19.6315 76.0702 19.3333 75.7031 19.3333ZM75.0391 20.8118C75.0391 21.0997 74.8063 21.3333 74.5196 21.3333H70.9101C70.6234 21.3333 70.3906 21.0997 70.3906 20.8118V20.6667H75.0391V20.8118Z" fill="#273257"/>
<path d="M83.6719 32.6667V16.9603C83.6719 16.2005 83.4501 15.4642 83.0299 14.8315L77.5112 6.521C77.0176 5.7775 76.1915 5.3335 75.3012 5.3335H74.043L72.7034 3.53917C72.2948 2.993 71.6444 2.66683 70.964 2.66683H63.1769C62.4966 2.66683 61.8461 2.993 61.4376 3.53983L60.0978 5.33333H59.7656C58.3007 5.33333 57.1094 6.52933 57.1094 8V24H53.125C52.0432 24 51.0898 24.5298 50.4834 25.3363C50.4782 25.3362 50.4739 25.3333 50.4688 25.3333V1.33333C50.4688 0.598333 49.8728 0 49.1406 0H3.32031C2.58818 0 1.99219 0.598333 1.99219 1.33333V25.3333H1.32812C0.961064 25.3333 0.664062 25.6315 0.664062 26V28.6667C0.664062 29.0352 0.961064 29.3333 1.32812 29.3333H7.30519L3.76357 32H1.32812C0.595996 32 0 32.5983 0 33.3333V36.6667C0 37.4017 0.595996 38 1.32812 38H1.99219C1.99219 39.1028 2.88585 40 3.98438 40H4.86227C5.6691 43.434 8.73973 46 12.4032 46C16.6794 46 20.1579 42.5078 20.1579 38.2148C20.1579 37.9163 20.1374 37.623 20.1047 37.3333H21.0674C21.0347 37.6232 21.0141 37.9165 21.0141 38.2148C21.0141 42.5078 24.4926 46 28.7688 46C33.0451 46 36.5234 42.5078 36.5234 38.2148C36.5234 37.9163 36.5028 37.623 36.4701 37.3333H38.6381C38.9131 38.1077 39.6434 38.6667 40.508 38.6667H47.1486C48.0132 38.6667 48.7434 38.1077 49.0184 37.3333H50.7224L51.203 38.2982C51.3159 38.524 51.5454 38.6667 51.797 38.6667H61.7807C62.0158 42.749 65.3884 46 69.5126 46C73.6367 46 77.0093 42.749 77.2444 38.6667H83.6719C84.404 38.6667 85 38.0683 85 37.3333V34C85 33.265 84.404 32.6667 83.6719 32.6667ZM1.32812 36.6667V33.3333H1.99219V36.6667H1.32812ZM76.0229 34H83.6719V34.6667H76.4069C76.2893 34.4375 76.1617 34.2152 76.0229 34ZM82.3438 27.3333H80.8302L79.945 24.6667H82.3438V27.3333ZM62.4997 4.33983C62.6586 4.127 62.9121 4 63.1767 4H70.9639C71.2285 4 71.482 4.127 71.6409 4.33917L72.3833 5.33333H61.7575L62.4997 4.33983ZM59.7656 6.66667H75.301C75.746 6.66667 76.159 6.88867 76.406 7.26033L81.9247 15.5708C82.199 15.9837 82.3436 16.464 82.3436 16.9602V23.3333H79.9448C79.5188 23.3333 79.1161 23.5403 78.8671 23.8873C78.618 24.2337 78.55 24.6828 78.6848 25.0885L79.57 27.7545C79.7509 28.3 80.2574 28.6667 80.83 28.6667H82.3438V32.6667H74.9434C73.5433 31.2852 71.6264 30.4297 69.5126 30.4297C68.4077 30.4297 67.3584 30.6665 66.4062 31.0863V19.4908L67.4809 17.3333H80.3516C80.5968 17.3333 80.8217 17.198 80.9371 16.9812C81.0525 16.7643 81.0395 16.5013 80.9041 16.297L75.7888 8.59383C75.5418 8.22217 75.1285 8.00017 74.6838 8.00017H67.0703C66.3382 8.00017 65.7422 8.5985 65.7422 9.3335V16.0002C65.7422 16.3872 65.91 16.7332 66.1733 16.977L65.1482 19.0353C65.1022 19.1277 65.0781 19.2298 65.0781 19.3333V31.8373C64.7235 32.0865 64.3897 32.3628 64.0817 32.6667H58.4375V8C58.4375 7.265 59.0335 6.66667 59.7656 6.66667ZM67.069 9.33333H74.6836L79.1109 16H67.0703L67.069 9.33333ZM55.7812 34V37.3333H54.4531V34H55.7812ZM57.1094 34H58.4375V37.3333H57.1094V34ZM59.7656 34H63.0023C62.3689 34.9825 61.9489 36.1147 61.8113 37.3333H59.7656V34ZM53.125 25.3333H57.1094V32.6667H51.1328V27.3333C51.1328 26.2305 52.0265 25.3333 53.125 25.3333ZM49.0183 32.6667C48.7434 31.8923 48.013 31.3333 47.1484 31.3333H40.5078C39.9213 31.3333 39.3987 31.5938 39.0338 32H36.1044L33.0052 29.3333H49.8047V32.6667H49.0183ZM43.1641 32.6667V37.3333H41.8359V32.6667H43.1641ZM44.4922 32.6667H45.8203V37.3333H44.4922V32.6667ZM49.1406 25.3333H47.8125V1.33333H49.1406V25.3333ZM3.32031 1.33333H46.4844V25.3333H3.32031V1.33333ZM1.99219 26.6667H49.8047V28H1.99219V26.6667ZM8.98759 29.733C9.32941 29.4752 9.75408 29.3333 10.1821 29.3333H30.2285C30.7031 29.3333 31.1636 29.5045 31.5249 29.8152L34.0646 32H33.4196C32.122 31.0188 30.5147 30.4297 28.7687 30.4297C27.0227 30.4297 25.4153 31.0188 24.1178 32H17.0541C15.7565 31.0188 14.1492 30.4297 12.4032 30.4297C10.6572 30.4297 9.04968 31.0188 7.75227 32H5.9764L8.98759 29.733ZM3.98438 38.6667C3.61798 38.6667 3.32031 38.3678 3.32031 38V33.3333H6.37085C5.29573 34.6698 4.64844 36.367 4.64844 38.2148C4.64844 38.3673 4.66255 38.5163 4.67118 38.6667H3.98438ZM12.4032 44.6667C8.85976 44.6667 5.97656 41.7722 5.97656 38.2148C5.97656 34.6575 8.85976 31.763 12.4032 31.763C15.9466 31.763 18.8298 34.6575 18.8298 38.2148C18.8298 41.7722 15.9466 44.6667 12.4032 44.6667ZM19.8337 36C19.542 35.0158 19.0627 34.113 18.4354 33.3333H22.7362C22.1088 34.113 21.6295 35.0158 21.3378 36H19.8337ZM28.7687 44.6667C25.2252 44.6667 22.3421 41.7722 22.3421 38.2148C22.3421 34.6575 25.2252 31.763 28.7687 31.763C32.3121 31.763 35.1953 34.6575 35.1953 38.2148C35.1953 41.7722 32.3121 44.6667 28.7687 44.6667ZM34.801 33.3333H38.5156V36H36.1994C35.9077 35.0158 35.4284 34.113 34.801 33.3333ZM39.8438 36.6667V33.3333C39.8438 32.9655 40.1414 32.6667 40.5078 32.6667V37.3333C40.1414 37.3333 39.8438 37.0345 39.8438 36.6667ZM47.8125 36.6667C47.8125 37.0345 47.5148 37.3333 47.1484 37.3333V32.6667C47.5148 32.6667 47.8125 32.9655 47.8125 33.3333V36.6667ZM51.7268 36.3685C51.6139 36.1427 51.3845 36 51.1328 36H49.1406V34H53.125V37.3333H52.2074L51.7268 36.3685ZM69.5126 44.6667C65.9691 44.6667 63.0859 41.7722 63.0859 38.2148C63.0859 34.6575 65.9691 31.763 69.5126 31.763C73.056 31.763 75.9392 34.6575 75.9392 38.2148C75.9392 41.7722 73.056 44.6667 69.5126 44.6667ZM77.214 37.3333C77.1624 36.8757 77.0708 36.4303 76.9433 36H83.6719V37.3333H77.214Z" fill="#273257"/>
<path d="M69.5126 33.989C67.1917 33.989 65.3032 35.8848 65.3032 38.2148C65.3032 40.5448 67.1917 42.4407 69.5126 42.4407C71.8335 42.4407 73.7219 40.5448 73.7219 38.2148C73.7219 35.8848 71.8335 33.989 69.5126 33.989ZM69.5126 41.1075C67.9238 41.1075 66.6314 39.81 66.6314 38.215C66.6314 36.62 67.9238 35.3225 69.5126 35.3225C71.1013 35.3225 72.3938 36.62 72.3938 38.215C72.3938 39.81 71.1013 41.1075 69.5126 41.1075Z" fill="#273257"/>
<path d="M70.3056 36.1693H68.72C68.4826 36.1693 68.2635 36.2963 68.1448 36.5027L67.3517 37.8815C67.233 38.0878 67.233 38.3418 67.3517 38.5482L68.1448 39.9265C68.2635 40.1328 68.4826 40.2598 68.72 40.2598H70.3056C70.543 40.2598 70.7622 40.1328 70.8809 39.9265L71.6733 38.5482C71.792 38.3418 71.792 38.0878 71.6733 37.8815L70.8809 36.5027C70.7622 36.2962 70.543 36.1693 70.3056 36.1693ZM69.9225 38.9265H69.1033L68.6941 38.2148L69.1033 37.5027H69.9225L70.3317 38.2148L69.9225 38.9265Z" fill="#273257"/>
<path d="M12.4032 33.989C10.0823 33.989 8.19387 35.8848 8.19387 38.2148C8.19387 40.5448 10.0823 42.4407 12.4032 42.4407C14.7241 42.4407 16.6125 40.5448 16.6125 38.2148C16.6125 35.8848 14.7241 33.989 12.4032 33.989ZM12.4032 41.1075C10.8144 41.1075 9.52199 39.81 9.52199 38.215C9.52199 36.62 10.8144 35.3225 12.4032 35.3225C13.992 35.3225 15.2844 36.62 15.2844 38.215C15.2844 39.81 13.992 41.1075 12.4032 41.1075Z" fill="#273257"/>
<path d="M13.1962 36.1693H11.6106C11.3732 36.1693 11.1541 36.2963 11.0354 36.5027L10.2423 37.8815C10.1236 38.0878 10.1236 38.3418 10.2423 38.5482L11.0354 39.9265C11.1541 40.1328 11.3732 40.2598 11.6106 40.2598H13.1962C13.4337 40.2598 13.6528 40.1328 13.7715 39.9265L14.5639 38.5482C14.6826 38.3418 14.6826 38.0878 14.5639 37.8815L13.7715 36.5027C13.6528 36.2962 13.4337 36.1693 13.1962 36.1693ZM12.8131 38.9265H11.994L11.5847 38.2148L11.994 37.5027H12.8131L13.2223 38.2148L12.8131 38.9265Z" fill="#273257"/>
<path d="M28.7687 33.989C26.4478 33.989 24.5594 35.8848 24.5594 38.2148C24.5594 40.5448 26.4478 42.4407 28.7687 42.4407C31.0896 42.4407 32.978 40.5448 32.978 38.2148C32.978 35.8848 31.0897 33.989 28.7687 33.989ZM28.7687 41.1075C27.1799 41.1075 25.8875 39.81 25.8875 38.215C25.8875 36.62 27.1799 35.3225 28.7687 35.3225C30.3575 35.3225 31.6499 36.62 31.6499 38.215C31.6499 39.81 30.3575 41.1075 28.7687 41.1075Z" fill="#273257"/>
<path d="M29.5611 36.1693H27.9755C27.7381 36.1693 27.5189 36.2963 27.4002 36.5027L26.6078 37.8815C26.4891 38.0878 26.4891 38.3418 26.6078 38.5482L27.4002 39.9265C27.5189 40.1328 27.7381 40.2598 27.9755 40.2598H29.5611C29.7985 40.2598 30.0176 40.1328 30.1363 39.9265L30.9294 38.5482C31.0481 38.3418 31.0481 38.0878 30.9294 37.8815L30.1363 36.5027C30.0176 36.2962 29.7985 36.1693 29.5611 36.1693ZM29.1779 38.9265H28.3588L27.9496 38.2148L28.3588 37.5027H29.1779L29.5871 38.2148L29.1779 38.9265Z" fill="#273257"/>
<path d="M61.0938 17.3333V26C61.0938 26.3685 61.3908 26.6667 61.7578 26.6667C62.1249 26.6667 62.4219 26.3685 62.4219 26V17.3333H63.75C64.4821 17.3333 65.0781 16.735 65.0781 16V9.59183C65.0781 9.16416 64.8719 8.75983 64.5263 8.50983C64.1813 8.25917 63.7339 8.1895 63.3298 8.32683L61.7987 8.83917C60.5828 9.246 59.7656 10.3842 59.7656 11.6712V16C59.7656 16.735 60.3616 17.3333 61.0938 17.3333ZM61.0938 11.6712C61.0938 10.959 61.5458 10.3293 62.2188 10.1035L63.75 9.59183V16H61.0938V11.6712Z" fill="#273257"/>
<path d="M53.125 29.3333H55.1172C55.4842 29.3333 55.7812 29.0352 55.7812 28.6667C55.7812 28.2982 55.4842 28 55.1172 28H53.125C52.7579 28 52.4609 28.2982 52.4609 28.6667C52.4609 29.0352 52.7579 29.3333 53.125 29.3333Z" fill="#273257"/>
</svg>
