<svg width="60" height="58" viewBox="0 0 60 58" fill="none" xmlns="http://www.w3.org/2000/svg">
<path d="M58.9109 51.4276C58.6897 49.8751 53.112 14.1357 52.5101 9.72292C52.2092 7.4984 50.2855 5.79684 47.9858 5.79684H42.4923V3.1973C42.4923 1.98574 41.4999 1 40.28 1H39.8262C38.6063 1 37.614 1.98574 37.614 3.1973V5.79672H28.4244V3.1973C28.4244 1.98574 27.4319 1 26.2121 1H25.7583C24.5384 1 23.546 1.98574 23.546 3.1973V5.79672H14.3564V3.1973C14.3564 1.98574 13.364 1 12.1442 1H11.6904C10.4704 1 9.47808 1.98574 9.47808 3.1973V5.79672H5.56659C3.04858 5.79672 1 7.83144 1 10.3323C1 11.6201 1 51.8252 1 52.4643C1 54.9653 3.04858 57 5.56659 57C6.32218 57 53.6087 57 54.4945 57C56.3975 57 58.1192 55.8091 58.7765 54.0428C58.866 53.8076 59.1398 52.9255 58.9109 51.4276ZM39.3158 3.1973C39.3158 2.9177 39.5447 2.6902 39.8264 2.6902H40.2802C40.5617 2.6902 40.7907 2.9177 40.7907 3.1973V10.7096C40.7907 10.9892 40.5617 11.2167 40.2802 11.2167H39.8264C39.5447 11.2167 39.3158 10.9892 39.3158 10.7096V3.1973ZM38.1269 12.1148C38.1661 12.1615 38.2077 12.2059 38.2505 12.2491C38.2575 12.2562 38.2644 12.2634 38.2716 12.2704C38.3152 12.3133 38.3607 12.3542 38.4078 12.3933C38.4165 12.4005 38.4251 12.4075 38.4338 12.4146C38.4816 12.4533 38.5309 12.4901 38.582 12.5247C38.5898 12.5299 38.5978 12.535 38.6057 12.5402C38.6593 12.5754 38.714 12.6091 38.7707 12.6398C38.7736 12.6413 38.7767 12.6427 38.7796 12.6444C38.836 12.6745 38.8939 12.7022 38.9532 12.7275C38.9595 12.7302 38.9656 12.7331 38.972 12.7358C39.0307 12.7603 39.0908 12.7819 39.1518 12.8013C39.162 12.8046 39.172 12.808 39.1824 12.811C39.2425 12.8292 39.3038 12.8448 39.366 12.858C39.377 12.8604 39.388 12.8625 39.3991 12.8647C39.4624 12.877 39.5265 12.8871 39.5916 12.8939C39.6002 12.8948 39.6089 12.8953 39.6175 12.8962C39.6863 12.9026 39.7558 12.9066 39.8262 12.9066H40.28C40.3505 12.9066 40.4199 12.9026 40.4888 12.8962C40.4974 12.8954 40.5062 12.8949 40.5147 12.8939C40.5798 12.8871 40.6439 12.877 40.7072 12.8647C40.7183 12.8625 40.7293 12.8604 40.7403 12.858C40.8026 12.8449 40.8639 12.8293 40.9239 12.811C40.9341 12.8078 40.9443 12.8045 40.9545 12.8013C41.0156 12.7819 41.0757 12.7603 41.1343 12.7358C41.1406 12.7331 41.1468 12.7302 41.1531 12.7275C41.2123 12.7022 41.2704 12.6745 41.3267 12.6444C41.3296 12.6428 41.3327 12.6414 41.3356 12.6398C41.3924 12.6091 41.447 12.5754 41.5005 12.5402C41.5085 12.535 41.5165 12.5299 41.5243 12.5247C41.5754 12.4901 41.6246 12.4532 41.6725 12.4146C41.6812 12.4075 41.6898 12.4005 41.6984 12.3933C41.7456 12.3541 41.791 12.3133 41.8347 12.2704C41.8419 12.2634 41.8488 12.2562 41.8558 12.2491C41.8984 12.2059 41.94 12.1615 41.9792 12.1148C41.9806 12.1453 41.9814 12.1757 41.9814 12.2063C41.9814 13.2626 41.1163 14.1219 40.0527 14.1219C38.9892 14.1219 38.1241 13.2626 38.1241 12.2063C38.1246 12.1757 38.1253 12.1453 38.1269 12.1148ZM25.248 3.1973C25.248 2.9177 25.4769 2.6902 25.7585 2.6902H26.2123C26.4938 2.6902 26.7229 2.9177 26.7229 3.1973V10.7096C26.7229 10.9892 26.4938 11.2167 26.2123 11.2167H25.7585C25.4769 11.2167 25.248 10.9892 25.248 10.7096V3.1973ZM24.0589 12.1148C24.098 12.1615 24.1396 12.2059 24.1824 12.2491C24.1895 12.2562 24.1964 12.2634 24.2035 12.2704C24.2471 12.3133 24.2927 12.3542 24.3398 12.3933C24.3484 12.4005 24.357 12.4075 24.3657 12.4146C24.4135 12.4533 24.4628 12.4901 24.5139 12.5247C24.5217 12.5299 24.5298 12.535 24.5377 12.5402C24.5913 12.5754 24.646 12.6091 24.7026 12.6398C24.7056 12.6413 24.7086 12.6427 24.7116 12.6444C24.768 12.6745 24.826 12.7022 24.8851 12.7275C24.8915 12.7302 24.8976 12.7331 24.9039 12.7358C24.9626 12.7603 25.0228 12.7819 25.0837 12.8013C25.0939 12.8046 25.104 12.808 25.1143 12.811C25.1744 12.8292 25.2357 12.8448 25.2979 12.858C25.3089 12.8604 25.3199 12.8625 25.331 12.8647C25.3943 12.877 25.4584 12.8871 25.5236 12.8939C25.5322 12.8948 25.5408 12.8953 25.5495 12.8962C25.6183 12.9026 25.6878 12.9066 25.7583 12.9066H26.2121C26.2826 12.9066 26.352 12.9026 26.4209 12.8962C26.4295 12.8954 26.4382 12.8949 26.4468 12.8939C26.512 12.8871 26.5761 12.877 26.6394 12.8647C26.6505 12.8625 26.6615 12.8604 26.6725 12.858C26.7348 12.8449 26.7961 12.8293 26.8561 12.811C26.8663 12.8078 26.8765 12.8045 26.8867 12.8013C26.9478 12.7819 27.0079 12.7603 27.0665 12.7358C27.0728 12.7331 27.0789 12.7302 27.0853 12.7275C27.1445 12.7022 27.2025 12.6745 27.2588 12.6444C27.2618 12.6428 27.2648 12.6414 27.2678 12.6398C27.3244 12.6091 27.3791 12.5754 27.4327 12.5402C27.4406 12.535 27.4487 12.5299 27.4565 12.5247C27.5076 12.4901 27.5567 12.4532 27.6047 12.4146C27.6134 12.4075 27.622 12.4005 27.6306 12.3933C27.6777 12.3541 27.7232 12.3133 27.7669 12.2704C27.774 12.2634 27.7809 12.2562 27.788 12.2491C27.8304 12.2059 27.872 12.1615 27.9112 12.1148C27.9127 12.1453 27.9135 12.1757 27.9135 12.2063C27.9135 13.2626 27.0483 14.1219 25.9847 14.1219C24.9211 14.1219 24.056 13.2626 24.056 12.2063C24.0567 12.1757 24.0574 12.1453 24.0589 12.1148ZM11.1799 3.1973C11.1799 2.9177 11.409 2.6902 11.6905 2.6902H12.1443C12.4258 2.6902 12.6548 2.9177 12.6548 3.1973C12.6548 4.60936 12.6548 9.26128 12.6548 10.7096C12.6548 10.9892 12.4258 11.2167 12.1443 11.2167H11.6904C11.4088 11.2167 11.1798 10.9892 11.1798 10.7096C11.1799 10.0303 11.1799 3.92144 11.1799 3.1973ZM10.6347 12.64C10.6376 12.6416 10.6407 12.6429 10.6436 12.6446C10.7 12.6747 10.758 12.7024 10.8172 12.7277C10.8235 12.7304 10.8296 12.7334 10.836 12.7361C10.8947 12.7605 10.9548 12.7821 11.0158 12.8015C11.026 12.8048 11.036 12.8082 11.0462 12.8112C11.1064 12.8295 11.1677 12.845 11.2299 12.8583C11.2409 12.8606 11.2518 12.8628 11.2629 12.8649C11.3263 12.8773 11.3904 12.8873 11.4555 12.8941C11.4641 12.895 11.4727 12.8955 11.4815 12.8964C11.5502 12.9028 11.6198 12.9069 11.6902 12.9069H12.144C12.2145 12.9069 12.2839 12.9028 12.3528 12.8964C12.3614 12.8956 12.3702 12.8952 12.3788 12.8941C12.4439 12.8873 12.508 12.8773 12.5713 12.8649C12.5824 12.8628 12.5934 12.8606 12.6044 12.8583C12.6667 12.8451 12.728 12.8296 12.788 12.8112C12.7982 12.8081 12.8084 12.8047 12.8186 12.8015C12.8797 12.7821 12.9398 12.7605 12.9984 12.7361C13.0048 12.7334 13.0109 12.7304 13.0172 12.7277C13.0765 12.7024 13.1345 12.6747 13.1908 12.6446C13.1937 12.643 13.1968 12.6417 13.1997 12.64C13.2564 12.6094 13.3112 12.5756 13.3646 12.5404C13.3726 12.5352 13.3806 12.5302 13.3884 12.5249C13.4395 12.4903 13.4887 12.4534 13.5366 12.4148C13.5453 12.4077 13.5539 12.4008 13.5626 12.3936C13.6097 12.3543 13.6551 12.3136 13.6988 12.2706C13.706 12.2636 13.7129 12.2564 13.7199 12.2493C13.7625 12.206 13.8041 12.1616 13.8433 12.1149C13.8447 12.1454 13.8455 12.1759 13.8455 12.2065C13.8455 13.2627 12.9804 14.122 11.9168 14.122C10.815 14.122 9.93687 13.2028 9.99045 12.1148C10.1643 12.3213 10.3899 12.5073 10.6347 12.64ZM2.70182 10.3323C2.70182 8.7634 3.987 7.48692 5.56671 7.48692H9.47831V9.53739C7.02872 11.7482 8.60876 15.8122 11.9175 15.8122C13.9193 15.8122 15.5479 14.1946 15.5479 12.2063C15.5479 11.1843 15.1093 10.2165 14.3567 9.53727V7.48703H23.5463V9.5375C22.7936 10.2168 22.355 11.1844 22.355 12.2065C22.355 14.1948 23.9836 15.8123 25.9854 15.8123C27.9872 15.8123 29.6159 14.1947 29.6159 12.2065C29.6159 11.1844 29.1772 10.2166 28.4246 9.53739V7.48703H37.6142V9.5375C36.8616 10.2168 36.4229 11.1844 36.4229 12.2065C36.4229 14.1948 38.0516 15.8123 40.0534 15.8123C42.0553 15.8123 43.6838 14.1947 43.6838 12.2065C43.6838 11.1844 43.2452 10.2166 42.4925 9.53739V7.48703H47.986C49.5657 7.48703 50.851 8.76351 50.851 10.3324V18.9675H2.70182V10.3323ZM57.1825 53.4508C56.7687 54.5628 55.6884 55.3099 54.4944 55.3099H51.5384C52.1719 54.5312 52.5524 53.5413 52.5524 52.4644V41.2711C52.5524 40.8044 52.1714 40.426 51.7015 40.426C51.2316 40.426 50.8507 40.8044 50.8507 41.2711V52.4644C50.8507 54.0334 49.5654 55.3099 47.9857 55.3099H5.56659C3.98689 55.3099 2.70171 54.0334 2.70171 52.4644V23.8129H24.0056C24.4755 23.8129 24.8565 23.4345 24.8565 22.9678C24.8565 22.5011 24.4755 22.1227 24.0056 22.1227H2.70182V20.6578H50.8509V22.1227H27.965C27.4951 22.1227 27.1142 22.5011 27.1142 22.9678C27.1142 23.4345 27.4951 23.8129 27.965 23.8129H50.8509V37.3273C50.8509 37.794 51.2319 38.1724 51.7017 38.1724C52.1716 38.1724 52.5526 37.794 52.5526 37.3273C52.5526 36.6656 52.5526 22.0764 52.5526 21.413L57.2249 51.6583C57.2254 51.6625 57.2261 51.6667 57.2268 51.671C57.4067 52.8365 57.187 53.4389 57.1825 53.4508Z" fill="#273257"/>
<path d="M20.3923 28.1458H17.5909C17.1211 28.1458 16.7401 28.5242 16.7401 28.9909C16.7401 29.4577 17.1211 29.836 17.5909 29.836H20.3923C20.8623 29.836 21.2431 29.4577 21.2431 28.9909C21.2432 28.5242 20.8623 28.1458 20.3923 28.1458Z" fill="#273257"/>
<path d="M28.1803 28.1458H25.3786C24.9087 28.1458 24.5277 28.5242 24.5277 28.9909C24.5277 29.4577 24.9087 29.836 25.3786 29.836H28.1803C28.6503 29.836 29.0311 29.4577 29.0311 28.9909C29.0312 28.5242 28.6504 28.1458 28.1803 28.1458Z" fill="#273257"/>
<path d="M35.9683 28.1458H33.1665C32.6967 28.1458 32.3157 28.5242 32.3157 28.9909C32.3157 29.4577 32.6967 29.836 33.1665 29.836H35.9683C36.4382 29.836 36.8192 29.4577 36.8192 28.9909C36.8193 28.5242 36.4382 28.1458 35.9683 28.1458Z" fill="#273257"/>
<path d="M43.756 28.1458H40.9543C40.4844 28.1458 40.1034 28.5242 40.1034 28.9909C40.1034 29.4577 40.4844 29.836 40.9543 29.836H43.756C44.226 29.836 44.6068 29.4577 44.6068 28.9909C44.6069 28.5242 44.2261 28.1458 43.756 28.1458Z" fill="#273257"/>
<path d="M12.6045 34.9548H9.80286C9.33297 34.9548 8.952 35.3332 8.952 35.7999C8.952 36.2666 9.33297 36.645 9.80286 36.645H12.6045C13.0745 36.645 13.4554 36.2666 13.4554 35.7999C13.4555 35.3331 13.0746 34.9548 12.6045 34.9548Z" fill="#273257"/>
<path d="M20.3923 34.9548H17.5909C17.1211 34.9548 16.7401 35.3332 16.7401 35.7999C16.7401 36.2666 17.1211 36.645 17.5909 36.645H20.3923C20.8623 36.645 21.2431 36.2666 21.2431 35.7999C21.2432 35.3331 20.8623 34.9548 20.3923 34.9548Z" fill="#273257"/>
<path d="M28.1803 34.9548H25.3786C24.9087 34.9548 24.5277 35.3332 24.5277 35.7999C24.5277 36.2666 24.9087 36.645 25.3786 36.645H28.1803C28.6503 36.645 29.0311 36.2666 29.0311 35.7999C29.0312 35.3331 28.6504 34.9548 28.1803 34.9548Z" fill="#273257"/>
<path d="M35.9683 34.9548H33.1665C32.6967 34.9548 32.3157 35.3332 32.3157 35.7999C32.3157 36.2666 32.6967 36.645 33.1665 36.645H35.9683C36.4382 36.645 36.8192 36.2666 36.8192 35.7999C36.8193 35.3331 36.4382 34.9548 35.9683 34.9548Z" fill="#273257"/>
<path d="M43.756 34.9548H40.9543C40.4844 34.9548 40.1034 35.3332 40.1034 35.7999C40.1034 36.2666 40.4844 36.645 40.9543 36.645H43.756C44.226 36.645 44.6068 36.2666 44.6068 35.7999C44.6069 35.3331 44.2261 34.9548 43.756 34.9548Z" fill="#273257"/>
<path d="M12.6045 41.7638H9.80286C9.33297 41.7638 8.952 42.1422 8.952 42.6089C8.952 43.0756 9.33297 43.454 9.80286 43.454H12.6045C13.0745 43.454 13.4554 43.0756 13.4554 42.6089C13.4555 42.1422 13.0746 41.7638 12.6045 41.7638Z" fill="#273257"/>
<path d="M20.3923 41.7638H17.5909C17.1211 41.7638 16.7401 42.1422 16.7401 42.6089C16.7401 43.0756 17.1211 43.454 17.5909 43.454H20.3923C20.8623 43.454 21.2431 43.0756 21.2431 42.6089C21.2432 42.1422 20.8623 41.7638 20.3923 41.7638Z" fill="#273257"/>
<path d="M28.1803 41.7638H25.3786C24.9087 41.7638 24.5277 42.1422 24.5277 42.6089C24.5277 43.0756 24.9087 43.454 25.3786 43.454H28.1803C28.6503 43.454 29.0311 43.0756 29.0311 42.6089C29.0312 42.1422 28.6504 41.7638 28.1803 41.7638Z" fill="#273257"/>
<path d="M35.9683 41.7638H33.1665C32.6967 41.7638 32.3157 42.1422 32.3157 42.6089C32.3157 43.0756 32.6967 43.454 33.1665 43.454H35.9683C36.4382 43.454 36.8192 43.0756 36.8192 42.6089C36.8193 42.1422 36.4382 41.7638 35.9683 41.7638Z" fill="#273257"/>
<path d="M43.756 41.7638H40.9543C40.4844 41.7638 40.1034 42.1422 40.1034 42.6089C40.1034 43.0756 40.4844 43.454 40.9543 43.454H43.756C44.226 43.454 44.6068 43.0756 44.6068 42.6089C44.6069 42.1422 44.2261 41.7638 43.756 41.7638Z" fill="#273257"/>
<path d="M12.6045 48.573H9.80286C9.33297 48.573 8.952 48.9514 8.952 49.4181C8.952 49.8848 9.33297 50.2632 9.80286 50.2632H12.6045C13.0745 50.2632 13.4554 49.8848 13.4554 49.4181C13.4555 48.9514 13.0746 48.573 12.6045 48.573Z" fill="#273257"/>
<path d="M20.3923 48.573H17.5909C17.1211 48.573 16.7401 48.9514 16.7401 49.4181C16.7401 49.8848 17.1211 50.2632 17.5909 50.2632H20.3923C20.8623 50.2632 21.2431 49.8848 21.2431 49.4181C21.2432 48.9514 20.8623 48.573 20.3923 48.573Z" fill="#273257"/>
<path d="M28.1803 48.573H25.3786C24.9087 48.573 24.5277 48.9514 24.5277 49.4181C24.5277 49.8848 24.9087 50.2632 25.3786 50.2632H28.1803C28.6503 50.2632 29.0311 49.8848 29.0311 49.4181C29.0312 48.9514 28.6504 48.573 28.1803 48.573Z" fill="#273257"/>
<path d="M35.9683 48.573H33.1665C32.6967 48.573 32.3157 48.9514 32.3157 49.4181C32.3157 49.8848 32.6967 50.2632 33.1665 50.2632H35.9683C36.4382 50.2632 36.8192 49.8848 36.8192 49.4181C36.8193 48.9514 36.4382 48.573 35.9683 48.573Z" fill="#273257"/>
<path d="M58.9109 51.4276C58.6897 49.8751 53.112 14.1357 52.5101 9.72292C52.2092 7.4984 50.2855 5.79684 47.9858 5.79684H42.4923V3.1973C42.4923 1.98574 41.4999 1 40.28 1H39.8262C38.6063 1 37.614 1.98574 37.614 3.1973V5.79672H28.4244V3.1973C28.4244 1.98574 27.4319 1 26.2121 1H25.7583C24.5384 1 23.546 1.98574 23.546 3.1973V5.79672H14.3564V3.1973C14.3564 1.98574 13.364 1 12.1442 1H11.6904C10.4704 1 9.47808 1.98574 9.47808 3.1973V5.79672H5.56659C3.04858 5.79672 1 7.83144 1 10.3323C1 11.6201 1 51.8252 1 52.4643C1 54.9653 3.04858 57 5.56659 57C6.32218 57 53.6087 57 54.4945 57C56.3975 57 58.1192 55.8091 58.7765 54.0428C58.866 53.8076 59.1398 52.9255 58.9109 51.4276ZM39.3158 3.1973C39.3158 2.9177 39.5447 2.6902 39.8264 2.6902H40.2802C40.5617 2.6902 40.7907 2.9177 40.7907 3.1973V10.7096C40.7907 10.9892 40.5617 11.2167 40.2802 11.2167H39.8264C39.5447 11.2167 39.3158 10.9892 39.3158 10.7096V3.1973ZM38.1269 12.1148C38.1661 12.1615 38.2077 12.2059 38.2505 12.2491C38.2575 12.2562 38.2644 12.2634 38.2716 12.2704C38.3152 12.3133 38.3607 12.3542 38.4078 12.3933C38.4165 12.4005 38.4251 12.4075 38.4338 12.4146C38.4816 12.4533 38.5309 12.4901 38.582 12.5247C38.5898 12.5299 38.5978 12.535 38.6057 12.5402C38.6593 12.5754 38.714 12.6091 38.7707 12.6398C38.7736 12.6413 38.7767 12.6427 38.7796 12.6444C38.836 12.6745 38.8939 12.7022 38.9532 12.7275C38.9595 12.7302 38.9656 12.7331 38.972 12.7358C39.0307 12.7603 39.0908 12.7819 39.1518 12.8013C39.162 12.8046 39.172 12.808 39.1824 12.811C39.2425 12.8292 39.3038 12.8448 39.366 12.858C39.377 12.8604 39.388 12.8625 39.3991 12.8647C39.4624 12.877 39.5265 12.8871 39.5916 12.8939C39.6002 12.8948 39.6089 12.8953 39.6175 12.8962C39.6863 12.9026 39.7558 12.9066 39.8262 12.9066H40.28C40.3505 12.9066 40.4199 12.9026 40.4888 12.8962C40.4974 12.8954 40.5062 12.8949 40.5147 12.8939C40.5798 12.8871 40.6439 12.877 40.7072 12.8647C40.7183 12.8625 40.7293 12.8604 40.7403 12.858C40.8026 12.8449 40.8639 12.8293 40.9239 12.811C40.9341 12.8078 40.9443 12.8045 40.9545 12.8013C41.0156 12.7819 41.0757 12.7603 41.1343 12.7358C41.1406 12.7331 41.1468 12.7302 41.1531 12.7275C41.2123 12.7022 41.2704 12.6745 41.3267 12.6444C41.3296 12.6428 41.3327 12.6414 41.3356 12.6398C41.3924 12.6091 41.447 12.5754 41.5005 12.5402C41.5085 12.535 41.5165 12.5299 41.5243 12.5247C41.5754 12.4901 41.6246 12.4532 41.6725 12.4146C41.6812 12.4075 41.6898 12.4005 41.6984 12.3933C41.7456 12.3541 41.791 12.3133 41.8347 12.2704C41.8419 12.2634 41.8488 12.2562 41.8558 12.2491C41.8984 12.2059 41.94 12.1615 41.9792 12.1148C41.9806 12.1453 41.9814 12.1757 41.9814 12.2063C41.9814 13.2626 41.1163 14.1219 40.0527 14.1219C38.9892 14.1219 38.1241 13.2626 38.1241 12.2063C38.1246 12.1757 38.1253 12.1453 38.1269 12.1148ZM25.248 3.1973C25.248 2.9177 25.4769 2.6902 25.7585 2.6902H26.2123C26.4938 2.6902 26.7229 2.9177 26.7229 3.1973V10.7096C26.7229 10.9892 26.4938 11.2167 26.2123 11.2167H25.7585C25.4769 11.2167 25.248 10.9892 25.248 10.7096V3.1973ZM24.0589 12.1148C24.098 12.1615 24.1396 12.2059 24.1824 12.2491C24.1895 12.2562 24.1964 12.2634 24.2035 12.2704C24.2471 12.3133 24.2927 12.3542 24.3398 12.3933C24.3484 12.4005 24.357 12.4075 24.3657 12.4146C24.4135 12.4533 24.4628 12.4901 24.5139 12.5247C24.5217 12.5299 24.5298 12.535 24.5377 12.5402C24.5913 12.5754 24.646 12.6091 24.7026 12.6398C24.7056 12.6413 24.7086 12.6427 24.7116 12.6444C24.768 12.6745 24.826 12.7022 24.8851 12.7275C24.8915 12.7302 24.8976 12.7331 24.9039 12.7358C24.9626 12.7603 25.0228 12.7819 25.0837 12.8013C25.0939 12.8046 25.104 12.808 25.1143 12.811C25.1744 12.8292 25.2357 12.8448 25.2979 12.858C25.3089 12.8604 25.3199 12.8625 25.331 12.8647C25.3943 12.877 25.4584 12.8871 25.5236 12.8939C25.5322 12.8948 25.5408 12.8953 25.5495 12.8962C25.6183 12.9026 25.6878 12.9066 25.7583 12.9066H26.2121C26.2826 12.9066 26.352 12.9026 26.4209 12.8962C26.4295 12.8954 26.4382 12.8949 26.4468 12.8939C26.512 12.8871 26.5761 12.877 26.6394 12.8647C26.6505 12.8625 26.6615 12.8604 26.6725 12.858C26.7348 12.8449 26.7961 12.8293 26.8561 12.811C26.8663 12.8078 26.8765 12.8045 26.8867 12.8013C26.9478 12.7819 27.0079 12.7603 27.0665 12.7358C27.0728 12.7331 27.0789 12.7302 27.0853 12.7275C27.1445 12.7022 27.2025 12.6745 27.2588 12.6444C27.2618 12.6428 27.2648 12.6414 27.2678 12.6398C27.3244 12.6091 27.3791 12.5754 27.4327 12.5402C27.4406 12.535 27.4487 12.5299 27.4565 12.5247C27.5076 12.4901 27.5567 12.4532 27.6047 12.4146C27.6134 12.4075 27.622 12.4005 27.6306 12.3933C27.6777 12.3541 27.7232 12.3133 27.7669 12.2704C27.774 12.2634 27.7809 12.2562 27.788 12.2491C27.8304 12.2059 27.872 12.1615 27.9112 12.1148C27.9127 12.1453 27.9135 12.1757 27.9135 12.2063C27.9135 13.2626 27.0483 14.1219 25.9847 14.1219C24.9211 14.1219 24.056 13.2626 24.056 12.2063C24.0567 12.1757 24.0574 12.1453 24.0589 12.1148ZM11.1799 3.1973C11.1799 2.9177 11.409 2.6902 11.6905 2.6902H12.1443C12.4258 2.6902 12.6548 2.9177 12.6548 3.1973C12.6548 4.60936 12.6548 9.26128 12.6548 10.7096C12.6548 10.9892 12.4258 11.2167 12.1443 11.2167H11.6904C11.4088 11.2167 11.1798 10.9892 11.1798 10.7096C11.1799 10.0303 11.1799 3.92144 11.1799 3.1973ZM10.6347 12.64C10.6376 12.6416 10.6407 12.6429 10.6436 12.6446C10.7 12.6747 10.758 12.7024 10.8172 12.7277C10.8235 12.7304 10.8296 12.7334 10.836 12.7361C10.8947 12.7605 10.9548 12.7821 11.0158 12.8015C11.026 12.8048 11.036 12.8082 11.0462 12.8112C11.1064 12.8295 11.1677 12.845 11.2299 12.8583C11.2409 12.8606 11.2518 12.8628 11.2629 12.8649C11.3263 12.8773 11.3904 12.8873 11.4555 12.8941C11.4641 12.895 11.4727 12.8955 11.4815 12.8964C11.5502 12.9028 11.6198 12.9069 11.6902 12.9069H12.144C12.2145 12.9069 12.2839 12.9028 12.3528 12.8964C12.3614 12.8956 12.3702 12.8952 12.3788 12.8941C12.4439 12.8873 12.508 12.8773 12.5713 12.8649C12.5824 12.8628 12.5934 12.8606 12.6044 12.8583C12.6667 12.8451 12.728 12.8296 12.788 12.8112C12.7982 12.8081 12.8084 12.8047 12.8186 12.8015C12.8797 12.7821 12.9398 12.7605 12.9984 12.7361C13.0048 12.7334 13.0109 12.7304 13.0172 12.7277C13.0765 12.7024 13.1345 12.6747 13.1908 12.6446C13.1937 12.643 13.1968 12.6417 13.1997 12.64C13.2564 12.6094 13.3112 12.5756 13.3646 12.5404C13.3726 12.5352 13.3806 12.5302 13.3884 12.5249C13.4395 12.4903 13.4887 12.4534 13.5366 12.4148C13.5453 12.4077 13.5539 12.4008 13.5626 12.3936C13.6097 12.3543 13.6551 12.3136 13.6988 12.2706C13.706 12.2636 13.7129 12.2564 13.7199 12.2493C13.7625 12.206 13.8041 12.1616 13.8433 12.1149C13.8447 12.1454 13.8455 12.1759 13.8455 12.2065C13.8455 13.2627 12.9804 14.122 11.9168 14.122C10.815 14.122 9.93687 13.2028 9.99045 12.1148C10.1643 12.3213 10.3899 12.5073 10.6347 12.64ZM2.70182 10.3323C2.70182 8.7634 3.987 7.48692 5.56671 7.48692H9.47831V9.53739C7.02872 11.7482 8.60876 15.8122 11.9175 15.8122C13.9193 15.8122 15.5479 14.1946 15.5479 12.2063C15.5479 11.1843 15.1093 10.2165 14.3567 9.53727V7.48703H23.5463V9.5375C22.7936 10.2168 22.355 11.1844 22.355 12.2065C22.355 14.1948 23.9836 15.8123 25.9854 15.8123C27.9872 15.8123 29.6159 14.1947 29.6159 12.2065C29.6159 11.1844 29.1772 10.2166 28.4246 9.53739V7.48703H37.6142V9.5375C36.8616 10.2168 36.4229 11.1844 36.4229 12.2065C36.4229 14.1948 38.0516 15.8123 40.0534 15.8123C42.0553 15.8123 43.6838 14.1947 43.6838 12.2065C43.6838 11.1844 43.2452 10.2166 42.4925 9.53739V7.48703H47.986C49.5657 7.48703 50.851 8.76351 50.851 10.3324V18.9675H2.70182V10.3323ZM57.1825 53.4508C56.7687 54.5628 55.6884 55.3099 54.4944 55.3099H51.5384C52.1719 54.5312 52.5524 53.5413 52.5524 52.4644V41.2711C52.5524 40.8044 52.1714 40.426 51.7015 40.426C51.2316 40.426 50.8507 40.8044 50.8507 41.2711V52.4644C50.8507 54.0334 49.5654 55.3099 47.9857 55.3099H5.56659C3.98689 55.3099 2.70171 54.0334 2.70171 52.4644V23.8129H24.0056C24.4755 23.8129 24.8565 23.4345 24.8565 22.9678C24.8565 22.5011 24.4755 22.1227 24.0056 22.1227H2.70182V20.6578H50.8509V22.1227H27.965C27.4951 22.1227 27.1142 22.5011 27.1142 22.9678C27.1142 23.4345 27.4951 23.8129 27.965 23.8129H50.8509V37.3273C50.8509 37.794 51.2319 38.1724 51.7017 38.1724C52.1716 38.1724 52.5526 37.794 52.5526 37.3273C52.5526 36.6656 52.5526 22.0764 52.5526 21.413L57.2249 51.6583C57.2254 51.6625 57.2261 51.6667 57.2268 51.671C57.4067 52.8365 57.187 53.4389 57.1825 53.4508Z" stroke="white" stroke-width="0.3"/>
<path d="M20.3923 28.1458H17.5909C17.1211 28.1458 16.7401 28.5242 16.7401 28.9909C16.7401 29.4577 17.1211 29.836 17.5909 29.836H20.3923C20.8623 29.836 21.2431 29.4577 21.2431 28.9909C21.2432 28.5242 20.8623 28.1458 20.3923 28.1458Z" stroke="white" stroke-width="0.3"/>
<path d="M28.1803 28.1458H25.3786C24.9087 28.1458 24.5277 28.5242 24.5277 28.9909C24.5277 29.4577 24.9087 29.836 25.3786 29.836H28.1803C28.6503 29.836 29.0311 29.4577 29.0311 28.9909C29.0312 28.5242 28.6504 28.1458 28.1803 28.1458Z" stroke="white" stroke-width="0.3"/>
<path d="M35.9683 28.1458H33.1665C32.6967 28.1458 32.3157 28.5242 32.3157 28.9909C32.3157 29.4577 32.6967 29.836 33.1665 29.836H35.9683C36.4382 29.836 36.8192 29.4577 36.8192 28.9909C36.8193 28.5242 36.4382 28.1458 35.9683 28.1458Z" stroke="white" stroke-width="0.3"/>
<path d="M43.756 28.1458H40.9543C40.4844 28.1458 40.1034 28.5242 40.1034 28.9909C40.1034 29.4577 40.4844 29.836 40.9543 29.836H43.756C44.226 29.836 44.6068 29.4577 44.6068 28.9909C44.6069 28.5242 44.2261 28.1458 43.756 28.1458Z" stroke="white" stroke-width="0.3"/>
<path d="M12.6045 34.9548H9.80286C9.33297 34.9548 8.952 35.3332 8.952 35.7999C8.952 36.2666 9.33297 36.645 9.80286 36.645H12.6045C13.0745 36.645 13.4554 36.2666 13.4554 35.7999C13.4555 35.3331 13.0746 34.9548 12.6045 34.9548Z" stroke="white" stroke-width="0.3"/>
<path d="M20.3923 34.9548H17.5909C17.1211 34.9548 16.7401 35.3332 16.7401 35.7999C16.7401 36.2666 17.1211 36.645 17.5909 36.645H20.3923C20.8623 36.645 21.2431 36.2666 21.2431 35.7999C21.2432 35.3331 20.8623 34.9548 20.3923 34.9548Z" stroke="white" stroke-width="0.3"/>
<path d="M28.1803 34.9548H25.3786C24.9087 34.9548 24.5277 35.3332 24.5277 35.7999C24.5277 36.2666 24.9087 36.645 25.3786 36.645H28.1803C28.6503 36.645 29.0311 36.2666 29.0311 35.7999C29.0312 35.3331 28.6504 34.9548 28.1803 34.9548Z" stroke="white" stroke-width="0.3"/>
<path d="M35.9683 34.9548H33.1665C32.6967 34.9548 32.3157 35.3332 32.3157 35.7999C32.3157 36.2666 32.6967 36.645 33.1665 36.645H35.9683C36.4382 36.645 36.8192 36.2666 36.8192 35.7999C36.8193 35.3331 36.4382 34.9548 35.9683 34.9548Z" stroke="white" stroke-width="0.3"/>
<path d="M43.756 34.9548H40.9543C40.4844 34.9548 40.1034 35.3332 40.1034 35.7999C40.1034 36.2666 40.4844 36.645 40.9543 36.645H43.756C44.226 36.645 44.6068 36.2666 44.6068 35.7999C44.6069 35.3331 44.2261 34.9548 43.756 34.9548Z" stroke="white" stroke-width="0.3"/>
<path d="M12.6045 41.7638H9.80286C9.33297 41.7638 8.952 42.1422 8.952 42.6089C8.952 43.0756 9.33297 43.454 9.80286 43.454H12.6045C13.0745 43.454 13.4554 43.0756 13.4554 42.6089C13.4555 42.1422 13.0746 41.7638 12.6045 41.7638Z" stroke="white" stroke-width="0.3"/>
<path d="M20.3923 41.7638H17.5909C17.1211 41.7638 16.7401 42.1422 16.7401 42.6089C16.7401 43.0756 17.1211 43.454 17.5909 43.454H20.3923C20.8623 43.454 21.2431 43.0756 21.2431 42.6089C21.2432 42.1422 20.8623 41.7638 20.3923 41.7638Z" stroke="white" stroke-width="0.3"/>
<path d="M28.1803 41.7638H25.3786C24.9087 41.7638 24.5277 42.1422 24.5277 42.6089C24.5277 43.0756 24.9087 43.454 25.3786 43.454H28.1803C28.6503 43.454 29.0311 43.0756 29.0311 42.6089C29.0312 42.1422 28.6504 41.7638 28.1803 41.7638Z" stroke="white" stroke-width="0.3"/>
<path d="M35.9683 41.7638H33.1665C32.6967 41.7638 32.3157 42.1422 32.3157 42.6089C32.3157 43.0756 32.6967 43.454 33.1665 43.454H35.9683C36.4382 43.454 36.8192 43.0756 36.8192 42.6089C36.8193 42.1422 36.4382 41.7638 35.9683 41.7638Z" stroke="white" stroke-width="0.3"/>
<path d="M43.756 41.7638H40.9543C40.4844 41.7638 40.1034 42.1422 40.1034 42.6089C40.1034 43.0756 40.4844 43.454 40.9543 43.454H43.756C44.226 43.454 44.6068 43.0756 44.6068 42.6089C44.6069 42.1422 44.2261 41.7638 43.756 41.7638Z" stroke="white" stroke-width="0.3"/>
<path d="M12.6045 48.573H9.80286C9.33297 48.573 8.952 48.9514 8.952 49.4181C8.952 49.8848 9.33297 50.2632 9.80286 50.2632H12.6045C13.0745 50.2632 13.4554 49.8848 13.4554 49.4181C13.4555 48.9514 13.0746 48.573 12.6045 48.573Z" stroke="white" stroke-width="0.3"/>
<path d="M20.3923 48.573H17.5909C17.1211 48.573 16.7401 48.9514 16.7401 49.4181C16.7401 49.8848 17.1211 50.2632 17.5909 50.2632H20.3923C20.8623 50.2632 21.2431 49.8848 21.2431 49.4181C21.2432 48.9514 20.8623 48.573 20.3923 48.573Z" stroke="white" stroke-width="0.3"/>
<path d="M28.1803 48.573H25.3786C24.9087 48.573 24.5277 48.9514 24.5277 49.4181C24.5277 49.8848 24.9087 50.2632 25.3786 50.2632H28.1803C28.6503 50.2632 29.0311 49.8848 29.0311 49.4181C29.0312 48.9514 28.6504 48.573 28.1803 48.573Z" stroke="white" stroke-width="0.3"/>
<path d="M35.9683 48.573H33.1665C32.6967 48.573 32.3157 48.9514 32.3157 49.4181C32.3157 49.8848 32.6967 50.2632 33.1665 50.2632H35.9683C36.4382 50.2632 36.8192 49.8848 36.8192 49.4181C36.8193 48.9514 36.4382 48.573 35.9683 48.573Z" stroke="white" stroke-width="0.3"/>
</svg>
