<svg width="73" height="73" viewBox="0 0 73 73" fill="none" xmlns="http://www.w3.org/2000/svg">
<path d="M2.00607 49.8243H48.218C48.7736 49.8243 49.224 49.3739 49.224 48.8183V25.7124C49.224 25.3636 49.0434 25.0396 48.7466 24.8564L27.8967 11.9807C27.991 11.6935 28.0436 11.3877 28.0436 11.0693C28.0436 10.5137 27.5931 10.0633 27.0375 10.0633C26.5592 10.0633 26.1595 10.3974 26.0574 10.8448L25.6406 10.5874C25.3167 10.3875 24.9074 10.3875 24.5835 10.5874L24.2319 10.8046C24.3458 10.4263 24.6971 10.1498 25.1122 10.1498C25.6678 10.1498 26.1182 9.69935 26.1182 9.14371V7.59149C27.1878 7.18417 27.951 6.15094 27.951 4.9402C27.951 3.72947 27.1877 2.69609 26.1182 2.28878V2.00607C26.1182 1.45043 25.6678 1 25.1122 1C24.5565 1 24.1061 1.45043 24.1061 2.00607V2.28878C23.0365 2.69609 22.2732 3.72947 22.2732 4.9402C22.2732 6.15094 23.0365 7.18417 24.1061 7.59149V8.31557C22.9837 8.72691 22.1806 9.80614 22.1806 11.0693C22.1806 11.3877 22.2332 11.6935 22.3275 11.9807L1.47745 24.8564C1.18066 25.0396 1 25.3636 1 25.7124V48.8183C1 49.3739 1.45043 49.8243 2.00607 49.8243ZM25.112 5.76691C24.6561 5.76691 24.2852 5.3961 24.2852 4.9402C24.2852 4.48431 24.6561 4.11336 25.112 4.11336C25.5679 4.11336 25.9387 4.48431 25.9387 4.9402C25.9387 5.3961 25.5679 5.76691 25.112 5.76691ZM3.01215 47.8122V26.7185H47.2119V47.8122H3.01215ZM25.112 14.001C25.6713 14.001 26.1924 13.8408 26.6375 13.568L44.674 24.7063H5.5499L23.5864 13.568C24.0316 13.8408 24.5529 14.001 25.112 14.001ZM26.118 30.9823V43.7438C26.118 44.2994 25.6675 44.7499 25.1119 44.7499C24.5562 44.7499 24.1058 44.2994 24.1058 43.7438V30.9823C24.1058 30.4267 24.5562 29.9763 25.1119 29.9763C25.6675 29.9763 26.118 30.4267 26.118 30.9823ZM32.0614 30.9823V43.7438C32.0614 44.2994 31.611 44.7499 31.0553 44.7499C30.4997 44.7499 30.0493 44.2994 30.0493 43.7438V30.9823C30.0493 30.4267 30.4997 29.9763 31.0553 29.9763C31.611 29.9763 32.0614 30.4267 32.0614 30.9823ZM8.28772 30.7869V43.5483C8.28772 44.104 7.83729 44.5544 7.28164 44.5544C6.726 44.5544 6.27557 44.104 6.27557 43.5483V30.7869C6.27557 30.2312 6.726 29.7808 7.28164 29.7808C7.83729 29.7808 8.28772 30.2311 8.28772 30.7869ZM38.0049 30.9823V43.7438C38.0049 44.2994 37.5544 44.7499 36.9988 44.7499C36.4432 44.7499 35.9927 44.2994 35.9927 43.7438V30.9823C35.9927 30.4267 36.4432 29.9763 36.9988 29.9763C37.5544 29.9763 38.0049 30.4267 38.0049 30.9823ZM14.2312 30.7869V43.5483C14.2312 44.104 13.7807 44.5544 13.2251 44.5544C12.6695 44.5544 12.219 44.104 12.219 43.5483V30.7869C12.219 30.2312 12.6695 29.7808 13.2251 29.7808C13.7807 29.7808 14.2312 30.2311 14.2312 30.7869ZM20.1746 30.9823V43.7438C20.1746 44.2994 19.7242 44.7499 19.1686 44.7499C18.6129 44.7499 18.1625 44.2994 18.1625 43.7438V30.9823C18.1625 30.4267 18.6129 29.9763 19.1686 29.9763C19.7242 29.9763 20.1746 30.4267 20.1746 30.9823ZM43.9483 30.9823V43.7438C43.9483 44.2994 43.4979 44.7499 42.9423 44.7499C42.3866 44.7499 41.9362 44.2994 41.9362 43.7438V30.9823C41.9362 30.4267 42.3866 29.9763 42.9423 29.9763C43.4979 29.9763 43.9483 30.4267 43.9483 30.9823ZM71.5353 54.6118L67.6004 48.535C67.0567 47.6956 66.1715 47.2143 65.1715 47.2143H55.3545C54.7989 47.2143 54.3484 47.6647 54.3484 48.2204V61.4903H49.224V58.7755C49.224 58.2198 48.7736 57.7694 48.218 57.7694H2.00607C1.45043 57.7694 1 58.2198 1 58.7755V62.4964C1 63.052 1.45043 63.5024 2.00607 63.5024H4.89049C4.18725 64.3963 3.76613 65.522 3.76613 66.7451C3.76613 69.6426 6.12351 72 9.021 72C11.9185 72 14.2757 69.6428 14.2757 66.7451C14.2757 65.5222 13.8546 64.3964 13.1514 63.5024H15.8566C15.1533 64.3963 14.7322 65.522 14.7322 66.7451C14.7322 69.6426 17.0894 72 19.9871 72C22.8847 72 25.242 69.6428 25.242 66.7451C25.242 65.5222 24.8208 64.3964 24.1176 63.5024H41.076C40.3727 64.3963 39.9516 65.522 39.9516 66.7451C39.9516 69.6426 42.3089 72 45.2065 72C47.1038 72 48.7692 70.9892 49.693 69.4779H57.4272C58.3507 70.9889 60.0162 71.9999 61.9134 71.9999C63.8106 71.9999 65.476 70.989 66.3999 69.4778H69.5292C70.8916 69.4778 72 68.3694 72 67.0072V56.1849C72.0001 55.6092 71.8479 55.0944 71.5353 54.6118ZM3.01215 59.7816H47.2119V61.4903H3.01215V59.7816ZM12.2636 66.745C12.2636 68.5329 10.8089 69.9877 9.021 69.9877C7.23292 69.9877 5.77828 68.5331 5.77828 66.745C5.77828 64.9569 7.23292 63.5023 9.021 63.5023C10.8089 63.5023 12.2636 64.9571 12.2636 66.745ZM23.2295 66.745C23.2295 68.5329 21.7749 69.9877 19.9868 69.9877C18.1987 69.9877 16.7441 68.5331 16.7441 66.745C16.7441 64.9569 18.1987 63.5023 19.9868 63.5023C21.7749 63.5023 23.2295 64.9571 23.2295 66.745ZM45.2061 69.9877C43.4181 69.9877 41.9633 68.5331 41.9633 66.745C41.9633 64.9569 43.418 63.5023 45.2061 63.5023C46.9942 63.5023 48.4488 64.9569 48.4488 66.745C48.4488 68.5331 46.9942 69.9877 45.2061 69.9877ZM49.3364 63.5023H54.3483V67.4655H50.4102C50.4427 67.2298 50.4608 66.9895 50.4608 66.7449C50.4609 65.522 50.0398 64.3963 49.3364 63.5023ZM56.6587 66.745C56.6587 66.9895 56.6768 67.2298 56.7092 67.4656H56.3604V49.2263H65.1713C65.4895 49.2263 65.7385 49.3617 65.9114 49.6287L69.8463 55.7057C69.9482 55.8629 69.9879 55.9971 69.9879 56.1847V60.258H69.4252C68.8695 60.258 68.4191 60.7084 68.4191 61.2641C68.4191 61.8197 68.8695 62.2701 69.4252 62.2701H69.988V64.0124H66.4C65.4762 62.5011 63.8107 61.4902 61.9134 61.4902C59.0159 61.4902 56.6587 63.8475 56.6587 66.745ZM61.9134 69.9877C60.1254 69.9877 58.6707 68.5331 58.6707 66.745C58.6707 64.9569 60.1253 63.5023 61.9134 63.5023C63.7015 63.5023 65.1561 64.9569 65.1561 66.745C65.1561 68.5331 63.7015 69.9877 61.9134 69.9877ZM69.5294 67.4656H67.1177C67.1501 67.2299 67.1683 66.9896 67.1683 66.745C67.1683 66.5005 67.1501 66.2602 67.1177 66.0245H69.988V67.007C69.988 67.26 69.7822 67.4656 69.5294 67.4656ZM67.814 55.6295C67.9902 55.3057 67.975 54.9116 67.7748 54.6022L65.2343 50.6789C65.0489 50.3926 64.731 50.2197 64.3898 50.2197H59.4432C58.8875 50.2197 58.4371 50.6701 58.4371 51.2258V55.149C58.4371 55.7047 58.8875 56.1551 59.4432 56.1551H66.9302C67.2988 56.155 67.6378 55.9535 67.814 55.6295ZM60.4493 54.1428V52.2317H63.8426L65.0801 54.1428H60.4493ZM18.8761 66.745C18.8761 66.1314 19.3734 65.6342 19.9869 65.6342C20.6005 65.6342 21.0978 66.1314 21.0978 66.745C21.0978 67.3584 20.6005 67.8558 19.9869 67.8558C19.3734 67.8558 18.8761 67.3586 18.8761 66.745ZM7.91001 66.745C7.91001 66.1314 8.40744 65.6342 9.02086 65.6342C9.63442 65.6342 10.1317 66.1314 10.1317 66.745C10.1317 67.3584 9.63442 67.8558 9.02086 67.8558C8.40744 67.8558 7.91001 67.3586 7.91001 66.745ZM46.3169 66.745C46.3169 67.3584 45.8195 67.8558 45.2061 67.8558C44.5925 67.8558 44.0952 67.3586 44.0952 66.745C44.0952 66.1314 44.5925 65.6342 45.2061 65.6342C45.8196 65.6342 46.3169 66.1314 46.3169 66.745ZM63.0242 66.745C63.0242 67.3584 62.5268 67.8558 61.9134 67.8558C61.2998 67.8558 60.8025 67.3586 60.8025 66.745C60.8025 66.1314 61.2998 65.6342 61.9134 65.6342C62.5269 65.6342 63.0242 66.1314 63.0242 66.745Z" fill="#273257" stroke="white" stroke-width="0.5"/>
</svg>
