<svg width="58" height="58" viewBox="0 0 58 58" fill="none" xmlns="http://www.w3.org/2000/svg">
<path d="M48.7991 9.20094C43.5105 3.91255 36.4791 1 29 1C21.5209 1 14.4895 3.91255 9.20094 9.20094C3.91255 14.4895 1 21.5209 1 29C1 36.4791 3.91255 43.5105 9.20094 48.7991C14.4895 54.0875 21.5209 57 29 57C36.4791 57 43.5105 54.0875 48.7991 48.7991C54.0875 43.5105 57 36.4791 57 29C57 21.5209 54.0875 14.4895 48.7991 9.20094ZM47.6389 47.6389C42.6603 52.6176 36.0409 55.3594 29 55.3594C21.9591 55.3594 15.3397 52.6176 10.3611 47.6389C5.38244 42.6603 2.64062 36.0409 2.64062 29C2.64062 21.9591 5.38244 15.3397 10.3611 10.3611C15.3397 5.38244 21.9591 2.64062 29 2.64062C36.0409 2.64062 42.6603 5.38244 47.6389 10.3611C52.6176 15.3397 55.3594 21.9591 55.3594 29C55.3594 36.0409 52.6176 42.6603 47.6389 47.6389Z" fill="#273257"/>
<path d="M29 9.76761C28.547 9.76761 28.1797 10.1349 28.1797 10.5879V14.0949C28.1797 14.548 28.547 14.9152 29 14.9152C29.453 14.9152 29.8203 14.5481 29.8203 14.095V10.5879C29.8203 10.1349 29.453 9.76761 29 9.76761Z" fill="#273257"/>
<path d="M29 43.0847C28.547 43.0847 28.1797 43.4519 28.1797 43.905V47.412C28.1797 47.865 28.547 48.2323 29 48.2323C29.453 48.2323 29.8203 47.865 29.8203 47.412V43.905C29.8203 43.4519 29.453 43.0847 29 43.0847Z" fill="#273257"/>
<path d="M47.4121 28.1797H43.9051C43.452 28.1797 43.0848 28.547 43.0848 29C43.0848 29.453 43.452 29.8203 43.9051 29.8203H47.4121C47.8651 29.8203 48.2324 29.453 48.2324 29C48.2324 28.547 47.8651 28.1797 47.4121 28.1797Z" fill="#273257"/>
<path d="M14.0949 28.1797H10.5879C10.1349 28.1797 9.76761 28.547 9.76761 29C9.76761 29.453 10.1349 29.8203 10.5879 29.8203H14.0949C14.548 29.8203 14.9152 29.453 14.9152 29C14.9152 28.547 14.548 28.1797 14.0949 28.1797Z" fill="#273257"/>
<path d="M14.9835 19.9604L13.4649 19.0836C13.0725 18.857 12.5709 18.9915 12.3444 19.3839C12.1179 19.7762 12.2523 20.2779 12.6446 20.5044L14.1632 21.3812C14.2923 21.4557 14.4334 21.4912 14.5726 21.4912C14.8561 21.4912 15.1318 21.344 15.2837 21.0809C15.5102 20.6886 15.3758 20.1869 14.9835 19.9604Z" fill="#273257"/>
<path d="M45.3554 37.4956L43.8368 36.6188C43.4445 36.3922 42.9428 36.5268 42.7163 36.9191C42.4898 37.3114 42.6242 37.8131 43.0165 38.0396L44.5351 38.9164C44.6642 38.991 44.8053 39.0264 44.9445 39.0264C45.228 39.0264 45.5037 38.8792 45.6556 38.6161C45.8821 38.2238 45.7477 37.7221 45.3554 37.4956Z" fill="#273257"/>
<path d="M38.6161 12.3444C38.2238 12.1178 37.7221 12.2523 37.4956 12.6446L36.6188 14.1632C36.3923 14.5555 36.5268 15.0572 36.9191 15.2837C37.0483 15.3583 37.1893 15.3938 37.3285 15.3938C37.612 15.3938 37.8877 15.2465 38.0396 14.9835L38.9164 13.4649C39.1429 13.0726 39.0085 12.5709 38.6161 12.3444Z" fill="#273257"/>
<path d="M21.0809 42.7163C20.6885 42.4897 20.1868 42.6242 19.9604 43.0165L19.0836 44.5351C18.8571 44.9274 18.9915 45.4291 19.3839 45.6556C19.513 45.7302 19.6541 45.7657 19.7933 45.7657C20.0767 45.7657 20.3525 45.6184 20.5044 45.3554L21.3812 43.8368C21.6077 43.4445 21.4732 42.9428 21.0809 42.7163Z" fill="#273257"/>
<path d="M45.6557 19.3838C45.4292 18.9914 44.9274 18.857 44.5352 19.0835L43.0166 19.9603C42.6243 20.1868 42.4899 20.6885 42.7164 21.0808C42.8683 21.344 43.144 21.4911 43.4275 21.4911C43.5667 21.4911 43.7078 21.4556 43.8369 21.381L45.3555 20.5043C45.7478 20.2778 45.8823 19.7761 45.6557 19.3838Z" fill="#273257"/>
<path d="M15.2837 36.9191C15.0572 36.5266 14.5555 36.3922 14.1632 36.6188L12.6446 37.4956C12.2523 37.7221 12.1179 38.2238 12.3444 38.6161C12.4963 38.8793 12.772 39.0264 13.0555 39.0264C13.1947 39.0264 13.3357 38.991 13.4649 38.9164L14.9835 38.0396C15.3758 37.8132 15.5102 37.3115 15.2837 36.9191Z" fill="#273257"/>
<path d="M21.3812 14.1632L20.5044 12.6446C20.2779 12.2522 19.7762 12.1178 19.3839 12.3444C18.9915 12.5709 18.8571 13.0726 19.0836 13.4649L19.9604 14.9835C20.1123 15.2466 20.388 15.3938 20.6715 15.3938C20.8107 15.3938 20.9517 15.3583 21.0809 15.2837C21.4732 15.0572 21.6077 14.5555 21.3812 14.1632Z" fill="#273257"/>
<path d="M38.9164 44.5351L38.0396 43.0165C37.8132 42.6242 37.3114 42.4897 36.9191 42.7163C36.5268 42.9428 36.3923 43.4445 36.6188 43.8368L37.4956 45.3554C37.6475 45.6185 37.9232 45.7657 38.2067 45.7657C38.3459 45.7657 38.487 45.7302 38.6161 45.6556C39.0085 45.4291 39.1429 44.9274 38.9164 44.5351Z" fill="#273257"/>
<path d="M41.2087 27.1217C41.1399 26.674 40.7218 26.3668 40.2732 26.4357L31.2855 27.8184C30.8566 26.9922 29.9935 26.4262 29.0001 26.4262C28.5892 26.4262 28.2007 26.5235 27.8557 26.6956L19.059 17.8989C18.7387 17.5785 18.2192 17.5785 17.899 17.8989C17.5786 18.2192 17.5786 18.7387 17.899 19.0589L26.6957 27.8556C26.5236 28.2006 26.4263 28.5891 26.4263 29C26.4263 30.4193 27.581 31.5738 29.0001 31.5738C30.2693 31.5738 31.3262 30.6501 31.5355 29.4399L40.5228 28.0573C40.9704 27.9883 41.2776 27.5695 41.2087 27.1217ZM29 29.9332C28.4854 29.9332 28.0668 29.5145 28.0668 29C28.0668 28.4855 28.4855 28.0668 29 28.0668C29.5145 28.0668 29.9332 28.4855 29.9332 29C29.9332 29.5145 29.5146 29.9332 29 29.9332Z" fill="#273257"/>
<path d="M43.7378 11.6906C39.4 7.98983 33.8633 6.06756 28.1468 6.27953C22.3983 6.49205 16.991 8.85072 12.9209 12.9208C8.85083 16.9908 6.49216 22.3982 6.27964 28.1467C6.06822 33.8629 7.98994 39.4 11.6908 43.7377C11.853 43.9279 12.0833 44.0256 12.3152 44.0256C12.5035 44.0256 12.6927 43.9612 12.8472 43.8294C13.1918 43.5354 13.2328 43.0176 12.9388 42.673C9.50566 38.6488 7.72284 33.5116 7.91906 28.2073C8.11627 22.874 10.3046 17.8572 14.0809 14.0808C17.8572 10.3044 22.8741 8.11616 28.2074 7.91895C33.5121 7.72284 38.649 9.50555 42.6731 12.9387C43.0176 13.2327 43.5355 13.1917 43.8295 12.8471C44.1235 12.5024 44.0825 11.9846 43.7378 11.6906Z" fill="#273257"/>
<path d="M46.3094 14.2622C46.0154 13.9175 45.4976 13.8764 45.1529 14.1705C44.8083 14.4645 44.7673 14.9823 45.0613 15.3269C48.4945 19.351 50.2772 24.4884 50.081 29.7926C49.8838 35.1259 47.6955 40.1427 43.9192 43.9191C40.1429 47.6955 35.126 49.8837 29.7927 50.0809C24.4889 50.2773 19.3512 48.4945 15.327 45.0612C14.9825 44.7672 14.4646 44.8082 14.1706 45.1528C13.8766 45.4975 13.9176 46.0153 14.2623 46.3093C18.3843 49.826 23.589 51.7361 29.0016 51.7361C29.2849 51.7361 29.5691 51.7309 29.8535 51.7204C35.6019 51.5078 41.0093 49.1492 45.0793 45.0791C49.1494 41.009 51.5081 35.6017 51.7206 29.8532C51.9319 24.1371 50.0102 18.6 46.3094 14.2622Z" fill="#273257"/>
<path d="M48.7991 9.20094C43.5105 3.91255 36.4791 1 29 1C21.5209 1 14.4895 3.91255 9.20094 9.20094C3.91255 14.4895 1 21.5209 1 29C1 36.4791 3.91255 43.5105 9.20094 48.7991C14.4895 54.0875 21.5209 57 29 57C36.4791 57 43.5105 54.0875 48.7991 48.7991C54.0875 43.5105 57 36.4791 57 29C57 21.5209 54.0875 14.4895 48.7991 9.20094ZM47.6389 47.6389C42.6603 52.6176 36.0409 55.3594 29 55.3594C21.9591 55.3594 15.3397 52.6176 10.3611 47.6389C5.38244 42.6603 2.64062 36.0409 2.64062 29C2.64062 21.9591 5.38244 15.3397 10.3611 10.3611C15.3397 5.38244 21.9591 2.64062 29 2.64062C36.0409 2.64062 42.6603 5.38244 47.6389 10.3611C52.6176 15.3397 55.3594 21.9591 55.3594 29C55.3594 36.0409 52.6176 42.6603 47.6389 47.6389Z" stroke="white" stroke-width="0.3"/>
<path d="M29 9.76761C28.547 9.76761 28.1797 10.1349 28.1797 10.5879V14.0949C28.1797 14.548 28.547 14.9152 29 14.9152C29.453 14.9152 29.8203 14.5481 29.8203 14.095V10.5879C29.8203 10.1349 29.453 9.76761 29 9.76761Z" stroke="white" stroke-width="0.3"/>
<path d="M29 43.0847C28.547 43.0847 28.1797 43.4519 28.1797 43.905V47.412C28.1797 47.865 28.547 48.2323 29 48.2323C29.453 48.2323 29.8203 47.865 29.8203 47.412V43.905C29.8203 43.4519 29.453 43.0847 29 43.0847Z" stroke="white" stroke-width="0.3"/>
<path d="M47.4121 28.1797H43.9051C43.452 28.1797 43.0848 28.547 43.0848 29C43.0848 29.453 43.452 29.8203 43.9051 29.8203H47.4121C47.8651 29.8203 48.2324 29.453 48.2324 29C48.2324 28.547 47.8651 28.1797 47.4121 28.1797Z" stroke="white" stroke-width="0.3"/>
<path d="M14.0949 28.1797H10.5879C10.1349 28.1797 9.76761 28.547 9.76761 29C9.76761 29.453 10.1349 29.8203 10.5879 29.8203H14.0949C14.548 29.8203 14.9152 29.453 14.9152 29C14.9152 28.547 14.548 28.1797 14.0949 28.1797Z" stroke="white" stroke-width="0.3"/>
<path d="M14.9835 19.9604L13.4649 19.0836C13.0725 18.857 12.5709 18.9915 12.3444 19.3839C12.1179 19.7762 12.2523 20.2779 12.6446 20.5044L14.1632 21.3812C14.2923 21.4557 14.4334 21.4912 14.5726 21.4912C14.8561 21.4912 15.1318 21.344 15.2837 21.0809C15.5102 20.6886 15.3758 20.1869 14.9835 19.9604Z" stroke="white" stroke-width="0.3"/>
<path d="M45.3554 37.4956L43.8368 36.6188C43.4445 36.3922 42.9428 36.5268 42.7163 36.9191C42.4898 37.3114 42.6242 37.8131 43.0165 38.0396L44.5351 38.9164C44.6642 38.991 44.8053 39.0264 44.9445 39.0264C45.228 39.0264 45.5037 38.8792 45.6556 38.6161C45.8821 38.2238 45.7477 37.7221 45.3554 37.4956Z" stroke="white" stroke-width="0.3"/>
<path d="M38.6161 12.3444C38.2238 12.1178 37.7221 12.2523 37.4956 12.6446L36.6188 14.1632C36.3923 14.5555 36.5268 15.0572 36.9191 15.2837C37.0483 15.3583 37.1893 15.3938 37.3285 15.3938C37.612 15.3938 37.8877 15.2465 38.0396 14.9835L38.9164 13.4649C39.1429 13.0726 39.0085 12.5709 38.6161 12.3444Z" stroke="white" stroke-width="0.3"/>
<path d="M21.0809 42.7163C20.6885 42.4897 20.1868 42.6242 19.9604 43.0165L19.0836 44.5351C18.8571 44.9274 18.9915 45.4291 19.3839 45.6556C19.513 45.7302 19.6541 45.7657 19.7933 45.7657C20.0767 45.7657 20.3525 45.6184 20.5044 45.3554L21.3812 43.8368C21.6077 43.4445 21.4732 42.9428 21.0809 42.7163Z" stroke="white" stroke-width="0.3"/>
<path d="M45.6557 19.3838C45.4292 18.9914 44.9274 18.857 44.5352 19.0835L43.0166 19.9603C42.6243 20.1868 42.4899 20.6885 42.7164 21.0808C42.8683 21.344 43.144 21.4911 43.4275 21.4911C43.5667 21.4911 43.7078 21.4556 43.8369 21.381L45.3555 20.5043C45.7478 20.2778 45.8823 19.7761 45.6557 19.3838Z" stroke="white" stroke-width="0.3"/>
<path d="M15.2837 36.9191C15.0572 36.5266 14.5555 36.3922 14.1632 36.6188L12.6446 37.4956C12.2523 37.7221 12.1179 38.2238 12.3444 38.6161C12.4963 38.8793 12.772 39.0264 13.0555 39.0264C13.1947 39.0264 13.3357 38.991 13.4649 38.9164L14.9835 38.0396C15.3758 37.8132 15.5102 37.3115 15.2837 36.9191Z" stroke="white" stroke-width="0.3"/>
<path d="M21.3812 14.1632L20.5044 12.6446C20.2779 12.2522 19.7762 12.1178 19.3839 12.3444C18.9915 12.5709 18.8571 13.0726 19.0836 13.4649L19.9604 14.9835C20.1123 15.2466 20.388 15.3938 20.6715 15.3938C20.8107 15.3938 20.9517 15.3583 21.0809 15.2837C21.4732 15.0572 21.6077 14.5555 21.3812 14.1632Z" stroke="white" stroke-width="0.3"/>
<path d="M38.9164 44.5351L38.0396 43.0165C37.8132 42.6242 37.3114 42.4897 36.9191 42.7163C36.5268 42.9428 36.3923 43.4445 36.6188 43.8368L37.4956 45.3554C37.6475 45.6185 37.9232 45.7657 38.2067 45.7657C38.3459 45.7657 38.487 45.7302 38.6161 45.6556C39.0085 45.4291 39.1429 44.9274 38.9164 44.5351Z" stroke="white" stroke-width="0.3"/>
<path d="M41.2087 27.1217C41.1399 26.674 40.7218 26.3668 40.2732 26.4357L31.2855 27.8184C30.8566 26.9922 29.9935 26.4262 29.0001 26.4262C28.5892 26.4262 28.2007 26.5235 27.8557 26.6956L19.059 17.8989C18.7387 17.5785 18.2192 17.5785 17.899 17.8989C17.5786 18.2192 17.5786 18.7387 17.899 19.0589L26.6957 27.8556C26.5236 28.2006 26.4263 28.5891 26.4263 29C26.4263 30.4193 27.581 31.5738 29.0001 31.5738C30.2693 31.5738 31.3262 30.6501 31.5355 29.4399L40.5228 28.0573C40.9704 27.9883 41.2776 27.5695 41.2087 27.1217ZM29 29.9332C28.4854 29.9332 28.0668 29.5145 28.0668 29C28.0668 28.4855 28.4855 28.0668 29 28.0668C29.5145 28.0668 29.9332 28.4855 29.9332 29C29.9332 29.5145 29.5146 29.9332 29 29.9332Z" stroke="white" stroke-width="0.3"/>
<path d="M43.7378 11.6906C39.4 7.98983 33.8633 6.06756 28.1468 6.27953C22.3983 6.49205 16.991 8.85072 12.9209 12.9208C8.85083 16.9908 6.49216 22.3982 6.27964 28.1467C6.06822 33.8629 7.98994 39.4 11.6908 43.7377C11.853 43.9279 12.0833 44.0256 12.3152 44.0256C12.5035 44.0256 12.6927 43.9612 12.8472 43.8294C13.1918 43.5354 13.2328 43.0176 12.9388 42.673C9.50566 38.6488 7.72284 33.5116 7.91906 28.2073C8.11627 22.874 10.3046 17.8572 14.0809 14.0808C17.8572 10.3044 22.8741 8.11616 28.2074 7.91895C33.5121 7.72284 38.649 9.50555 42.6731 12.9387C43.0176 13.2327 43.5355 13.1917 43.8295 12.8471C44.1235 12.5024 44.0825 11.9846 43.7378 11.6906Z" stroke="white" stroke-width="0.3"/>
<path d="M46.3094 14.2622C46.0154 13.9175 45.4976 13.8764 45.1529 14.1705C44.8083 14.4645 44.7673 14.9823 45.0613 15.3269C48.4945 19.351 50.2772 24.4884 50.081 29.7926C49.8838 35.1259 47.6955 40.1427 43.9192 43.9191C40.1429 47.6955 35.126 49.8837 29.7927 50.0809C24.4889 50.2773 19.3512 48.4945 15.327 45.0612C14.9825 44.7672 14.4646 44.8082 14.1706 45.1528C13.8766 45.4975 13.9176 46.0153 14.2623 46.3093C18.3843 49.826 23.589 51.7361 29.0016 51.7361C29.2849 51.7361 29.5691 51.7309 29.8535 51.7204C35.6019 51.5078 41.0093 49.1492 45.0793 45.0791C49.1494 41.009 51.5081 35.6017 51.7206 29.8532C51.9319 24.1371 50.0102 18.6 46.3094 14.2622Z" stroke="white" stroke-width="0.3"/>
</svg>
