<svg width="54" height="54" viewBox="0 0 54 54" fill="none" xmlns="http://www.w3.org/2000/svg">
<path d="M18.5566 14.0349C18.2637 14.3278 18.2637 14.8027 18.5566 15.0955C18.8495 15.3884 19.3244 15.3884 19.6173 15.0955L18.5566 14.0349ZM32.6522 1L33.1825 0.46967C32.8896 0.176777 32.4147 0.176777 32.1218 0.46967L32.6522 1ZM7.25228 14.0349C6.95939 14.3278 6.95939 14.8027 7.25228 15.0955C7.54517 15.3884 8.02005 15.3884 8.31294 15.0955L7.25228 14.0349ZM21.3478 1L21.8782 0.46967C21.5853 0.176777 21.1104 0.176777 20.8175 0.46967L21.3478 1ZM49.9891 39.4348V48.4783H51.4891V39.4348H49.9891ZM49.9891 48.4783C49.9891 50.551 48.2901 52.25 46.2174 52.25V53.75C49.1186 53.75 51.4891 51.3794 51.4891 48.4783H49.9891ZM46.2174 52.25H5.52174V53.75H46.2174V52.25ZM5.52174 52.25C3.449 52.25 1.75 50.551 1.75 48.4783H0.25C0.25 51.3794 2.62057 53.75 5.52174 53.75V52.25ZM1.75 48.4783V19.087H0.25V48.4783H1.75ZM1.75 19.087C1.75 17.0142 3.449 15.3152 5.52174 15.3152V13.8152C2.62057 13.8152 0.25 16.1858 0.25 19.087H1.75ZM5.52174 15.3152H46.2174V13.8152H5.52174V15.3152ZM46.2174 15.3152C48.2901 15.3152 49.9891 17.0142 49.9891 19.087H51.4891C51.4891 16.1858 49.1186 13.8152 46.2174 13.8152V15.3152ZM49.9891 19.087V28.1304H51.4891V19.087H49.9891ZM52.25 37.1739C52.25 38.0077 51.5729 38.6848 50.7391 38.6848V40.1848C52.4013 40.1848 53.75 38.8361 53.75 37.1739H52.25ZM50.7391 38.6848H40.5652V40.1848H50.7391V38.6848ZM40.5652 38.6848C37.8572 38.6848 35.663 36.4907 35.663 33.7826H34.163C34.163 37.3191 37.0287 40.1848 40.5652 40.1848V38.6848ZM35.663 33.7826C35.663 31.0746 37.8572 28.8804 40.5652 28.8804V27.3804C37.0287 27.3804 34.163 30.2461 34.163 33.7826H35.663ZM40.5652 28.8804H50.7391V27.3804H40.5652V28.8804ZM50.7391 28.8804C51.5729 28.8804 52.25 29.5575 52.25 30.3913H53.75C53.75 28.7291 52.4013 27.3804 50.7391 27.3804V28.8804ZM52.25 30.3913V37.1739H53.75V30.3913H52.25ZM42.0761 33.7826C42.0761 34.617 41.3996 35.2935 40.5652 35.2935V36.7935C42.2281 36.7935 43.5761 35.4455 43.5761 33.7826H42.0761ZM40.5652 35.2935C39.7308 35.2935 39.0543 34.617 39.0543 33.7826H37.5543C37.5543 35.4455 38.9024 36.7935 40.5652 36.7935V35.2935ZM39.0543 33.7826C39.0543 32.9482 39.7308 32.2717 40.5652 32.2717V30.7717C38.9024 30.7717 37.5543 32.1198 37.5543 33.7826H39.0543ZM40.5652 32.2717C41.3996 32.2717 42.0761 32.9482 42.0761 33.7826H43.5761C43.5761 32.1198 42.2281 30.7717 40.5652 30.7717V32.2717ZM19.6173 15.0955L27.5303 7.1825L26.4697 6.12184L18.5566 14.0349L19.6173 15.0955ZM27.5303 7.1825L33.1825 1.53033L32.1218 0.46967L26.4697 6.12184L27.5303 7.1825ZM32.1218 1.53033L45.6871 15.0955L46.7477 14.0349L33.1825 0.46967L32.1218 1.53033ZM8.31294 15.0955L21.8782 1.53033L20.8175 0.46967L7.25228 14.0349L8.31294 15.0955ZM20.8175 1.53033L26.4697 7.1825L27.5303 6.12184L21.8782 0.46967L20.8175 1.53033Z" fill="#1C2649"/>
</svg>
