<svg width="21" height="16" viewBox="0 0 21 16" fill="none" xmlns="http://www.w3.org/2000/svg">
<path fill-rule="evenodd" clip-rule="evenodd" d="M1.65193 0.920088L7.83439 7.13515C9.1828 8.48749 11.387 8.48865 12.7365 7.13515L18.919 0.920088C18.9812 0.857525 18.9722 0.754494 18.8999 0.703877C18.2693 0.261978 17.5021 0 16.6757 0H3.89526C3.06877 0 2.30155 0.262023 1.67097 0.703877C1.59874 0.754494 1.58967 0.857525 1.65193 0.920088ZM-0.000244141 3.91431C-0.000244141 3.26127 0.160888 2.64426 0.444712 2.10193C0.489096 2.01709 0.601598 1.99993 0.669046 2.06771L6.77324 8.20143C8.70624 10.1466 11.8635 10.1477 13.7977 8.20143L19.9019 2.06771C19.9693 1.99993 20.0818 2.01709 20.1262 2.10193C20.41 2.64426 20.5712 3.26132 20.5712 3.91431V12.0856C20.5712 14.2457 18.8226 16 16.6757 16H3.89526C1.74838 16 -0.000244141 14.2457 -0.000244141 12.0856V3.91431Z" fill="#F1F162"/>
</svg>
