<svg width="9" height="17" viewBox="0 0 9 17" fill="none" xmlns="http://www.w3.org/2000/svg">
<path d="M2.79698 9.81352C2.73956 9.81352 1.47622 9.81352 0.901972 9.81352C0.595708 9.81352 0.5 9.68961 0.5 9.37985C0.5 8.55382 0.5 7.70713 0.5 6.8811C0.5 6.55069 0.614849 6.44743 0.901972 6.44743H2.79698C2.79698 6.38548 2.79698 5.18773 2.79698 4.63016C2.79698 3.80413 2.93097 3.0194 3.31381 2.29662C3.71578 1.55319 4.29002 1.05757 5.0174 0.76846C5.49594 0.582603 5.97448 0.5 6.4913 0.5H8.36717C8.63515 0.5 8.75 0.623905 8.75 0.913016V3.26721C8.75 3.55632 8.63515 3.68023 8.36717 3.68023C7.85035 3.68023 7.33353 3.68023 6.81671 3.70088C6.29988 3.70088 6.0319 3.96934 6.0319 4.54756C6.01276 5.16708 6.0319 5.76596 6.0319 6.40613H8.25232C8.55859 6.40613 8.67343 6.53004 8.67343 6.86045V9.3592C8.67343 9.68961 8.57773 9.79286 8.25232 9.79286C7.56323 9.79286 6.08933 9.79286 6.0319 9.79286V16.525C6.0319 16.8761 5.9362 17 5.59165 17C4.7877 17 4.0029 17 3.19896 17C2.91183 17 2.79698 16.8761 2.79698 16.5663C2.79698 14.398 2.79698 9.87547 2.79698 9.81352Z" fill="white"/>
</svg>
