<svg width="16" height="16" viewBox="0 0 16 16" fill="none" xmlns="http://www.w3.org/2000/svg">
<path d="M2.49927 0.25C1.39769 0.25 0.500807 1.14798 0.5 2.25198C0.5 3.35598 1.39689 4.25413 2.49927 4.25413C3.60126 4.25413 4.49768 3.35598 4.49768 2.25198C4.49768 1.1481 3.6012 0.25 2.49927 0.25Z" fill="white"/>
<path d="M3.99975 5.05854H0.998565C0.855805 5.05854 0.740007 5.17444 0.740007 5.31752V14.9911C0.740007 15.1341 0.855805 15.25 0.998565 15.25H3.99969C4.14251 15.25 4.25831 15.134 4.25831 14.9911V5.31752C4.25837 5.17438 4.14257 5.05854 3.99975 5.05854Z" fill="white"/>
<path d="M11.6722 4.94465C10.5739 4.94465 9.6087 5.27956 9.01974 5.82567V5.31752C9.01974 5.17444 8.90394 5.05854 8.76113 5.05854H5.88225C5.73943 5.05854 5.62363 5.17444 5.62363 5.31752V14.9911C5.62363 15.1341 5.73943 15.25 5.88225 15.25H8.88056C9.02337 15.25 9.13917 15.134 9.13917 14.9911V10.2051C9.13917 8.8319 9.39139 7.98077 10.6501 7.98077C11.8903 7.98227 11.9831 8.89496 11.9831 10.2871V14.9911C11.9831 15.1341 12.0989 15.25 12.2418 15.25H15.2414C15.3842 15.25 15.5 15.134 15.5 14.9911V9.68471C15.4999 7.47781 15.0649 4.94465 11.6722 4.94465Z" fill="white"/>
</svg>
