<svg width="15" height="15" viewBox="0 0 15 15" fill="none" xmlns="http://www.w3.org/2000/svg">
<path d="M7.5 0C3.3645 0 0 3.36426 0 7.5C0 8.95508 0.417236 10.3579 1.20923 11.5762L0.0405273 14.3032C-0.0400391 14.4907 0.00195312 14.709 0.146484 14.8535C0.242187 14.9492 0.370117 15 0.5 15C0.566406 15 0.633545 14.9868 0.697021 14.9595L3.42407 13.7905C4.64209 14.583 6.04492 15 7.5 15C11.6357 15 15 11.6357 15 7.5C15 3.36426 11.6357 0 7.5 0ZM11.3496 10.1846C11.3496 10.1846 10.7261 10.9844 10.2754 11.1714C9.12988 11.6455 7.5127 11.1714 5.67041 9.32959C3.82861 7.4873 3.35425 5.87012 3.82861 4.72461C4.01562 4.27344 4.81543 3.65039 4.81543 3.65039C5.03223 3.48145 5.36914 3.50244 5.56348 3.69678L6.46826 4.60156C6.6626 4.7959 6.6626 5.11426 6.46826 5.30859L5.90039 5.87598C5.90039 5.87598 5.67041 6.56641 7.05176 7.94824C8.43311 9.32959 9.12402 9.09961 9.12402 9.09961L9.69141 8.53174C9.88574 8.3374 10.2041 8.3374 10.3984 8.53174L11.3032 9.43652C11.4976 9.63086 11.5186 9.96729 11.3496 10.1846Z" fill="white"/>
</svg>
