<svg width="41" height="48" viewBox="0 0 41 48" fill="none" xmlns="http://www.w3.org/2000/svg">
<path d="M40.1995 6.51138L20.8753 0.0609231C20.6319 -0.0203077 20.3683 -0.0203077 20.1249 0.0609231L0.80073 6.51138C0.322213 6.67113 0 7.11585 0 7.61645V23.6318C0 35.4939 8.52786 45.7334 20.2774 47.9789C20.3509 47.993 20.4255 48 20.5 48C20.5745 48 20.6491 47.993 20.7225 47.9789C32.472 45.7334 41 35.4939 41 23.6318V7.61645C41.0001 7.11576 40.6779 6.67103 40.1995 6.51138ZM38.6482 23.6318C38.6482 34.3035 31.0301 43.5253 20.5001 45.6455C9.97007 43.5253 2.35202 34.3035 2.35202 23.6318V8.45422L20.5001 2.39631L38.6482 8.45422V23.6318ZM18.3172 28.2328L30.6915 16.4855C31.1607 16.0402 31.905 16.0562 32.3542 16.5213C32.8034 16.9865 32.7872 17.7245 32.3181 18.1699L19.1472 30.6736C18.9201 30.8892 18.627 30.9973 18.3338 30.9973C18.0488 30.9973 17.7636 30.8951 17.5384 30.6902L10.1929 24.0015C9.71459 23.5659 9.68294 22.8283 10.1222 22.3539C10.5615 21.8796 11.3055 21.8484 11.7838 22.2838L18.3172 28.2328Z" fill="black"/>
</svg>
