<svg width="43" height="43" viewBox="0 0 43 43" fill="none" xmlns="http://www.w3.org/2000/svg">
<path d="M37.2462 4.09524H32.7619V1.02381C32.7619 0.752278 32.654 0.491869 32.462 0.299867C32.27 0.107866 32.0096 0 31.7381 0C31.4666 0 31.2062 0.107866 31.0142 0.299867C30.8222 0.491869 30.7143 0.752278 30.7143 1.02381V4.09524H12.2857V1.02381C12.2857 0.752278 12.1778 0.491869 11.9858 0.299867C11.7938 0.107866 11.5334 0 11.2619 0C10.9904 0 10.73 0.107866 10.538 0.299867C10.346 0.491869 10.2381 0.752278 10.2381 1.02381V4.09524H5.75381C4.2278 4.09524 2.7643 4.70144 1.68525 5.78049C0.606203 6.85954 0 8.32304 0 9.84905V37.2462C0 38.7722 0.606203 40.2357 1.68525 41.3148C2.7643 42.3938 4.2278 43 5.75381 43H37.2462C38.7722 43 40.2357 42.3938 41.3148 41.3148C42.3938 40.2357 43 38.7722 43 37.2462V9.84905C43 8.32304 42.3938 6.85954 41.3148 5.78049C40.2357 4.70144 38.7722 4.09524 37.2462 4.09524ZM5.75381 6.14286H37.2462C38.2291 6.14286 39.1718 6.53333 39.8669 7.22837C40.5619 7.92342 40.9524 8.86611 40.9524 9.84905V12.2857H2.04762V9.84905C2.04762 8.86611 2.43809 7.92342 3.13314 7.22837C3.82818 6.53333 4.77087 6.14286 5.75381 6.14286ZM37.2462 40.9524H5.75381C4.77087 40.9524 3.82818 40.5619 3.13314 39.8669C2.43809 39.1718 2.04762 38.2291 2.04762 37.2462V14.3333H40.9524V37.2462C40.9524 38.2291 40.5619 39.1718 39.8669 39.8669C39.1718 40.5619 38.2291 40.9524 37.2462 40.9524Z" fill="black"/>
</svg>
