<svg width="48" height="50" viewBox="0 0 48 50" fill="none" xmlns="http://www.w3.org/2000/svg">
<path d="M15.9557 6.66218C16.1011 6.91943 16.3659 7.0655 16.6398 7.0655C16.7541 7.0655 16.8699 7.0401 16.9792 6.98677C18.8158 6.09142 20.7888 5.55655 22.8433 5.39697C23.2548 5.36502 23.5729 5.01452 23.5729 4.59285V0.807016C23.5729 0.584237 23.4826 0.371336 23.3236 0.218919C23.1647 0.0665016 22.9512 -0.0121264 22.7333 0.00228871C19.8313 0.191601 17.0421 0.954695 14.4431 2.2704C14.2478 2.36929 14.1011 2.54641 14.038 2.75961C13.9748 2.97281 14.001 3.20325 14.1099 3.39619L15.9557 6.66218ZM21.9941 1.68422V3.8601C20.2504 4.06645 18.5645 4.5234 16.9654 5.22309L15.9065 3.34922C17.8416 2.46909 19.8827 1.91083 21.9941 1.68422ZM4.51159 32.2387C4.60819 32.4385 4.78156 32.5886 4.99045 32.6534C5.06534 32.6765 5.14251 32.688 5.21927 32.688C5.35653 32.688 5.4928 32.6514 5.61397 32.58L8.82597 30.6855C9.18268 30.4752 9.32111 30.0199 9.1438 29.64C8.26511 27.7576 7.73899 25.7438 7.57973 23.6547C7.54766 23.2348 7.20487 22.9109 6.79271 22.9109H3.08586C2.8678 22.9109 2.6593 23.0031 2.5101 23.1656C2.36091 23.3281 2.28414 23.5465 2.29816 23.7689C2.48445 26.7364 3.22923 29.586 4.51159 32.2387ZM6.07694 24.5236C6.28149 26.2977 6.73095 28.0176 7.41741 29.6539L5.56917 30.744C4.7114 28.7683 4.16673 26.6827 3.94471 24.5236H6.07694ZM3.08596 21.7399H6.80732C7.21681 21.7399 7.55842 21.4199 7.59374 21.0031C7.77145 18.909 8.30172 16.8971 9.16985 15.0235C9.34568 14.6439 9.20695 14.19 8.85104 13.98L5.61979 12.0742C5.43093 11.9628 5.20526 11.9361 4.99657 12.0007C4.78778 12.0652 4.61441 12.215 4.51761 12.4147C3.23121 15.0688 2.48455 17.9176 2.29816 20.8817C2.28414 21.1041 2.36091 21.3226 2.5101 21.4851C2.6594 21.6477 2.8678 21.7399 3.08596 21.7399ZM5.5742 13.9097L7.44406 15.0126C6.76538 16.6397 6.31385 18.3542 6.09717 20.127H3.94481C4.16732 17.9706 4.71357 15.8859 5.5742 13.9097ZM47.8767 24.4298C47.6719 23.9985 47.2529 23.7307 46.7831 23.7306H46.0056C46.034 23.2628 46.0483 22.7928 46.0483 22.3254C46.0483 16.6008 43.9332 11.1545 40.0925 6.9898C36.2687 2.84338 31.1071 0.361659 25.5584 0.00158308C25.3411 -0.012328 25.1271 0.0658967 24.9682 0.218314C24.8092 0.370731 24.719 0.583632 24.719 0.80631V4.59315C24.719 5.01452 25.0365 5.36482 25.4478 5.39718C34.04 6.07438 40.7707 13.5101 40.7707 22.3253C40.7707 22.793 40.7519 23.2633 40.7143 23.7304H40.2094C39.7399 23.7304 39.3208 23.9982 39.1159 24.4295C38.9111 24.8606 38.9643 25.3626 39.2548 25.7394L42.5419 30.0048C42.7739 30.3056 43.1218 30.4781 43.4966 30.478C43.8714 30.478 44.2192 30.3054 44.451 30.0046L47.7379 25.7394C48.0283 25.3628 48.0816 24.8609 47.8767 24.4298ZM43.4962 28.6364L40.9587 25.3436H41.4262C41.8245 25.3436 42.1604 25.0405 42.2095 24.6366C42.3023 23.874 42.3494 23.0964 42.3494 22.3255C42.3494 17.6121 40.62 13.1166 37.4797 9.66718C34.5234 6.41964 30.5757 4.37582 26.2977 3.86181V1.68352C36.5536 2.78501 44.4697 11.6903 44.4697 22.3255C44.4697 23.0356 44.4341 23.7523 44.364 24.4553C44.3414 24.6822 44.4138 24.9084 44.5635 25.0777C44.7132 25.2469 44.926 25.3436 45.1493 25.3436H46.034L43.4962 28.6364ZM6.19446 11.0612L9.41456 12.9605C9.53859 13.0337 9.67436 13.0686 9.80866 13.0686C10.0621 13.0686 10.3099 12.9439 10.4619 12.7157C11.6169 10.9812 13.053 9.50146 14.7301 8.3176C15.0683 8.07879 15.1706 7.61469 14.9649 7.25088L13.1184 3.98369C13.0093 3.79044 12.8266 3.65214 12.6139 3.60143C12.4011 3.55093 12.1775 3.59246 11.996 3.71645C9.58506 5.36351 7.5451 7.44886 5.93258 9.91476C5.81131 10.1002 5.77066 10.3287 5.82019 10.5459C5.87002 10.7632 6.0054 10.9497 6.19446 11.0612ZM12.1815 5.55131L13.2412 7.42638C11.8497 8.49542 10.6229 9.75952 9.58171 11.1967L7.72853 10.1037C8.97704 8.35308 10.47 6.82689 12.1815 5.55131ZM35.1492 32.8745L27.5385 37.4031C27.249 37.5753 26.9556 37.7081 26.6533 37.8024C26.746 37.6119 26.822 37.4058 26.8799 37.1852C27.2846 35.6417 26.3886 34.0311 24.84 33.5183C24.8062 33.5071 24.7716 33.4982 24.7367 33.4918C22.5588 33.0905 20.405 32.2949 18.6742 31.6557C18.0708 31.4328 17.5007 31.2222 17.015 31.0613C15.0238 30.4014 13.2345 31.2121 11.7467 32.0922L6.1842 35.3824L5.70711 34.5211C5.45648 34.0687 5.04719 33.7427 4.55471 33.6031C4.06233 33.4639 3.54716 33.528 3.10422 33.784L0.968831 35.0187C0.0523558 35.5486 -0.271292 36.7414 0.247334 37.6778L6.52521 49.01C6.77584 49.4625 7.18514 49.7885 7.67762 49.9279C7.84792 49.9761 8.0209 50 8.19269 50C8.51762 50 8.8384 49.9145 9.12811 49.7471L11.2635 48.5124C11.7063 48.2563 12.0254 47.8382 12.162 47.3351C12.2985 46.832 12.2356 46.3057 11.985 45.8532L11.3934 44.7854L12.5453 44.1059L22.2472 46.7617C22.795 46.9117 23.3402 46.9863 23.8763 46.9863C24.9609 46.9863 26.0087 46.6813 26.9666 46.0788L40.7781 37.3905C42.0874 36.567 42.5049 34.4953 41.654 33.0441C41.2423 32.3415 39.5557 30.2529 35.1492 32.8745ZM10.6407 46.9044C10.6269 46.9553 10.5884 47.0495 10.4859 47.1088L8.35057 48.3435C8.24824 48.4028 8.14917 48.3879 8.09934 48.3737C8.04951 48.3596 7.95725 48.3203 7.89924 48.2157L1.62146 36.8834C1.53304 36.7239 1.59027 36.5127 1.74657 36.4224L3.88206 35.1877C3.93899 35.1548 3.99474 35.1448 4.04171 35.1448C4.07921 35.1448 4.11108 35.1511 4.13328 35.1575C4.18311 35.1716 4.27537 35.2109 4.33329 35.3154L10.6112 46.6476C10.669 46.7524 10.6545 46.8534 10.6407 46.9044ZM39.9504 36.0172L26.1391 44.7054C25.0715 45.3767 23.8997 45.5446 22.6559 45.2039L12.638 42.4616C12.4356 42.4064 12.2203 42.4353 12.0391 42.5421L10.6158 43.3815L6.96184 36.7859L12.5377 33.4877C13.784 32.7505 15.13 32.132 16.5278 32.5953C16.9886 32.748 17.5209 32.9446 18.1374 33.1723C19.9089 33.8266 22.11 34.6396 24.3985 35.068C25.1315 35.3341 25.5414 36.0564 25.3549 36.7675C25.1091 37.7042 24.3381 37.8207 23.7226 37.7492C22.6084 37.5148 21.5474 37.2054 20.4249 36.878C19.8899 36.722 19.3367 36.5606 18.7677 36.4047C18.3465 36.2897 17.9138 36.5448 17.8009 36.975C17.6881 37.4052 17.938 37.8473 18.3591 37.9627C18.9156 38.115 19.4625 38.2746 19.9913 38.4289C21.1551 38.7684 23.4663 39.3418 23.4715 39.3426L24.4182 39.4999C25.8607 39.7355 27.1413 39.5057 28.333 38.7967L35.9436 34.2682C38.0734 33.0009 39.7018 32.853 40.2996 33.8728C40.7081 34.5694 40.5319 35.6515 39.9504 36.0172ZM4.44528 37.2749C4.50616 37.7005 4.21784 38.096 3.80124 38.1582C3.38464 38.2204 2.99745 37.9259 2.93657 37.5002C2.87569 37.0746 3.16401 36.679 3.58061 36.6168C3.99721 36.5547 4.3843 36.8493 4.44528 37.2749ZM30.8588 14.7686C30.8588 11.5517 28.2969 8.93453 25.1481 8.93453C21.9992 8.93453 19.4374 11.5517 19.4374 14.7686C19.4374 16.7307 20.3913 18.4683 21.8493 19.5264C18.0164 20.8113 15.1364 24.2813 14.6857 28.5843C14.6618 28.8118 14.7337 29.0389 14.8834 29.2091C15.0331 29.3792 15.2465 29.4765 15.4705 29.4765H34.8253C35.0493 29.4765 35.2628 29.3793 35.4124 29.2091C35.5621 29.0389 35.6341 28.8118 35.6102 28.5842C35.1594 24.2813 32.2795 20.8114 28.4466 19.5264C29.9047 18.4684 30.8588 16.7307 30.8588 14.7686ZM33.9037 27.8636H16.3922C17.243 23.667 20.8624 20.6036 25.146 20.6026C25.1467 20.6026 25.1474 20.6027 25.1481 20.6027H25.1501C29.4336 20.6037 33.053 23.667 33.9037 27.8636ZM25.148 18.9897C25.1471 18.9897 25.1463 18.9897 25.1454 18.9897C22.8683 18.9882 21.0161 17.0953 21.0161 14.7686C21.0161 12.441 22.8697 10.5474 25.1481 10.5474C27.4264 10.5474 29.28 12.441 29.28 14.7686C29.28 17.0953 27.4278 18.9883 25.1506 18.9897C25.1498 18.9898 25.1489 18.9897 25.148 18.9897Z" fill="black"/>
</svg>
