<svg width="18" height="16" viewBox="0 0 18 16" fill="none" xmlns="http://www.w3.org/2000/svg">
<path fill-rule="evenodd" clip-rule="evenodd" d="M7.71429 14.6667C7.71429 13.9303 8.28993 13.3333 9 13.3333H16.7143C17.4244 13.3333 18 13.9303 18 14.6667C18 15.4031 17.4244 16 16.7143 16H9C8.28993 16 7.71429 15.4031 7.71429 14.6667ZM0 1.33333C0 0.596947 0.575627 0 1.28571 0H16.7143C17.4244 0 18 0.596947 18 1.33333C18 2.06971 17.4244 2.66667 16.7143 2.66667H1.28571C0.575627 2.66667 0 2.06971 0 1.33333ZM0 8C0 7.26363 0.575627 6.66667 1.28571 6.66667H16.7143C17.4244 6.66667 18 7.26363 18 8C18 8.7364 17.4244 9.33333 16.7143 9.33333H1.28571C0.575627 9.33333 0 8.7364 0 8Z" fill="#EFEF51"/>
</svg>
