<svg width="39" height="38" viewBox="0 0 39 38" fill="none" xmlns="http://www.w3.org/2000/svg">
<path d="M28.1216 15.2H27.3005C26.9603 15.2 26.6847 15.4686 26.6847 15.8C26.6847 16.1314 26.9604 16.4 27.3005 16.4H28.1216C28.4618 16.4 28.7373 16.1314 28.7373 15.8C28.7373 15.4686 28.4617 15.2 28.1216 15.2Z" fill="white"/>
<path d="M23.811 19C23.811 18.6685 23.5354 18.4 23.1953 18.4H10.058C9.71785 18.4 9.44226 18.6686 9.44226 19C9.44226 19.3315 9.71785 19.6 10.058 19.6H23.1952C23.5353 19.6 23.811 19.3315 23.811 19Z" fill="white"/>
<path d="M10.058 30.4C9.71785 30.4 9.44226 30.6686 9.44226 31C9.44226 31.3314 9.71785 31.6 10.058 31.6H13.3423C13.6825 31.6 13.9581 31.3314 13.9581 31C13.9581 30.6686 13.6825 30.4 13.3423 30.4H10.058Z" fill="white"/>
<path d="M26.3153 32.32C26.7394 32.8711 27.4147 33.2001 28.1216 33.2001C28.8286 33.2001 29.5039 32.8711 29.928 32.32L38.5493 21.1201C39.2963 20.1496 39.0937 18.768 38.0976 18.04C37.1015 17.3123 35.6834 17.5096 34.9365 18.4801L34.4848 19.0669V2.19999C34.4849 0.986961 33.4719 0 32.2269 0H5.95282C4.70768 0 3.6948 0.986961 3.6948 2.19999V2.40001H2.25794C1.01288 2.40001 0 3.38697 0 4.6V33.4C0 34.613 1.01288 35.6 2.25794 35.6H3.6948V35.8C3.6948 37.013 4.70768 38 5.95274 38H32.2269C33.4718 38 34.4848 37.013 34.4848 35.8V29.4C34.4848 29.0685 34.2092 28.8 33.869 28.8C33.5288 28.8 33.2532 29.0685 33.2532 29.4V35.8C33.2532 36.3515 32.7928 36.8 32.2269 36.8H5.95282C5.38685 36.8 4.92646 36.3515 4.92646 35.8V10.2C4.92646 9.86857 4.65078 9.60005 4.31067 9.60005C3.97055 9.60005 3.69488 9.86864 3.69488 10.2V34.4H2.25794C1.69197 34.4 1.23158 33.9514 1.23158 33.4V4.6C1.23158 4.04856 1.69197 3.59998 2.25794 3.59998H3.6948V7.79995C3.6948 8.13141 3.97048 8.39993 4.31059 8.39993C4.65071 8.39993 4.92638 8.13133 4.92638 7.79995V2.19999C4.92638 1.64855 5.38677 1.19997 5.95274 1.19997H32.2269C32.7928 1.19997 33.2532 1.64855 33.2532 2.19999V20.6C33.2532 20.6212 33.2544 20.6419 33.2565 20.6626L28.1216 27.3334L26.2333 24.8801C25.8715 24.4099 25.3433 24.1052 24.7462 24.0222C24.1489 23.939 23.5545 24.0875 23.0722 24.4401C22.5896 24.7926 22.2769 25.3073 22.1917 25.889C22.1064 26.4708 22.2588 27.05 22.6206 27.5201L26.3153 32.32ZM23.4108 26.0586C23.4497 25.7944 23.5918 25.5604 23.8112 25.4C23.9907 25.2688 24.2043 25.1999 24.4247 25.1999C24.4735 25.1999 24.5227 25.2033 24.572 25.2101C24.8433 25.248 25.0835 25.3864 25.248 25.6001L27.629 28.6935C27.7453 28.8446 27.9279 28.9335 28.1216 28.9335C28.3153 28.9335 28.498 28.8446 28.6143 28.6935L35.9218 19.2001C36.2613 18.7589 36.906 18.6693 37.3587 19.0001C37.8114 19.3309 37.9035 19.959 37.564 20.4001L28.9427 31.6001V31.6002C28.7499 31.8506 28.443 32.0001 28.1216 32.0001C27.8003 32.0001 27.4934 31.8505 27.3006 31.6001L23.6058 26.8001C23.4413 26.5864 23.3721 26.3231 23.4108 26.0586Z" fill="white"/>
<path d="M19.7057 27.8C19.7057 27.4685 19.4301 27.2 19.0899 27.2H10.058C9.71785 27.2 9.44226 27.4686 9.44226 27.8C9.44226 28.1314 9.71785 28.4 10.058 28.4H19.0898C19.4299 28.4 19.7057 28.1314 19.7057 27.8Z" fill="white"/>
<path d="M14.5739 10.4C14.2337 10.4 13.9581 10.6685 13.9581 11C13.9581 11.3314 14.2337 11.5999 14.5739 11.5999H23.6058C23.9459 11.5999 24.2215 11.3314 24.2215 11C24.2215 10.6685 23.9459 10.4 23.6058 10.4H14.5739Z" fill="white"/>
<path d="M10.058 16.4H23.1952C23.5354 16.4 23.811 16.1314 23.811 15.8C23.811 15.4686 23.5354 15.2 23.1952 15.2H10.058C9.71785 15.2 9.44226 15.4686 9.44226 15.8C9.44226 16.1314 9.71793 16.4 10.058 16.4Z" fill="white"/>
<path d="M28.1216 7.20004H10.058C9.71785 7.20004 9.44226 7.46856 9.44226 7.80002C9.44226 8.13148 9.71785 8.4 10.058 8.4H28.1216C28.4618 8.4 28.7373 8.13148 28.7373 7.80002C28.7373 7.46856 28.4617 7.20004 28.1216 7.20004Z" fill="white"/>
<path d="M28.1216 18.4H27.3005C26.9603 18.4 26.6847 18.6686 26.6847 19C26.6847 19.3315 26.9604 19.6 27.3005 19.6H28.1216C28.4618 19.6 28.7373 19.3314 28.7373 19C28.7373 18.6685 28.4617 18.4 28.1216 18.4Z" fill="white"/>
</svg>
