<svg width="51" height="35" viewBox="0 0 51 35" fill="none" xmlns="http://www.w3.org/2000/svg">
<path d="M50.3135 5.47203L49.7125 4.88497L50.0312 4.57368C51.1008 3.52878 51.1008 1.82861 50.0312 0.78371C48.9616 -0.261188 47.2213 -0.261285 46.1516 0.78371L44.3408 2.55268C44.049 2.8377 44.049 3.29982 44.3408 3.58473C44.6326 3.86975 45.1056 3.86975 45.3973 3.58473L45.8329 3.1592L47.5994 4.88497L34.5406 17.6421L32.774 15.9163L43.235 5.69701C43.5268 5.41199 43.5268 4.94988 43.235 4.66496C42.9433 4.37994 42.4702 4.37994 42.1786 4.66496L24.1318 22.2948C23.2453 23.1608 23.0943 24.4766 23.6773 25.4968L22.438 26.7074C22.1462 26.9924 22.1462 27.4545 22.438 27.7394C22.5838 27.8819 22.775 27.9532 22.9662 27.9532C23.1573 27.9532 23.3486 27.882 23.4944 27.7394L24.7337 26.5288C25.1479 26.7548 25.6094 26.8684 26.0715 26.8684C26.774 26.8684 27.4765 26.6071 28.0113 26.0848L48.656 5.91702L49.2569 6.50409C49.4175 6.66085 49.5059 6.86938 49.5059 7.09115C49.5059 7.31292 49.4175 7.52135 49.2569 7.67821L43.0462 13.7455C42.7544 14.0305 42.7544 14.4926 43.0462 14.7775C43.192 14.92 43.3833 14.9913 43.5744 14.9913C43.7656 14.9913 43.9568 14.9201 44.1026 14.7775L50.3134 8.71026C50.7562 8.27773 51 7.70273 51 7.09105C51 6.47937 50.7563 5.90447 50.3135 5.47203ZM33.4843 18.6742L32.2824 19.8483L30.5158 18.1225L31.7177 16.9484L33.4843 18.6742ZM26.9548 25.0527C26.468 25.5285 25.6754 25.5286 25.1883 25.0527C24.7012 24.5769 24.7012 23.8028 25.1883 23.327L29.4592 19.1547L31.2258 20.8804L26.9548 25.0527ZM46.8895 2.12705L47.2082 1.81576C47.6953 1.33993 48.4877 1.34002 48.9747 1.81576C49.4618 2.2916 49.4618 3.06569 48.9747 3.54153L48.6561 3.85282L46.8895 2.12705Z" fill="white"/>
<path d="M27.8955 28.4945C27.4829 28.4945 27.1484 28.8213 27.1484 29.2243V31.21C27.1484 32.495 26.0783 33.5404 24.7629 33.5404H3.87959C2.56425 33.5403 1.49414 32.4949 1.49414 31.21V10.809C1.49414 9.52406 2.56425 8.47867 3.87959 8.47867H24.763C26.0784 8.47867 27.1485 9.52406 27.1485 10.809V15.1202C27.1485 15.5232 27.483 15.85 27.8956 15.85C28.3081 15.85 28.6426 15.5232 28.6426 15.1202V10.809C28.6426 8.71922 26.9023 7.01904 24.763 7.01904H3.87959C1.74038 7.01904 0 8.71922 0 10.809V31.21C0 33.2998 1.74038 35 3.87959 35H24.763C26.9023 35 28.6426 33.2998 28.6426 31.21V29.2243C28.6425 28.8213 28.308 28.4945 27.8955 28.4945Z" fill="white"/>
<path d="M22.5763 15.8132L11.9259 26.2177L6.86469 21.2735C6.57294 20.9885 6.09989 20.9885 5.80823 21.2735C5.51648 21.5585 5.51648 22.0206 5.80823 22.3055L11.3976 27.7658C11.5435 27.9083 11.7347 27.9796 11.9259 27.9796C12.117 27.9796 12.3083 27.9084 12.4541 27.7658L23.6329 16.8453C23.9246 16.5602 23.9246 16.0981 23.6329 15.8132C23.3411 15.5282 22.8681 15.5282 22.5763 15.8132Z" fill="white"/>
</svg>
