<svg width="42" height="42" viewBox="0 0 42 42" fill="none" xmlns="http://www.w3.org/2000/svg">
<path d="M41.4869 15.5522C37.816 14.8289 34.097 15.2346 30.4338 16.7589C30.1248 16.8874 29.9704 17.2272 30.0803 17.5367L30.4817 18.6669C28.8331 18.6674 27.4636 18.2463 26.0265 17.8027C25.5894 17.6677 25.1373 17.5283 24.6728 17.3992C22.5114 16.7992 20.3331 17.316 18.6961 18.817L18.4944 19.0019C15.6984 19.6172 13.768 19.578 11.4601 18.8304L11.9196 17.5367C12.0295 17.2272 11.8751 16.8874 11.5661 16.7589C7.90292 15.2347 4.184 14.8287 0.513011 15.5522C0.214586 15.611 0 15.8667 0 16.1636V31.6395C0 31.984 0.286314 32.2632 0.639664 32.2632H6.23425C6.50683 32.2632 6.74948 32.0948 6.83869 31.8435L7.09021 31.1353C9.22396 31.918 10.8689 33.5869 11.7867 34.5187C11.8789 34.6124 11.9644 34.6991 12.0429 34.7776L18.632 41.3614C19.0406 41.7696 19.5915 41.9964 20.1833 41.9999C20.1881 42 20.1927 42 20.1974 42C20.7925 42 21.3503 41.7755 21.7694 41.3668C22.0327 41.1101 22.2155 40.8043 22.3183 40.4793C23.2972 41.0126 24.5599 40.8742 25.391 40.064C25.823 39.6427 26.0688 39.1075 26.1283 38.5566C26.3551 38.619 26.5923 38.6513 26.8349 38.6513C27.523 38.6513 28.1685 38.3914 28.6524 37.9194C29.1166 37.4668 29.3657 36.8826 29.3999 36.2888C30.2199 36.4545 31.1078 36.2279 31.7432 35.6085C32.6809 34.6941 32.7399 33.2654 31.9179 32.2581C32.1392 32.2156 32.3597 32.1514 32.5767 32.0651C33.2343 31.8035 33.8411 31.5061 34.4281 31.2185C34.5761 31.146 34.7205 31.0755 34.8639 31.0061L35.1613 31.8435C35.2505 32.0948 35.4932 32.2632 35.7658 32.2632H41.3603C41.7137 32.2632 42 31.984 42 31.6395V16.1636C41.9999 15.8667 41.7853 15.611 41.4869 15.5522ZM5.7789 31.0157H1.27941V16.6819C4.34221 16.1736 7.44313 16.5109 10.5127 17.686L5.7789 31.0157ZM30.8385 34.7262C30.335 35.217 29.516 35.217 29.0128 34.7262L24.9877 30.713C24.741 30.4664 24.336 30.4615 24.0832 30.7022C23.8303 30.9428 23.8254 31.3377 24.0722 31.5842L27.7424 35.2516C27.7432 35.2524 27.7439 35.253 27.7447 35.2537C27.7458 35.2548 27.7467 35.256 27.7479 35.2571C28.2511 35.7478 28.2511 36.5465 27.7479 37.0373C27.2445 37.5281 26.4253 37.528 25.9223 37.0375L21.7262 32.8575C21.4794 32.6109 21.0744 32.606 20.8217 32.8467C20.5689 33.0873 20.564 33.4822 20.8107 33.7287L24.4811 37.3961C24.4819 37.397 24.4828 37.3977 24.4838 37.3985C24.4847 37.3995 24.4856 37.4005 24.4865 37.4015V37.4015C24.7289 37.6378 24.8623 37.9539 24.8623 38.2917C24.8623 38.6294 24.7289 38.9455 24.4867 39.1817C23.9831 39.6724 23.1641 39.6724 22.6609 39.1818L18.1049 34.6508C17.8581 34.4042 17.453 34.3994 17.2004 34.6401C16.9475 34.8807 16.9427 35.2756 17.1894 35.5221L20.8596 39.1894C20.8605 39.1902 20.8614 39.191 20.8623 39.1919C20.8633 39.1928 20.8641 39.1939 20.8651 39.1948C21.2296 39.5504 21.2297 40.129 20.8652 40.4847C20.6865 40.6589 20.4484 40.7529 20.1915 40.7525C19.9444 40.751 19.7157 40.6577 19.5479 40.4902L12.9588 33.9063C12.8825 33.83 12.7994 33.7456 12.7098 33.6546C11.7139 32.6435 9.92784 30.8315 7.5094 29.956L11.0417 20.0095C12.4202 20.4569 13.6935 20.6763 15.0547 20.6763C15.6136 20.6763 16.1884 20.6378 16.7903 20.5645L15.3101 21.9217C14.602 22.571 14.2277 23.4152 14.2277 24.363V30.6306C14.2277 30.9752 14.5141 31.2544 14.8674 31.2544C17.6242 31.2544 20.4757 29.5541 20.4757 26.7086C20.4757 25.7263 21.2697 25.0243 21.8783 24.5391L28.8491 31.3325C29.1854 31.6602 29.5712 31.909 29.9845 32.0752L30.8288 32.9358C31.3346 33.4519 31.339 34.2383 30.8385 34.7262ZM33.8537 30.1037C33.2887 30.3804 32.7046 30.6667 32.0932 30.9099C31.2624 31.2407 30.3879 31.0687 29.7532 30.4502L22.3717 23.2567C22.1319 23.023 21.7469 23.0124 21.4939 23.2323C21.426 23.2913 21.3331 23.3644 21.2254 23.4491C20.5162 24.0074 19.1961 25.0465 19.1961 26.7086C19.1961 27.8815 18.489 28.6422 17.8959 29.0739C17.2383 29.5525 16.3924 29.8663 15.5067 29.9696V24.3631C15.5067 23.7511 15.7289 23.2497 16.1861 22.8306L19.5724 19.7258C20.8734 18.5328 22.6048 18.1221 24.3224 18.599C24.7691 18.7229 25.212 18.8597 25.6403 18.9919C27.2302 19.4826 28.871 19.9878 30.9215 19.9055L34.4418 29.8179C34.2433 29.913 34.0466 30.0092 33.8537 30.1037ZM40.7206 31.0157H36.2211L31.4873 17.6861C34.5568 16.5109 37.6575 16.1737 40.7206 16.682V31.0157ZM6.11945 14.4792H14.7791V16.2445C14.7791 16.589 15.0655 16.8682 15.4188 16.8682H26.5811C26.9345 16.8682 27.2208 16.589 27.2208 16.2445V14.4792H35.8805C36.2338 14.4792 36.5201 14.2 36.5201 13.8555V11.2474C36.5201 9.11393 35.2152 7.24755 33.2827 6.43001C33.9148 5.74694 34.3001 4.84681 34.3001 3.8611C34.3001 1.73207 32.5053 0 30.2993 0C28.0933 0 26.2985 1.73207 26.2985 3.8611C26.2985 4.84764 26.6844 5.74852 27.3175 6.43183C26.0951 6.95305 25.104 7.9045 24.5524 9.09888C24.3698 8.995 24.1796 8.90202 23.9834 8.81902C24.6155 8.13596 25.0007 7.23582 25.0007 6.2502C25.0007 4.12108 23.206 2.38901 21 2.38901C18.7939 2.38901 16.9992 4.12108 16.9992 6.2502C16.9992 7.23591 17.3844 8.13604 18.0165 8.8191C17.8204 8.90211 17.6302 8.99509 17.4476 9.09896C16.8961 7.9045 15.9049 6.95313 14.6826 6.43192C15.3157 5.74869 15.7015 4.84781 15.7015 3.86126C15.7015 1.73223 13.9068 0.000166345 11.7008 0.000166345C9.49475 0.000166345 7.70002 1.73223 7.70002 3.86126C7.70002 4.84698 8.08527 5.74719 8.71734 6.43017C6.78487 7.24772 5.47996 9.1141 5.47996 11.2475V13.8556C5.47979 14.1999 5.76619 14.4792 6.11945 14.4792ZM16.0586 15.6206V13.6364C16.0586 11.7511 17.3946 10.1385 19.2638 9.72822C19.7892 9.97348 20.3782 10.1111 21.0001 10.1111C21.6218 10.1111 22.2109 9.97348 22.7363 9.72822C24.6055 10.1385 25.9415 11.7511 25.9415 13.6364V15.6206H16.0586ZM30.2993 1.24744C31.7999 1.24744 33.0207 2.41987 33.0207 3.86101C33.0207 5.30216 31.7999 6.47467 30.2993 6.47467C28.7987 6.47467 27.5779 5.30216 27.5779 3.86101C27.5779 2.41987 28.7987 1.24744 30.2993 1.24744ZM28.5636 7.33945C29.0889 7.58463 29.6778 7.72219 30.2993 7.72219C30.9211 7.72219 31.5102 7.58447 32.0357 7.3392C33.9048 7.74964 35.2409 9.36219 35.2409 11.2474V13.2317H27.204C27.1024 11.9313 26.516 10.7529 25.6053 9.88283C26.0826 8.60561 27.199 7.64061 28.5636 7.33945ZM21 3.63646C22.5006 3.63646 23.7214 4.80897 23.7214 6.25011C23.7214 7.69126 22.5006 8.8636 21 8.8636C19.4993 8.8636 18.2785 7.69117 18.2785 6.25003C18.2785 4.80889 19.4993 3.63646 21 3.63646ZM11.7007 1.24744C13.2013 1.24744 14.4221 2.41987 14.4221 3.86101C14.4221 5.30216 13.2013 6.47467 11.7007 6.47467C10.2001 6.47467 8.97926 5.30216 8.97926 3.86101C8.97926 2.41987 10.2001 1.24744 11.7007 1.24744ZM6.75912 11.2473C6.75912 9.36211 8.09516 7.74956 9.96435 7.33912C10.4898 7.58438 11.0789 7.72211 11.7007 7.72211C12.3223 7.72211 12.9111 7.58455 13.4365 7.33937C14.801 7.64052 15.9175 8.60544 16.3948 9.88274C15.484 10.7528 14.8977 11.9312 14.7961 13.2316H6.75912V11.2473Z" fill="white"/>
</svg>
