<svg width="32" height="38" viewBox="0 0 32 38" fill="none" xmlns="http://www.w3.org/2000/svg">
<path d="M28 38H4C1.7952 38 0 36.2235 0 34.0417V3.95833C0 1.7765 1.7952 0 4 0H28C30.2048 0 32 1.7765 32 3.95833V34.0417C32 36.2235 30.2048 38 28 38ZM4 1.58333C2.6768 1.58333 1.6 2.64892 1.6 3.95833V34.0417C1.6 35.3511 2.6768 36.4167 4 36.4167H28C29.3232 36.4167 30.4 35.3511 30.4 34.0417V3.95833C30.4 2.64892 29.3232 1.58333 28 1.58333H4Z" fill="white"/>
<path d="M24.8 12.6667H7.2C5.8768 12.6667 4.8 11.6011 4.8 10.2917V7.125C4.8 5.81558 5.8768 4.75 7.2 4.75H24.8C26.1232 4.75 27.2 5.81558 27.2 7.125V10.2917C27.2 11.6011 26.1232 12.6667 24.8 12.6667ZM7.2 6.33333C6.7584 6.33333 6.4 6.688 6.4 7.125V10.2917C6.4 10.7287 6.7584 11.0833 7.2 11.0833H24.8C25.2416 11.0833 25.6 10.7287 25.6 10.2917V7.125C25.6 6.688 25.2416 6.33333 24.8 6.33333H7.2Z" fill="white"/>
<path d="M9.6 22.1667C9.1584 22.1667 8.8 21.812 8.8 21.375V16.625C8.8 16.188 9.1584 15.8333 9.6 15.8333C10.0416 15.8333 10.4 16.188 10.4 16.625V21.375C10.4 21.812 10.0416 22.1667 9.6 22.1667Z" fill="white"/>
<path d="M12 19.7917H7.2C6.7584 19.7917 6.4 19.437 6.4 19C6.4 18.563 6.7584 18.2083 7.2 18.2083H12C12.4416 18.2083 12.8 18.563 12.8 19C12.8 19.437 12.4416 19.7917 12 19.7917Z" fill="white"/>
<path d="M24.8 19.7917H20C19.5584 19.7917 19.2 19.437 19.2 19C19.2 18.563 19.5584 18.2083 20 18.2083H24.8C25.2416 18.2083 25.6 18.563 25.6 19C25.6 19.437 25.2416 19.7917 24.8 19.7917Z" fill="white"/>
<path d="M24.8 26.9167H20C19.5584 26.9167 19.2 26.562 19.2 26.125C19.2 25.688 19.5584 25.3333 20 25.3333H24.8C25.2416 25.3333 25.6 25.688 25.6 26.125C25.6 26.562 25.2416 26.9167 24.8 26.9167Z" fill="white"/>
<path d="M24.8 31.6667H20C19.5584 31.6667 19.2 31.312 19.2 30.875C19.2 30.438 19.5584 30.0833 20 30.0833H24.8C25.2416 30.0833 25.6 30.438 25.6 30.875C25.6 31.312 25.2416 31.6667 24.8 31.6667Z" fill="white"/>
<path d="M7.2 31.6667C6.9952 31.6667 6.7904 31.5891 6.6336 31.4355C6.3216 31.1268 6.3216 30.6248 6.6336 30.3161L11.4336 25.5661C11.7456 25.2573 12.2528 25.2573 12.5648 25.5661C12.8768 25.8748 12.8768 26.3768 12.5648 26.6855L7.7648 31.4355C7.6096 31.5891 7.4048 31.6667 7.2 31.6667Z" fill="white"/>
<path d="M12 31.6667C11.7952 31.6667 11.5904 31.5891 11.4336 31.4355L6.6336 26.6855C6.3216 26.3768 6.3216 25.8748 6.6336 25.5661C6.9456 25.2573 7.4528 25.2573 7.7648 25.5661L12.5648 30.3161C12.8768 30.6248 12.8768 31.1268 12.5648 31.4355C12.4096 31.5891 12.2048 31.6667 12 31.6667Z" fill="white"/>
</svg>
