<svg width="329" height="60" viewBox="0 0 329 60" fill="none" xmlns="http://www.w3.org/2000/svg">
<path d="M20.9467 33.3549V20.1081L0 6.70271V60H15.1157C15.6627 60 16.108 59.5522 16.108 59.0022V37.66C16.108 35.2835 18.0259 33.3549 20.3892 33.3549H20.9467ZM10.9888 56.2555V46.7356L8.7237 53.5406H7.29313L5.08766 47.0988V56.2555H2.47896V40.9038H5.22791L8.01192 49.2461L10.8661 40.9038H13.5449V56.2555H10.9888Z" fill="url(#paint0_linear_2001_2)"/>
<path d="M25.0035 0L23.4011 33.3549H26.6059C26.1325 23.4965 25.0035 0 25.0035 0Z" fill="url(#paint1_linear_2001_2)"/>
<path d="M29.0568 20.1081V33.3549H29.6108C31.9741 33.3549 33.892 35.2835 33.892 37.66V59.0022C33.892 59.5557 34.3373 60 34.8843 60H50V6.70271L29.0568 20.1081ZM43.4011 56.2555L41.2938 49.8878H39.8107V56.2555H36.946V40.9038H39.8107V47.3773H41.3324L42.777 40.9038H45.7223L43.7272 48.3575L46.4271 56.2555H43.4011Z" fill="url(#paint2_linear_2001_2)"/>
<path d="M29.6108 35.9852H20.3892C19.4705 35.9852 18.7237 36.7362 18.7237 37.66V60H31.2763V37.66C31.2798 36.7362 30.533 35.9852 29.6108 35.9852ZM26.2482 45.8965V44.6624C26.2482 44.4015 26.2062 44.1758 26.122 43.9854C26.0379 43.795 25.9081 43.6505 25.7363 43.5482C25.5645 43.446 25.3576 43.3966 25.1192 43.3966C24.8878 43.3966 24.6879 43.446 24.5196 43.5447C24.3513 43.6434 24.2216 43.788 24.1339 43.9784C24.0463 44.1688 24.0007 44.3944 24.0007 44.6553V52.511C24.0007 52.7719 24.0463 52.9941 24.1339 53.1809C24.2216 53.3678 24.3513 53.5088 24.5196 53.6076C24.6879 53.7063 24.8878 53.7557 25.1192 53.7557C25.3647 53.7557 25.575 53.7063 25.7433 53.6076C25.9116 53.5088 26.0414 53.3678 26.1255 53.1809C26.2097 52.9941 26.2518 52.7684 26.2518 52.5004V51.2664H29.1515V52.5004C29.1515 53.3255 28.9937 54.0307 28.6781 54.616C28.3626 55.2048 27.9032 55.6491 27.2966 55.9558C26.6935 56.2626 25.9677 56.4142 25.1192 56.4142C24.2742 56.4142 23.5484 56.259 22.9488 55.9558C22.3492 55.6491 21.8899 55.2048 21.5673 54.6195C21.2447 54.0342 21.087 53.3326 21.087 52.5075V44.6518C21.087 43.8268 21.2482 43.1251 21.5673 42.5398C21.8864 41.9545 22.3457 41.5103 22.9488 41.2035C23.5484 40.8968 24.2742 40.7451 25.1192 40.7451C25.9677 40.7451 26.6935 40.8968 27.2966 41.2035C27.8997 41.5103 28.3626 41.958 28.6781 42.5433C28.9937 43.1322 29.1515 43.8373 29.1515 44.6589V45.8965H26.2482Z" fill="url(#paint3_linear_2001_2)"/>
<path d="M66.0439 44.3838H63L65.1149 28.3038H67.6449L70.926 37.9229L74.2071 28.3038H76.7371L78.852 44.3838H75.8081L74.7606 34.7888L71.4597 44.3838H70.3923L67.0915 34.7888L66.0439 44.3838Z" fill="#1C2649"/>
<path d="M87.7019 27.9421C89.7839 27.9421 91.4838 28.7216 92.8015 30.2806C94.1719 31.9039 94.8571 33.929 94.8571 36.3558C94.8571 38.7506 94.1719 40.7596 92.8015 42.3828C91.4706 43.9579 89.7707 44.7454 87.7019 44.7454C85.62 44.7454 83.9069 43.9579 82.5629 42.3828C81.9172 41.6435 81.4099 40.7596 81.0409 39.731C80.6851 38.6863 80.5073 37.5773 80.5073 36.404C80.5073 35.279 80.6917 34.17 81.0607 33.0771C81.4428 31.9682 81.937 31.044 82.5431 30.3047C83.8345 28.7297 85.5541 27.9421 87.7019 27.9421ZM87.6822 31.3655C86.5094 31.3655 85.5475 31.8235 84.7964 32.7396C84.0189 33.6557 83.6302 34.8692 83.6302 36.3799C83.6302 37.8264 84.0321 39.0318 84.8359 39.9961C85.6002 40.8801 86.5424 41.3221 87.6624 41.3221C88.8615 41.3221 89.8366 40.864 90.5877 39.9479C91.352 39.0479 91.7341 37.8505 91.7341 36.3558C91.7341 34.8772 91.352 33.6718 90.5877 32.7396C89.8103 31.8235 88.8418 31.3655 87.6822 31.3655Z" fill="#1C2649"/>
<path d="M106.649 39.6104V43.8775C105.713 44.4561 104.745 44.7454 103.743 44.7454C101.595 44.7454 99.8691 43.9659 98.5645 42.4069C97.1941 40.7837 96.5089 38.7506 96.5089 36.3076C96.5089 33.8968 97.1941 31.8798 98.5645 30.2565C99.8691 28.7136 101.51 27.9421 103.486 27.9421C104.461 27.9421 105.515 28.2395 106.649 28.8341V33.1254C105.766 31.9842 104.738 31.4137 103.565 31.4137C102.485 31.4137 101.589 31.8316 100.877 32.6673C100.047 33.6477 99.6319 34.8852 99.6319 36.3799C99.6319 37.8425 100.014 39.0238 100.778 39.9238C101.516 40.8239 102.465 41.2739 103.625 41.2739C104.718 41.2739 105.726 40.7194 106.649 39.6104Z" fill="#1C2649"/>
<path d="M118.616 39.6104V43.8775C117.681 44.4561 116.712 44.7454 115.711 44.7454C113.563 44.7454 111.837 43.9659 110.532 42.4069C109.162 40.7837 108.476 38.7506 108.476 36.3076C108.476 33.8968 109.162 31.8798 110.532 30.2565C111.837 28.7136 113.477 27.9421 115.454 27.9421C116.429 27.9421 117.483 28.2395 118.616 28.8341V33.1254C117.733 31.9842 116.705 31.4137 115.533 31.4137C114.452 31.4137 113.556 31.8316 112.845 32.6673C112.014 33.6477 111.599 34.8852 111.599 36.3799C111.599 37.8425 111.981 39.0238 112.746 39.9238C113.484 40.8239 114.432 41.2739 115.592 41.2739C116.686 41.2739 117.694 40.7194 118.616 39.6104Z" fill="#1C2649"/>
<path d="M128.972 31.4378H126.106V44.3838H123.063V31.4378H120.196V28.3038H128.972V31.4378Z" fill="#1C2649"/>
<path d="M130.573 28.3038H135.218C136.707 28.3038 137.86 28.7457 138.677 29.6297C139.533 30.5458 139.961 31.8476 139.961 33.5352C139.961 35.1103 139.586 36.3719 138.835 37.3202C138.07 38.2684 136.95 38.7425 135.475 38.7425H133.617V44.3838H130.573V28.3038ZM133.617 31.3414V35.7049H134.704C135.455 35.7049 136.002 35.504 136.344 35.1022C136.674 34.7004 136.838 34.17 136.838 33.5111C136.838 32.8361 136.674 32.3137 136.344 31.9441C136.002 31.5423 135.435 31.3414 134.644 31.3414H133.617Z" fill="#1C2649"/>
<path d="M148.466 27.9421C150.548 27.9421 152.248 28.7216 153.565 30.2806C154.936 31.9039 155.621 33.929 155.621 36.3558C155.621 38.7506 154.936 40.7596 153.565 42.3828C152.234 43.9579 150.535 44.7454 148.466 44.7454C146.384 44.7454 144.671 43.9579 143.327 42.3828C142.681 41.6435 142.174 40.7596 141.805 39.731C141.449 38.6863 141.271 37.5773 141.271 36.404C141.271 35.279 141.456 34.17 141.825 33.0771C142.207 31.9682 142.701 31.044 143.307 30.3047C144.598 28.7297 146.318 27.9421 148.466 27.9421ZM148.446 31.3655C147.273 31.3655 146.311 31.8235 145.56 32.7396C144.783 33.6557 144.394 34.8692 144.394 36.3799C144.394 37.8264 144.796 39.0318 145.6 39.9961C146.364 40.8801 147.306 41.3221 148.426 41.3221C149.625 41.3221 150.601 40.864 151.352 39.9479C152.116 39.0479 152.498 37.8505 152.498 36.3558C152.498 34.8772 152.116 33.6718 151.352 32.7396C150.574 31.8235 149.606 31.3655 148.446 31.3655Z" fill="#1C2649"/>
<path d="M157.886 28.3038H160.929V38.8149L167.037 28.1109H169.725V44.3838H166.681V33.8486L160.574 44.5767H157.886V28.3038ZM165.634 23L167.729 24.0849C167.413 25.001 166.912 25.7242 166.227 26.2546C165.607 26.7046 164.797 26.9296 163.795 26.9296C162.807 26.9296 162.003 26.7046 161.384 26.2546C160.699 25.7242 160.198 25.001 159.882 24.0849L161.977 23C162.148 23.5143 162.366 23.9 162.629 24.1572C162.932 24.4304 163.334 24.567 163.835 24.567C164.309 24.567 164.698 24.4304 165.001 24.1572C165.304 23.8679 165.515 23.4822 165.634 23Z" fill="#1C2649"/>
<path d="M175.657 28.3038V35.0058L180.164 28.3038H183.88L178.543 35.9219L184.295 44.3838H180.381L175.657 37.2478V44.3838H172.613V28.3038H175.657Z" fill="#1C2649"/>
<path d="M191.607 27.9421C193.689 27.9421 195.388 28.7216 196.706 30.2806C198.077 31.9039 198.762 33.929 198.762 36.3558C198.762 38.7506 198.077 40.7596 196.706 42.3828C195.375 43.9579 193.675 44.7454 191.607 44.7454C189.525 44.7454 187.812 43.9579 186.468 42.3828C185.822 41.6435 185.315 40.7596 184.946 39.731C184.59 38.6863 184.412 37.5773 184.412 36.404C184.412 35.279 184.596 34.17 184.965 33.0771C185.348 31.9682 185.842 31.044 186.448 30.3047C187.739 28.7297 189.459 27.9421 191.607 27.9421ZM191.587 31.3655C190.414 31.3655 189.452 31.8235 188.701 32.7396C187.924 33.6557 187.535 34.8692 187.535 36.3799C187.535 37.8264 187.937 39.0318 188.741 39.9961C189.505 40.8801 190.447 41.3221 191.567 41.3221C192.766 41.3221 193.741 40.864 194.492 39.9479C195.257 39.0479 195.639 37.8505 195.639 36.3558C195.639 34.8772 195.257 33.6718 194.492 32.7396C193.715 31.8235 192.746 31.3655 191.587 31.3655Z" fill="#1C2649"/>
<path d="M203.458 44.3838H200.414L202.529 28.3038H205.059L208.34 37.9229L211.621 28.3038H214.151L216.266 44.3838H213.222L212.174 34.7888L208.873 44.3838H207.806L204.505 34.7888L203.458 44.3838Z" fill="#1C2649"/>
<path d="M218.534 28.3038H229.622V44.3838H226.578V31.4378H221.577V44.3838H218.534V28.3038Z" fill="#1C2649"/>
<path d="M233.813 28.3038H243.399V44.3838H240.355V31.4378H236.778V36.9585C236.778 40.0926 236.336 42.206 235.454 43.2989C234.755 44.1508 233.767 44.5767 232.489 44.5767C232.067 44.5767 231.659 44.5124 231.263 44.3838V41.0569C231.474 41.1533 231.724 41.2015 232.014 41.2015C232.528 41.2015 232.93 41.0248 233.22 40.6712C233.615 40.189 233.813 39.064 233.813 37.296V28.3038Z" fill="#1C2649"/>
<path d="M253.742 28.3038V31.4378H249.334V34.5477H253.525V37.6818H249.334V41.2498H253.742V44.3838H246.29V28.3038H253.742Z" fill="#1C2649"/>
<path d="M259.256 28.3038V35.0058L263.762 28.3038H267.478L262.142 35.9219L267.893 44.3838H263.98L259.256 37.2478V44.3838H256.212V28.3038H259.256Z" fill="#1C2649"/>
<path d="M276.732 31.4378H273.866V44.3838H270.822V31.4378H267.956V28.3038H276.732V31.4378Z" fill="#1C2649"/>
<path d="M286.239 44.3838L285.25 41.3462H280.27L279.261 44.3838H276.099L281.416 28.3038H284.203L289.401 44.3838H286.239ZM281.159 38.5014H284.42L282.8 33.1013L281.159 38.5014Z" fill="#1C2649"/>
<path d="M290.879 44.3838V28.3038H293.923V41.2498H298.805V28.3038H301.849V41.2498H303.628V48H300.9V44.3838H290.879Z" fill="#1C2649"/>
<path d="M305.259 28.3038H308.303V38.8149L314.411 28.1109H317.099V44.3838H314.055V33.8486L307.947 44.5767H305.259V28.3038Z" fill="#1C2649"/>
<path d="M329 28.3038V44.3838H325.956V38.5256H325.561L322.458 44.3838H318.939L322.734 38.0916C321.983 37.9309 321.357 37.5532 320.857 36.9585C320.119 36.1228 319.75 34.9335 319.75 33.3905C319.75 31.9601 320.105 30.7869 320.817 29.8708C321.647 28.8261 322.866 28.3038 324.474 28.3038H329ZM325.956 35.6808V31.3414H325.245C324.428 31.3414 323.828 31.5342 323.446 31.92C323.064 32.3378 322.873 32.8762 322.873 33.5352C322.873 34.1781 323.044 34.6924 323.387 35.0781C323.755 35.4799 324.375 35.6808 325.245 35.6808H325.956Z" fill="#1C2649"/>
<defs>
<linearGradient id="paint0_linear_2001_2" x1="2.78294e-06" y1="100.2" x2="91.1934" y2="-17.7775" gradientUnits="userSpaceOnUse">
<stop stop-color="#1C2649"/>
<stop offset="1" stop-color="#535F8B"/>
</linearGradient>
<linearGradient id="paint1_linear_2001_2" x1="2.78294e-06" y1="100.2" x2="91.1934" y2="-17.7775" gradientUnits="userSpaceOnUse">
<stop stop-color="#1C2649"/>
<stop offset="1" stop-color="#535F8B"/>
</linearGradient>
<linearGradient id="paint2_linear_2001_2" x1="2.78294e-06" y1="100.2" x2="91.1934" y2="-17.7775" gradientUnits="userSpaceOnUse">
<stop stop-color="#1C2649"/>
<stop offset="1" stop-color="#535F8B"/>
</linearGradient>
<linearGradient id="paint3_linear_2001_2" x1="2.78294e-06" y1="100.2" x2="91.1934" y2="-17.7775" gradientUnits="userSpaceOnUse">
<stop stop-color="#1C2649"/>
<stop offset="1" stop-color="#535F8B"/>
</linearGradient>
</defs>
</svg>
