<svg width="13" height="16" viewBox="0 0 13 16" fill="none" xmlns="http://www.w3.org/2000/svg">
<path d="M6.40169 7.70722C7.43285 7.70722 8.32576 7.32746 9.05532 6.5782C9.78489 5.82906 10.1547 4.91244 10.1547 3.85349C10.1547 2.7949 9.78489 1.87816 9.05521 1.12878C8.32552 0.379758 7.43273 0 6.40169 0C5.3704 0 4.47773 0.379758 3.74817 1.1289C3.0186 1.87804 2.64865 2.79478 2.64865 3.85349C2.64865 4.91244 3.0186 5.82918 3.74829 6.57832C4.47797 7.32734 5.37076 7.70722 6.40169 7.70722Z" fill="#EFEF51"/>
<path d="M12.9685 12.3031C12.9475 11.9914 12.9049 11.6513 12.8422 11.2922C12.779 10.9303 12.6976 10.5883 12.6001 10.2757C12.4994 9.95256 12.3624 9.63347 12.1932 9.32769C12.0175 9.01031 11.8111 8.73394 11.5795 8.50653C11.3373 8.26861 11.0409 8.07733 10.698 7.93781C10.3563 7.79901 9.97771 7.7287 9.57269 7.7287C9.41363 7.7287 9.2598 7.79572 8.96272 7.99432C8.77988 8.11676 8.56602 8.25836 8.3273 8.41498C8.12319 8.54852 7.84667 8.67364 7.50513 8.78692C7.17191 8.89764 6.83358 8.95379 6.49964 8.95379C6.16571 8.95379 5.8275 8.89764 5.49392 8.78692C5.15273 8.67376 4.87622 8.54864 4.67234 8.4151C4.43589 8.25995 4.2219 8.11835 4.03633 7.9942C3.73961 7.79559 3.58566 7.72858 3.4266 7.72858C3.02145 7.72858 2.64294 7.79901 2.3014 7.93793C1.95879 8.07721 1.66218 8.26849 1.41978 8.50665C1.18832 8.73419 0.98183 9.01043 0.806363 9.32769C0.637197 9.63347 0.500247 9.95244 0.399437 10.2758C0.302074 10.5884 0.220641 10.9303 0.157397 11.2922C0.0947473 11.6508 0.0521883 11.991 0.0311466 12.3035C0.0104614 12.6096 0 12.9274 0 13.2483C0 14.0835 0.258564 14.7597 0.76844 15.2583C1.27202 15.7504 1.93834 16 2.74862 16H10.2514C11.0617 16 11.7277 15.7505 12.2314 15.2583C12.7414 14.76 13 14.0838 13 13.2482C12.9999 12.9258 12.9893 12.6078 12.9685 12.3031Z" fill="#EFEF51"/>
</svg>
