<svg width="18" height="19" viewBox="0 0 18 19" fill="none" xmlns="http://www.w3.org/2000/svg">
<path d="M8.82663 9.73872C11.3165 9.73872 13.3414 7.09028 13.3414 4.59511C13.3414 2.09973 11.3165 0.0693359 8.82663 0.0693359C6.33719 0.0693359 4.31187 2.09952 4.31187 4.5949C4.31208 7.09028 6.3374 9.73872 8.82663 9.73872Z" fill="#283A79"/>
<path d="M15.2346 11.2215C13.6177 9.78543 11.2268 10.8518 9.06427 10.8518H8.58899C6.42648 10.8518 4.0355 9.7854 2.41864 11.2214C1.17668 12.3245 0.393898 13.9351 0.393898 15.7292C0.393898 17.3754 4.16929 18.7101 8.82663 18.7101C13.484 18.7101 17.2594 17.3754 17.2594 15.7292C17.2594 13.9351 16.4765 12.3246 15.2346 11.2215Z" fill="#283A79"/>
</svg>
