<svg width="19" height="19" viewBox="0 0 19 19" fill="none" xmlns="http://www.w3.org/2000/svg">
<path d="M2.11757 3.64132L1.77585 2.16839C1.68149 1.72887 1.2928 1.42337 0.855821 1.44535C0.28742 1.47326 -0.113023 2.0305 0.0286729 2.59748L0.922413 6.40522C1.03844 6.89949 1.52106 7.20418 2.00191 7.08675L5.7048 6.17439C6.87075 5.88342 6.44666 4.08426 5.28071 4.37513L3.50024 4.81677C4.73287 3.21535 6.54931 2.09635 8.68393 1.86186C12.9051 1.39812 16.6729 4.53054 17.1236 8.87334C17.2206 10.1391 19.0787 9.93294 18.9111 8.6752C18.392 3.6737 14.2536 -0.0507972 8.98272 0.000523958C5.88837 0.31522 3.639 1.681 2.11757 3.64132ZM13.2806 12.7983C12.0666 13.0541 12.5047 14.9343 13.6994 14.5959L15.4781 14.1541C14.2455 15.755 12.4293 16.8692 10.2944 17.1037C6.07322 17.5675 2.30722 14.4422 1.85646 10.0994C1.81323 9.61595 1.41344 9.24953 0.94169 9.26101C0.411617 9.27496 0.00887872 9.75636 0.0742359 10.2977C0.627969 15.6327 5.29991 19.5142 10.4854 18.9445C13.0943 18.6581 15.3412 17.2876 16.8625 15.3297L17.2095 16.8044C17.428 18.0955 19.325 17.6282 18.9514 16.3753L18.063 12.5658C17.9619 12.1264 17.5668 11.8266 17.0527 11.8707L13.2806 12.7983Z" fill="#1C2649"/>
</svg>
