<svg width="21" height="26" viewBox="0 0 21 26" fill="none" xmlns="http://www.w3.org/2000/svg">
<path d="M20.2973 20.3507L17.754 16.5528C16.8457 15.1964 14.8291 15.2655 14.0833 16.6455C13.5408 17.5957 12.295 17.9357 11.32 17.5066C9.16588 16.4901 6.69094 12.9409 6.59679 10.4533C6.4593 9.36774 7.36429 8.37209 8.45176 8.23578C10.0151 8.07653 10.8509 6.24414 9.94258 4.88774L7.39931 1.08981C6.65017 0.117781 5.29019 -0.152788 4.33938 0.48103L1.75859 2.20139C-0.844699 4.03485 0.342749 10.5023 4.6118 16.8774C8.88085 23.2525 14.3924 26.9355 17.109 25.1246L19.6898 23.4042C20.6632 22.6573 20.9332 21.3002 20.2973 20.3507Z" fill="#F1F162"/>
</svg>
