<svg width="23" height="14" viewBox="0 0 23 14" fill="none" xmlns="http://www.w3.org/2000/svg">
<path d="M22.878 12.6435C22.8502 12.5795 22.8242 12.5264 22.8001 12.4838C22.401 11.7171 21.6385 10.7759 20.5128 9.66014L20.4891 9.63459L20.4771 9.62206L20.4651 9.60922H20.453C19.9422 9.08965 19.6186 8.7403 19.4832 8.56144C19.2353 8.22073 19.1798 7.87586 19.3152 7.52642C19.4109 7.26241 19.7705 6.70485 20.393 5.85298C20.7205 5.40152 20.9798 5.03968 21.1713 4.76708C22.5525 2.80801 23.1514 1.55614 22.9677 1.01098L22.8963 0.883578C22.8484 0.80688 22.7246 0.736714 22.5253 0.672725C22.3255 0.608869 22.0701 0.598309 21.7586 0.640865L18.3099 0.666281C18.254 0.64516 18.1742 0.647129 18.0703 0.672725C17.9665 0.698321 17.9146 0.711164 17.9146 0.711164L17.8546 0.743158L17.8069 0.781597C17.767 0.807014 17.7231 0.851717 17.6751 0.915617C17.6274 0.979294 17.5875 1.05402 17.5557 1.13918C17.1802 2.16977 16.7533 3.12796 16.2742 4.0137C15.9788 4.54186 15.7075 4.99959 15.4597 5.38715C15.2123 5.77458 15.0047 6.06003 14.8372 6.243C14.6694 6.42616 14.518 6.57289 14.382 6.68373C14.2463 6.79461 14.1426 6.84146 14.0708 6.82432C13.9989 6.80719 13.9312 6.79018 13.867 6.77318C13.7554 6.69648 13.6655 6.59217 13.5978 6.46017C13.5297 6.32816 13.4839 6.16201 13.46 5.96185C13.4362 5.76156 13.4221 5.58928 13.418 5.44443C13.4143 5.29976 13.416 5.09513 13.4241 4.83111C13.4324 4.56697 13.4362 4.38824 13.4362 4.29454C13.4362 3.97083 13.4421 3.61952 13.4539 3.2405C13.466 2.86148 13.4758 2.56118 13.484 2.33995C13.4921 2.11849 13.4959 1.88419 13.4959 1.63718C13.4959 1.39017 13.4818 1.19646 13.4539 1.05586C13.4264 0.915438 13.3842 0.779136 13.3285 0.646995C13.2725 0.514988 13.1906 0.412873 13.083 0.340381C12.9753 0.267979 12.8413 0.210523 12.6819 0.167833C12.2587 0.0656732 11.7199 0.0104095 11.0651 0.00181783C9.58027 -0.0151864 8.62619 0.0871074 8.20306 0.308565C8.03542 0.402133 7.88371 0.529978 7.74806 0.691698C7.60432 0.879147 7.58427 0.981442 7.68804 0.998267C8.16712 1.07483 8.50627 1.25798 8.70588 1.54755L8.77781 1.70099C8.83377 1.8117 8.88963 2.00769 8.94554 2.28871C9.00137 2.56973 9.0374 2.88059 9.05325 3.22112C9.0931 3.84299 9.0931 4.37531 9.05325 4.81814C9.01328 5.26114 8.97553 5.60602 8.9395 5.85302C8.90347 6.10003 8.84962 6.30019 8.77781 6.45345C8.70588 6.60676 8.65802 6.70046 8.63403 6.73447C8.61008 6.76848 8.59012 6.78991 8.57426 6.79833C8.47049 6.84075 8.36257 6.86236 8.25088 6.86236C8.13902 6.86236 8.00337 6.80267 7.84373 6.68337C7.68414 6.56407 7.51851 6.4002 7.34683 6.1915C7.17516 5.98275 6.98155 5.69104 6.76592 5.31632C6.55046 4.9416 6.3269 4.49873 6.09537 3.9877L5.90381 3.6171C5.78407 3.37868 5.62049 3.03153 5.41291 2.57595C5.20521 2.12019 5.02162 1.67933 4.86203 1.25346C4.79823 1.07461 4.70239 0.938439 4.57467 0.844737L4.51474 0.806298C4.47489 0.772289 4.41093 0.736177 4.32318 0.697694C4.23531 0.659256 4.14362 0.631691 4.04774 0.614731L0.766556 0.640148C0.431261 0.640148 0.203761 0.721187 0.0839705 0.88304L0.0360293 0.959604C0.0120797 1.00225 0 1.07036 0 1.1641C0 1.25781 0.0239496 1.37281 0.0718908 1.50898C0.550883 2.71001 1.07178 3.86832 1.63457 4.98406C2.19737 6.09981 2.68643 6.99857 3.10146 7.67955C3.51657 8.36102 3.93969 9.00418 4.37083 9.60873C4.80196 10.2135 5.08735 10.6011 5.22698 10.7713C5.36677 10.9419 5.47658 11.0694 5.5564 11.1546L5.85583 11.4612C6.04743 11.6656 6.32878 11.9105 6.70002 12.1957C7.07135 12.4812 7.48243 12.7622 7.93349 13.0392C8.38464 13.3158 8.90947 13.5415 9.5083 13.7161C10.107 13.8908 10.6898 13.961 11.2567 13.9271H12.6338C12.9131 13.9014 13.1247 13.8077 13.2686 13.646L13.3162 13.5819C13.3482 13.5311 13.3782 13.4521 13.4059 13.3459C13.4339 13.2394 13.4479 13.1221 13.4479 12.9945C13.4397 12.6284 13.4658 12.2984 13.5255 12.0045C13.5852 11.7108 13.6533 11.4894 13.7293 11.3402C13.8054 11.1912 13.8912 11.0655 13.9867 10.9635C14.0824 10.8614 14.1506 10.7995 14.1906 10.7782C14.2304 10.7567 14.2622 10.7422 14.2861 10.7335C14.4777 10.6654 14.7032 10.7313 14.9629 10.9317C15.2224 11.1318 15.4658 11.379 15.6935 11.6727C15.921 11.9667 16.1944 12.2965 16.5137 12.6627C16.8332 13.029 17.1125 13.3013 17.3519 13.4804L17.5913 13.6337C17.7512 13.736 17.9588 13.8297 18.2143 13.9149C18.4694 14 18.6928 14.0213 18.8847 13.9787L21.9502 13.9277C22.2534 13.9277 22.4894 13.8742 22.6567 13.7679C22.8244 13.6614 22.924 13.5441 22.9562 13.4166C22.9882 13.2888 22.9899 13.144 22.9622 12.982C22.9338 12.8204 22.9059 12.7074 22.878 12.6435Z" fill="url(#paint0_linear_469_496)"/>
<defs>
<linearGradient id="paint0_linear_469_496" x1="1.28015e-06" y1="23.38" x2="14.9448" y2="-14.7361" gradientUnits="userSpaceOnUse">
<stop stop-color="#1C2649"/>
<stop offset="1" stop-color="#535F8B"/>
</linearGradient>
</defs>
</svg>
